M48
INCH,LZ
;FILE_FORMAT=2:4
;TYPE=PLATED
;Layer: PTH_Through
;EasyEDA v6.5.51, 2025-11-08 23:49:31
;24b077a0fc1f4b80a491af6b48e99bdb,10
;Gerber Generator version 0.2
;Holesize 1 = 0.0120 inch
T01C0.0120
;Holesize 2 = 0.0320 inch
T02C0.0320
;Holesize 3 = 0.0390 inch
T03C0.0390
;Holesize 4 = 0.0470 inch
T04C0.0470
;Holesize 5 = 0.0510 inch
T05C0.0510
;Holesize 6 = 0.1170 inch
T06C0.1170
;Holesize 7 = 0.1260 inch
T07C0.1260
%
G05
G90
T01
X033500Y019500
X033500Y018550
X033500Y017800
X028150Y018850
X028150Y018350
X029250Y020250
X029850Y020250
X031150Y020250
X031850Y020250
X032200Y028550
X032800Y023950
X027000Y025750
X027400Y027600
X030200Y029550
X035450Y031850
X037950Y026250
X034600Y023600
X029600Y023600
X024250Y023100
X022100Y021200
X022100Y020800
X034700Y024750
X030700Y024900
X033600Y023150
X033300Y023150
X033050Y023350
X031000Y023200
X031150Y023450
X031150Y023750
X023250Y023800
X023250Y023500
X023350Y023200
X048700Y015450
X048700Y014150
X048050Y014800
X049350Y014800
X044750Y014600
X044750Y014000
X044750Y013450
X043550Y013450
X043550Y014000
X043550Y014600
X044150Y015250
X044150Y013000
X034000Y014550
X033900Y014200
X034050Y013900
X034050Y013450
X031350Y013800
X031700Y013950
X031150Y012700
X029600Y012450
X030350Y012450
X031150Y013050
X042200Y021500
X042200Y021200
X042200Y020900
X042200Y020600
X042200Y020300
X042200Y020000
X042200Y019700
X047650Y023350
X049500Y023350
X048750Y035050
X048750Y034650
X048750Y033200
X048750Y032850
X046300Y031150
X046750Y031150
X040800Y030500
X041150Y030500
X034500Y031900
X034950Y031850
X038350Y029200
X038350Y028850
X042500Y036550
X042500Y036200
X037800Y030450
X038200Y030450
X043700Y027950
X043700Y027650
X021300Y023650
X021550Y023450
X021600Y023150
X034700Y024450
X030700Y024550
X031650Y024250
X031650Y024550
X048000Y017000
X048000Y016600
X044750Y017650
X044750Y017100
X043250Y019300
X043700Y019300
X046300Y021100
X046800Y021100
X044150Y018750
X050400Y025050
X050400Y024550
X043550Y034800
X043550Y034450
X043550Y034100
X043550Y033750
X048200Y036550
X048250Y036150
X047850Y036550
X043000Y035450
X043000Y035050
X026700Y023650
X026700Y023350
X035550Y024400
X035550Y024100
X038000Y024450
X038000Y024150
X036250Y026700
X034900Y026700
X034800Y026400
X031250Y026500
X031250Y026200
X036550Y026700
X032700Y026600
X032700Y026300
X040000Y026750
X040000Y026450
X038450Y026650
X038450Y026300
X048200Y023350
X048850Y023350
X044900Y036050
X044900Y035750
X026250Y026750
X026550Y026750
X025300Y026600
X025300Y026200
X036200Y028550
X036500Y028550
X033500Y018900
X033500Y018150
X033500Y019850
X038050Y029850
X038050Y029500
X033800Y021100
X026500Y020600
X037550Y026050
X038850Y019100
X037750Y019100
X038300Y018550
X038300Y019650
X038550Y036750
X037400Y036750
X038000Y036200
X038000Y037300
X022200Y028500
X023300Y028500
X022750Y027950
X022750Y029050
X038700Y036050
X039250Y036050
X031150Y016950
X031500Y016950
X031800Y016950
X027250Y019150
X027600Y019150
T02
X029550Y018532G85X029550Y018768
X029550Y019532G85X029550Y019768
X029550Y017532G85X029550Y017768
X031450Y018532G85X031450Y018768
X031450Y019532G85X031450Y019768
X031450Y017532G85X031450Y017768
T03
X031350Y014250
X030350Y014250
X032350Y014250
X035350Y014250
X034350Y014250
T04
X021105Y021215G85X021105Y021217
X021105Y022199G85X021105Y022201
X021105Y023183G85X021105Y023185
T05
X048700Y014816
X048700Y016784
X044400Y023300
X044400Y021300
X044400Y022300
T06
X018349Y020468G85X018349Y020468
X018349Y023932G85X018349Y023932
T07
X022499Y016050G85X022501Y016050
X018449Y031650G85X018451Y031650
X039549Y014050G85X039551Y014050
X031049Y035450G85X031051Y035450
X049149Y037800G85X049151Y037800
M30
