G04 Layer: TopSilkscreenLayer*
G04 EasyEDA v6.5.51, 2025-11-08 23:49:31*
G04 24b077a0fc1f4b80a491af6b48e99bdb,10*
G04 Gerber Generator version 0.2*
G04 Scale: 100 percent, Rotated: No, Reflected: No *
G04 Dimensions in inches *
G04 leading zeros omitted , absolute positions ,3 integer and 6 decimal *
%FSLAX36Y36*%
%MOIN*%

%ADD10C,0.0060*%
%ADD11C,0.0050*%
%ADD12C,0.0059*%
%ADD13C,0.0100*%
%ADD14C,0.0032*%
%ADD15C,0.0184*%
%ADD16C,0.0060*%
%ADD17C,0.0039*%
%ADD18C,0.0047*%
%ADD19C,0.0157*%
%ADD20C,0.0079*%
%ADD21C,0.0118*%

%LPD*%
D10*
X5044775Y1445700D02*
G01*
X5040675Y1443600D01*
X5036575Y1439499D01*
X5034575Y1435500D01*
X5034575Y1427300D01*
X5036575Y1423200D01*
X5040675Y1419099D01*
X5044775Y1416999D01*
X5050974Y1415000D01*
X5061175Y1415000D01*
X5067275Y1416999D01*
X5071374Y1419099D01*
X5075474Y1423200D01*
X5077475Y1427300D01*
X5077475Y1435500D01*
X5075474Y1439499D01*
X5071374Y1443600D01*
X5067275Y1445700D01*
X5061175Y1445700D01*
X5061175Y1435500D02*
G01*
X5061175Y1445700D01*
X5034575Y1459200D02*
G01*
X5077475Y1459200D01*
X5034575Y1459200D02*
G01*
X5077475Y1487800D01*
X5034575Y1487800D02*
G01*
X5077475Y1487800D01*
X5034575Y1501300D02*
G01*
X5077475Y1501300D01*
X5034575Y1501300D02*
G01*
X5034575Y1515599D01*
X5036575Y1521799D01*
X5040675Y1525900D01*
X5044775Y1527899D01*
X5050974Y1530000D01*
X5061175Y1530000D01*
X5067275Y1527899D01*
X5071374Y1525900D01*
X5075474Y1521799D01*
X5077475Y1515599D01*
X5077475Y1501300D01*
X4590699Y2355200D02*
G01*
X4588599Y2359299D01*
X4584499Y2363400D01*
X4580500Y2365399D01*
X4572299Y2365399D01*
X4568199Y2363400D01*
X4564099Y2359299D01*
X4561999Y2355200D01*
X4560000Y2349000D01*
X4560000Y2338800D01*
X4561999Y2332700D01*
X4564099Y2328600D01*
X4568199Y2324499D01*
X4572299Y2322500D01*
X4580500Y2322500D01*
X4584499Y2324499D01*
X4588599Y2328600D01*
X4590699Y2332700D01*
X4590699Y2338800D01*
X4580500Y2338800D02*
G01*
X4590699Y2338800D01*
X4560000Y2245399D02*
G01*
X4560000Y2202500D01*
X4560000Y2245399D02*
G01*
X4574300Y2245399D01*
X4580500Y2243400D01*
X4584499Y2239299D01*
X4586599Y2235200D01*
X4588599Y2229000D01*
X4588599Y2218800D01*
X4586599Y2212700D01*
X4584499Y2208600D01*
X4580500Y2204499D01*
X4574300Y2202500D01*
X4560000Y2202500D01*
X4588599Y2149299D02*
G01*
X4584499Y2153400D01*
X4578400Y2155399D01*
X4570200Y2155399D01*
X4564099Y2153400D01*
X4560000Y2149299D01*
X4560000Y2145200D01*
X4561999Y2141100D01*
X4564099Y2139000D01*
X4568199Y2136999D01*
X4580500Y2132899D01*
X4584499Y2130900D01*
X4586599Y2128800D01*
X4588599Y2124699D01*
X4588599Y2118600D01*
X4584499Y2114499D01*
X4578400Y2112500D01*
X4570200Y2112500D01*
X4564099Y2114499D01*
X4560000Y2118600D01*
D11*
X2555900Y3156799D02*
G01*
X2553599Y3159099D01*
X2550200Y3160200D01*
X2545699Y3160200D01*
X2542299Y3159099D01*
X2540000Y3156799D01*
X2540000Y3154499D01*
X2541099Y3152300D01*
X2542299Y3151100D01*
X2544499Y3150000D01*
X2551400Y3147700D01*
X2553599Y3146599D01*
X2554799Y3145500D01*
X2555900Y3143200D01*
X2555900Y3139800D01*
X2553599Y3137500D01*
X2550200Y3136399D01*
X2545699Y3136399D01*
X2542299Y3137500D01*
X2540000Y3139800D01*
X2563400Y3152300D02*
G01*
X2568000Y3136399D01*
X2572500Y3152300D02*
G01*
X2568000Y3136399D01*
X2572500Y3152300D02*
G01*
X2576999Y3136399D01*
X2581599Y3152300D02*
G01*
X2576999Y3136399D01*
X2602700Y3152300D02*
G01*
X2602700Y3136399D01*
X2602700Y3148899D02*
G01*
X2600500Y3151100D01*
X2598199Y3152300D01*
X2594799Y3152300D01*
X2592500Y3151100D01*
X2590200Y3148899D01*
X2589099Y3145500D01*
X2589099Y3143200D01*
X2590200Y3139800D01*
X2592500Y3137500D01*
X2594799Y3136399D01*
X2598199Y3136399D01*
X2600500Y3137500D01*
X2602700Y3139800D01*
X2610200Y3152300D02*
G01*
X2610200Y3136399D01*
X2610200Y3145500D02*
G01*
X2611400Y3148899D01*
X2613599Y3151100D01*
X2615900Y3152300D01*
X2619300Y3152300D01*
X2632500Y3152300D02*
G01*
X2630200Y3151100D01*
X2628000Y3148899D01*
X2626800Y3145500D01*
X2626800Y3143200D01*
X2628000Y3139800D01*
X2630200Y3137500D01*
X2632500Y3136399D01*
X2635900Y3136399D01*
X2638199Y3137500D01*
X2640500Y3139800D01*
X2641599Y3143200D01*
X2641599Y3145500D01*
X2640500Y3148899D01*
X2638199Y3151100D01*
X2635900Y3152300D01*
X2632500Y3152300D01*
X2654799Y3152300D02*
G01*
X2652500Y3151100D01*
X2650200Y3148899D01*
X2649099Y3145500D01*
X2649099Y3143200D01*
X2650200Y3139800D01*
X2652500Y3137500D01*
X2654799Y3136399D01*
X2658199Y3136399D01*
X2660500Y3137500D01*
X2662700Y3139800D01*
X2663900Y3143200D01*
X2663900Y3145500D01*
X2662700Y3148899D01*
X2660500Y3151100D01*
X2658199Y3152300D01*
X2654799Y3152300D01*
X2671400Y3152300D02*
G01*
X2671400Y3128400D01*
X2671400Y3148899D02*
G01*
X2673599Y3151100D01*
X2675900Y3152300D01*
X2679300Y3152300D01*
X2681599Y3151100D01*
X2683900Y3148899D01*
X2685000Y3145500D01*
X2685000Y3143200D01*
X2683900Y3139800D01*
X2681599Y3137500D01*
X2679300Y3136399D01*
X2675900Y3136399D01*
X2673599Y3137500D01*
X2671400Y3139800D01*
X2710000Y3160200D02*
G01*
X2710000Y3136399D01*
X2725900Y3160200D02*
G01*
X2725900Y3136399D01*
X2710000Y3148899D02*
G01*
X2725900Y3148899D01*
X2746999Y3152300D02*
G01*
X2746999Y3136399D01*
X2746999Y3148899D02*
G01*
X2744799Y3151100D01*
X2742500Y3152300D01*
X2739099Y3152300D01*
X2736800Y3151100D01*
X2734499Y3148899D01*
X2733400Y3145500D01*
X2733400Y3143200D01*
X2734499Y3139800D01*
X2736800Y3137500D01*
X2739099Y3136399D01*
X2742500Y3136399D01*
X2744799Y3137500D01*
X2746999Y3139800D01*
X2754499Y3152300D02*
G01*
X2754499Y3136399D01*
X2754499Y3147700D02*
G01*
X2758000Y3151100D01*
X2760200Y3152300D01*
X2763599Y3152300D01*
X2765900Y3151100D01*
X2766999Y3147700D01*
X2766999Y3136399D01*
X2788199Y3160200D02*
G01*
X2788199Y3136399D01*
X2788199Y3148899D02*
G01*
X2785900Y3151100D01*
X2783599Y3152300D01*
X2780200Y3152300D01*
X2778000Y3151100D01*
X2775699Y3148899D01*
X2774499Y3145500D01*
X2774499Y3143200D01*
X2775699Y3139800D01*
X2778000Y3137500D01*
X2780200Y3136399D01*
X2783599Y3136399D01*
X2785900Y3137500D01*
X2788199Y3139800D01*
X2795699Y3152300D02*
G01*
X2795699Y3136399D01*
X2795699Y3145500D02*
G01*
X2796800Y3148899D01*
X2799099Y3151100D01*
X2801400Y3152300D01*
X2804799Y3152300D01*
X2825900Y3152300D02*
G01*
X2825900Y3136399D01*
X2825900Y3148899D02*
G01*
X2823599Y3151100D01*
X2821400Y3152300D01*
X2818000Y3152300D01*
X2815699Y3151100D01*
X2813400Y3148899D01*
X2812299Y3145500D01*
X2812299Y3143200D01*
X2813400Y3139800D01*
X2815699Y3137500D01*
X2818000Y3136399D01*
X2821400Y3136399D01*
X2823599Y3137500D01*
X2825900Y3139800D01*
X2833400Y3160200D02*
G01*
X2833400Y3136399D01*
X2843199Y3140900D02*
G01*
X2841999Y3139800D01*
X2840900Y3140900D01*
X2841999Y3141999D01*
X2843199Y3140900D01*
X2843199Y3138600D01*
X2840900Y3136399D01*
X2868199Y3160200D02*
G01*
X2868199Y3136399D01*
X2868199Y3160200D02*
G01*
X2883000Y3160200D01*
X2868199Y3148899D02*
G01*
X2877299Y3148899D01*
X2868199Y3136399D02*
G01*
X2883000Y3136399D01*
X2890500Y3160200D02*
G01*
X2890500Y3136399D01*
X2890500Y3160200D02*
G01*
X2905200Y3160200D01*
X2890500Y3148899D02*
G01*
X2899499Y3148899D01*
X2890500Y3136399D02*
G01*
X2905200Y3136399D01*
X2125000Y3160200D02*
G01*
X2125000Y3136399D01*
X2125000Y3160200D02*
G01*
X2133000Y3160200D01*
X2136400Y3159099D01*
X2138599Y3156799D01*
X2139799Y3154499D01*
X2140900Y3151100D01*
X2140900Y3145500D01*
X2139799Y3141999D01*
X2138599Y3139800D01*
X2136400Y3137500D01*
X2133000Y3136399D01*
X2125000Y3136399D01*
X2148400Y3145500D02*
G01*
X2161999Y3145500D01*
X2161999Y3147700D01*
X2160900Y3150000D01*
X2159799Y3151100D01*
X2157500Y3152300D01*
X2154099Y3152300D01*
X2151800Y3151100D01*
X2149499Y3148899D01*
X2148400Y3145500D01*
X2148400Y3143200D01*
X2149499Y3139800D01*
X2151800Y3137500D01*
X2154099Y3136399D01*
X2157500Y3136399D01*
X2159799Y3137500D01*
X2161999Y3139800D01*
X2169499Y3152300D02*
G01*
X2169499Y3136399D01*
X2169499Y3145500D02*
G01*
X2170699Y3148899D01*
X2173000Y3151100D01*
X2175200Y3152300D01*
X2178599Y3152300D01*
X2186099Y3145500D02*
G01*
X2199799Y3145500D01*
X2199799Y3147700D01*
X2198599Y3150000D01*
X2197500Y3151100D01*
X2195200Y3152300D01*
X2191800Y3152300D01*
X2189499Y3151100D01*
X2187299Y3148899D01*
X2186099Y3145500D01*
X2186099Y3143200D01*
X2187299Y3139800D01*
X2189499Y3137500D01*
X2191800Y3136399D01*
X2195200Y3136399D01*
X2197500Y3137500D01*
X2199799Y3139800D01*
X2207299Y3160200D02*
G01*
X2207299Y3136399D01*
X2218599Y3152300D02*
G01*
X2207299Y3140900D01*
X2211800Y3145500D02*
G01*
X2219799Y3136399D01*
X2260699Y3156799D02*
G01*
X2258400Y3159099D01*
X2255000Y3160200D01*
X2250500Y3160200D01*
X2246999Y3159099D01*
X2244799Y3156799D01*
X2244799Y3154499D01*
X2245900Y3152300D01*
X2246999Y3151100D01*
X2249300Y3150000D01*
X2256099Y3147700D01*
X2258400Y3146599D01*
X2259499Y3145500D01*
X2260699Y3143200D01*
X2260699Y3139800D01*
X2258400Y3137500D01*
X2255000Y3136399D01*
X2250500Y3136399D01*
X2246999Y3137500D01*
X2244799Y3139800D01*
X2271599Y3160200D02*
G01*
X2271599Y3140900D01*
X2272700Y3137500D01*
X2275000Y3136399D01*
X2277299Y3136399D01*
X2268199Y3152300D02*
G01*
X2276099Y3152300D01*
X2290500Y3152300D02*
G01*
X2288199Y3151100D01*
X2285900Y3148899D01*
X2284799Y3145500D01*
X2284799Y3143200D01*
X2285900Y3139800D01*
X2288199Y3137500D01*
X2290500Y3136399D01*
X2293900Y3136399D01*
X2296099Y3137500D01*
X2298400Y3139800D01*
X2299499Y3143200D01*
X2299499Y3145500D01*
X2298400Y3148899D01*
X2296099Y3151100D01*
X2293900Y3152300D01*
X2290500Y3152300D01*
X2320699Y3160200D02*
G01*
X2320699Y3136399D01*
X2320699Y3148899D02*
G01*
X2318400Y3151100D01*
X2316099Y3152300D01*
X2312700Y3152300D01*
X2310500Y3151100D01*
X2308199Y3148899D01*
X2306999Y3145500D01*
X2306999Y3143200D01*
X2308199Y3139800D01*
X2310500Y3137500D01*
X2312700Y3136399D01*
X2316099Y3136399D01*
X2318400Y3137500D01*
X2320699Y3139800D01*
X2341800Y3160200D02*
G01*
X2341800Y3136399D01*
X2341800Y3148899D02*
G01*
X2339499Y3151100D01*
X2337299Y3152300D01*
X2333900Y3152300D01*
X2331599Y3151100D01*
X2329300Y3148899D01*
X2328199Y3145500D01*
X2328199Y3143200D01*
X2329300Y3139800D01*
X2331599Y3137500D01*
X2333900Y3136399D01*
X2337299Y3136399D01*
X2339499Y3137500D01*
X2341800Y3139800D01*
X2363000Y3152300D02*
G01*
X2363000Y3136399D01*
X2363000Y3148899D02*
G01*
X2360699Y3151100D01*
X2358400Y3152300D01*
X2355000Y3152300D01*
X2352700Y3151100D01*
X2350500Y3148899D01*
X2349300Y3145500D01*
X2349300Y3143200D01*
X2350500Y3139800D01*
X2352700Y3137500D01*
X2355000Y3136399D01*
X2358400Y3136399D01*
X2360699Y3137500D01*
X2363000Y3139800D01*
X2370500Y3152300D02*
G01*
X2370500Y3136399D01*
X2370500Y3145500D02*
G01*
X2371599Y3148899D01*
X2373900Y3151100D01*
X2376099Y3152300D01*
X2379499Y3152300D01*
X2400699Y3160200D02*
G01*
X2400699Y3136399D01*
X2400699Y3148899D02*
G01*
X2398400Y3151100D01*
X2396099Y3152300D01*
X2392700Y3152300D01*
X2390500Y3151100D01*
X2388199Y3148899D01*
X2386999Y3145500D01*
X2386999Y3143200D01*
X2388199Y3139800D01*
X2390500Y3137500D01*
X2392700Y3136399D01*
X2396099Y3136399D01*
X2398400Y3137500D01*
X2400699Y3139800D01*
X2410500Y3140900D02*
G01*
X2409300Y3139800D01*
X2408199Y3140900D01*
X2409300Y3141999D01*
X2410500Y3140900D01*
X2410500Y3138600D01*
X2408199Y3136399D01*
X2435500Y3160200D02*
G01*
X2435500Y3136399D01*
X2435500Y3160200D02*
G01*
X2450200Y3160200D01*
X2435500Y3148899D02*
G01*
X2444499Y3148899D01*
X2435500Y3136399D02*
G01*
X2450200Y3136399D01*
X2457700Y3160200D02*
G01*
X2457700Y3136399D01*
X2457700Y3160200D02*
G01*
X2472500Y3160200D01*
X2457700Y3148899D02*
G01*
X2466800Y3148899D01*
X2457700Y3136399D02*
G01*
X2472500Y3136399D01*
X2167948Y3245500D02*
G01*
X2167948Y3197700D01*
X2167948Y3245500D02*
G01*
X2197448Y3245500D01*
X2167948Y3222700D02*
G01*
X2186148Y3222700D01*
X2167948Y3197700D02*
G01*
X2197448Y3197700D01*
X2246549Y3234099D02*
G01*
X2244349Y3238600D01*
X2239749Y3243200D01*
X2235249Y3245500D01*
X2226148Y3245500D01*
X2221549Y3243200D01*
X2217048Y3238600D01*
X2214749Y3234099D01*
X2212448Y3227300D01*
X2212448Y3215900D01*
X2214749Y3209099D01*
X2217048Y3204499D01*
X2221549Y3200000D01*
X2226148Y3197700D01*
X2235249Y3197700D01*
X2239749Y3200000D01*
X2244349Y3204499D01*
X2246549Y3209099D01*
X2261549Y3245500D02*
G01*
X2261549Y3197700D01*
X2261549Y3245500D02*
G01*
X2291148Y3245500D01*
X2261549Y3222700D02*
G01*
X2279749Y3222700D01*
X2261549Y3197700D02*
G01*
X2291148Y3197700D01*
X2375249Y3234099D02*
G01*
X2372948Y3238600D01*
X2368449Y3243200D01*
X2363849Y3245500D01*
X2354749Y3245500D01*
X2350249Y3243200D01*
X2345649Y3238600D01*
X2343449Y3234099D01*
X2341148Y3227300D01*
X2341148Y3215900D01*
X2343449Y3209099D01*
X2345649Y3204499D01*
X2350249Y3200000D01*
X2354749Y3197700D01*
X2363849Y3197700D01*
X2368449Y3200000D01*
X2372948Y3204499D01*
X2375249Y3209099D01*
X2417448Y3229499D02*
G01*
X2417448Y3197700D01*
X2417448Y3222700D02*
G01*
X2412948Y3227300D01*
X2408449Y3229499D01*
X2401549Y3229499D01*
X2397048Y3227300D01*
X2392448Y3222700D01*
X2390249Y3215900D01*
X2390249Y3211399D01*
X2392448Y3204499D01*
X2397048Y3200000D01*
X2401549Y3197700D01*
X2408449Y3197700D01*
X2412948Y3200000D01*
X2417448Y3204499D01*
X2432448Y3229499D02*
G01*
X2432448Y3181799D01*
X2432448Y3222700D02*
G01*
X2437048Y3227300D01*
X2441549Y3229499D01*
X2448449Y3229499D01*
X2452948Y3227300D01*
X2457448Y3222700D01*
X2459749Y3215900D01*
X2459749Y3211399D01*
X2457448Y3204499D01*
X2452948Y3200000D01*
X2448449Y3197700D01*
X2441549Y3197700D01*
X2437048Y3200000D01*
X2432448Y3204499D01*
X2499749Y3222700D02*
G01*
X2497448Y3227300D01*
X2490649Y3229499D01*
X2483849Y3229499D01*
X2477048Y3227300D01*
X2474749Y3222700D01*
X2477048Y3218200D01*
X2481549Y3215900D01*
X2492948Y3213600D01*
X2497448Y3211399D01*
X2499749Y3206799D01*
X2499749Y3204499D01*
X2497448Y3200000D01*
X2490649Y3197700D01*
X2483849Y3197700D01*
X2477048Y3200000D01*
X2474749Y3204499D01*
X2521549Y3245500D02*
G01*
X2521549Y3206799D01*
X2523849Y3200000D01*
X2528449Y3197700D01*
X2532948Y3197700D01*
X2514749Y3229499D02*
G01*
X2530649Y3229499D01*
X2559349Y3229499D02*
G01*
X2554749Y3227300D01*
X2550249Y3222700D01*
X2547948Y3215900D01*
X2547948Y3211399D01*
X2550249Y3204499D01*
X2554749Y3200000D01*
X2559349Y3197700D01*
X2566148Y3197700D01*
X2570649Y3200000D01*
X2575249Y3204499D01*
X2577448Y3211399D01*
X2577448Y3215900D01*
X2575249Y3222700D01*
X2570649Y3227300D01*
X2566148Y3229499D01*
X2559349Y3229499D01*
X2592448Y3229499D02*
G01*
X2592448Y3197700D01*
X2592448Y3220500D02*
G01*
X2599349Y3227300D01*
X2603849Y3229499D01*
X2610649Y3229499D01*
X2615249Y3227300D01*
X2617448Y3220500D01*
X2617448Y3197700D01*
X2632448Y3215900D02*
G01*
X2659749Y3215900D01*
X2659749Y3220500D01*
X2657448Y3225000D01*
X2655249Y3227300D01*
X2650649Y3229499D01*
X2643849Y3229499D01*
X2639349Y3227300D01*
X2634749Y3222700D01*
X2632448Y3215900D01*
X2632448Y3211399D01*
X2634749Y3204499D01*
X2639349Y3200000D01*
X2643849Y3197700D01*
X2650649Y3197700D01*
X2655249Y3200000D01*
X2659749Y3204499D01*
X2712048Y3234099D02*
G01*
X2712048Y3236399D01*
X2714349Y3240900D01*
X2716549Y3243200D01*
X2721148Y3245500D01*
X2730249Y3245500D01*
X2734749Y3243200D01*
X2737048Y3240900D01*
X2739349Y3236399D01*
X2739349Y3231799D01*
X2737048Y3227300D01*
X2732448Y3220500D01*
X2709749Y3197700D01*
X2741549Y3197700D01*
X2770249Y3245500D02*
G01*
X2763449Y3243200D01*
X2758849Y3236399D01*
X2756549Y3225000D01*
X2756549Y3218200D01*
X2758849Y3206799D01*
X2763449Y3200000D01*
X2770249Y3197700D01*
X2774749Y3197700D01*
X2781549Y3200000D01*
X2786148Y3206799D01*
X2788449Y3218200D01*
X2788449Y3225000D01*
X2786148Y3236399D01*
X2781549Y3243200D01*
X2774749Y3245500D01*
X2770249Y3245500D01*
X2805649Y3234099D02*
G01*
X2805649Y3236399D01*
X2807948Y3240900D01*
X2810249Y3243200D01*
X2814749Y3245500D01*
X2823849Y3245500D01*
X2828449Y3243200D01*
X2830649Y3240900D01*
X2832948Y3236399D01*
X2832948Y3231799D01*
X2830649Y3227300D01*
X2826148Y3220500D01*
X2803449Y3197700D01*
X2835249Y3197700D01*
X2877448Y3238600D02*
G01*
X2875249Y3243200D01*
X2868449Y3245500D01*
X2863849Y3245500D01*
X2857048Y3243200D01*
X2852448Y3236399D01*
X2850249Y3225000D01*
X2850249Y3213600D01*
X2852448Y3204499D01*
X2857048Y3200000D01*
X2863849Y3197700D01*
X2866148Y3197700D01*
X2872948Y3200000D01*
X2877448Y3204499D01*
X2879749Y3211399D01*
X2879749Y3213600D01*
X2877448Y3220500D01*
X2872948Y3225000D01*
X2866148Y3227300D01*
X2863849Y3227300D01*
X2857048Y3225000D01*
X2852448Y3220500D01*
X2850249Y3213600D01*
X2018199Y3330500D02*
G01*
X2000000Y3282700D01*
X2018199Y3330500D02*
G01*
X2036400Y3282700D01*
X2006800Y3298600D02*
G01*
X2029499Y3298600D01*
X2051400Y3314499D02*
G01*
X2051400Y3282700D01*
X2051400Y3305500D02*
G01*
X2058199Y3312300D01*
X2062700Y3314499D01*
X2069499Y3314499D01*
X2074099Y3312300D01*
X2076400Y3305500D01*
X2076400Y3282700D01*
X2118599Y3314499D02*
G01*
X2118599Y3282700D01*
X2118599Y3307700D02*
G01*
X2114099Y3312300D01*
X2109499Y3314499D01*
X2102700Y3314499D01*
X2098199Y3312300D01*
X2093599Y3307700D01*
X2091400Y3300900D01*
X2091400Y3296399D01*
X2093599Y3289499D01*
X2098199Y3285000D01*
X2102700Y3282700D01*
X2109499Y3282700D01*
X2114099Y3285000D01*
X2118599Y3289499D01*
X2133599Y3330500D02*
G01*
X2133599Y3282700D01*
X2160000Y3314499D02*
G01*
X2155500Y3312300D01*
X2150900Y3307700D01*
X2148599Y3300900D01*
X2148599Y3296399D01*
X2150900Y3289499D01*
X2155500Y3285000D01*
X2160000Y3282700D01*
X2166800Y3282700D01*
X2171400Y3285000D01*
X2175900Y3289499D01*
X2178199Y3296399D01*
X2178199Y3300900D01*
X2175900Y3307700D01*
X2171400Y3312300D01*
X2166800Y3314499D01*
X2160000Y3314499D01*
X2220500Y3314499D02*
G01*
X2220500Y3278200D01*
X2218199Y3271399D01*
X2215900Y3269099D01*
X2211400Y3266799D01*
X2204499Y3266799D01*
X2200000Y3269099D01*
X2220500Y3307700D02*
G01*
X2215900Y3312300D01*
X2211400Y3314499D01*
X2204499Y3314499D01*
X2200000Y3312300D01*
X2195500Y3307700D01*
X2193199Y3300900D01*
X2193199Y3296399D01*
X2195500Y3289499D01*
X2200000Y3285000D01*
X2204499Y3282700D01*
X2211400Y3282700D01*
X2215900Y3285000D01*
X2220500Y3289499D01*
X2270500Y3330500D02*
G01*
X2270500Y3282700D01*
X2270500Y3330500D02*
G01*
X2290900Y3330500D01*
X2297700Y3328200D01*
X2300000Y3325900D01*
X2302299Y3321399D01*
X2302299Y3314499D01*
X2300000Y3310000D01*
X2297700Y3307700D01*
X2290900Y3305500D01*
X2270500Y3305500D01*
X2317299Y3330500D02*
G01*
X2317299Y3282700D01*
X2367299Y3330500D02*
G01*
X2367299Y3282700D01*
X2367299Y3330500D02*
G01*
X2385500Y3282700D01*
X2403599Y3330500D02*
G01*
X2385500Y3282700D01*
X2403599Y3330500D02*
G01*
X2403599Y3282700D01*
X2430000Y3314499D02*
G01*
X2425500Y3312300D01*
X2420900Y3307700D01*
X2418599Y3300900D01*
X2418599Y3296399D01*
X2420900Y3289499D01*
X2425500Y3285000D01*
X2430000Y3282700D01*
X2436800Y3282700D01*
X2441400Y3285000D01*
X2445900Y3289499D01*
X2448199Y3296399D01*
X2448199Y3300900D01*
X2445900Y3307700D01*
X2441400Y3312300D01*
X2436800Y3314499D01*
X2430000Y3314499D01*
X2470000Y3330500D02*
G01*
X2470000Y3291799D01*
X2472299Y3285000D01*
X2476800Y3282700D01*
X2481400Y3282700D01*
X2463199Y3314499D02*
G01*
X2479099Y3314499D01*
X2507700Y3314499D02*
G01*
X2503199Y3312300D01*
X2498599Y3307700D01*
X2496400Y3300900D01*
X2496400Y3296399D01*
X2498599Y3289499D01*
X2503199Y3285000D01*
X2507700Y3282700D01*
X2514499Y3282700D01*
X2519099Y3285000D01*
X2523599Y3289499D01*
X2525900Y3296399D01*
X2525900Y3300900D01*
X2523599Y3307700D01*
X2519099Y3312300D01*
X2514499Y3314499D01*
X2507700Y3314499D01*
X2540900Y3314499D02*
G01*
X2540900Y3282700D01*
X2540900Y3300900D02*
G01*
X2543199Y3307700D01*
X2547700Y3312300D01*
X2552299Y3314499D01*
X2559099Y3314499D01*
X2643199Y3319099D02*
G01*
X2640900Y3323600D01*
X2636400Y3328200D01*
X2631800Y3330500D01*
X2622700Y3330500D01*
X2618199Y3328200D01*
X2613599Y3323600D01*
X2611400Y3319099D01*
X2609099Y3312300D01*
X2609099Y3300900D01*
X2611400Y3294099D01*
X2613599Y3289499D01*
X2618199Y3285000D01*
X2622700Y3282700D01*
X2631800Y3282700D01*
X2636400Y3285000D01*
X2640900Y3289499D01*
X2643199Y3294099D01*
X2669499Y3314499D02*
G01*
X2665000Y3312300D01*
X2660500Y3307700D01*
X2658199Y3300900D01*
X2658199Y3296399D01*
X2660500Y3289499D01*
X2665000Y3285000D01*
X2669499Y3282700D01*
X2676400Y3282700D01*
X2680900Y3285000D01*
X2685500Y3289499D01*
X2687700Y3296399D01*
X2687700Y3300900D01*
X2685500Y3307700D01*
X2680900Y3312300D01*
X2676400Y3314499D01*
X2669499Y3314499D01*
X2702700Y3314499D02*
G01*
X2702700Y3282700D01*
X2702700Y3305500D02*
G01*
X2709499Y3312300D01*
X2714099Y3314499D01*
X2720900Y3314499D01*
X2725500Y3312300D01*
X2727700Y3305500D01*
X2727700Y3282700D01*
X2749499Y3330500D02*
G01*
X2749499Y3291799D01*
X2751800Y3285000D01*
X2756400Y3282700D01*
X2760900Y3282700D01*
X2742700Y3314499D02*
G01*
X2758599Y3314499D01*
X2775900Y3314499D02*
G01*
X2775900Y3282700D01*
X2775900Y3300900D02*
G01*
X2778199Y3307700D01*
X2782700Y3312300D01*
X2787299Y3314499D01*
X2794099Y3314499D01*
X2820500Y3314499D02*
G01*
X2815900Y3312300D01*
X2811400Y3307700D01*
X2809099Y3300900D01*
X2809099Y3296399D01*
X2811400Y3289499D01*
X2815900Y3285000D01*
X2820500Y3282700D01*
X2827299Y3282700D01*
X2831800Y3285000D01*
X2836400Y3289499D01*
X2838599Y3296399D01*
X2838599Y3300900D01*
X2836400Y3307700D01*
X2831800Y3312300D01*
X2827299Y3314499D01*
X2820500Y3314499D01*
X2853599Y3330500D02*
G01*
X2853599Y3282700D01*
X2868599Y3330500D02*
G01*
X2868599Y3282700D01*
X2883599Y3300900D02*
G01*
X2910900Y3300900D01*
X2910900Y3305500D01*
X2908599Y3310000D01*
X2906400Y3312300D01*
X2901800Y3314499D01*
X2895000Y3314499D01*
X2890500Y3312300D01*
X2885900Y3307700D01*
X2883599Y3300900D01*
X2883599Y3296399D01*
X2885900Y3289499D01*
X2890500Y3285000D01*
X2895000Y3282700D01*
X2901800Y3282700D01*
X2906400Y3285000D01*
X2910900Y3289499D01*
X2925900Y3314499D02*
G01*
X2925900Y3282700D01*
X2925900Y3300900D02*
G01*
X2928199Y3307700D01*
X2932700Y3312300D01*
X2937299Y3314499D01*
X2944099Y3314499D01*
X2994099Y3314499D02*
G01*
X3007700Y3282700D01*
X3021400Y3314499D02*
G01*
X3007700Y3282700D01*
X3036400Y3321399D02*
G01*
X3040900Y3323600D01*
X3047700Y3330500D01*
X3047700Y3282700D01*
D10*
X4755000Y3020200D02*
G01*
X4755000Y2996399D01*
X4755000Y3020200D02*
G01*
X4769799Y3020200D01*
X4755000Y3008899D02*
G01*
X4764099Y3008899D01*
X4797700Y3024800D02*
G01*
X4777299Y2988400D01*
X4805200Y3020200D02*
G01*
X4814300Y2996399D01*
X4823400Y3020200D02*
G01*
X4814300Y2996399D01*
X4830900Y3020200D02*
G01*
X4830900Y2996399D01*
X4838400Y3020200D02*
G01*
X4838400Y2996399D01*
X4838400Y3020200D02*
G01*
X4854300Y2996399D01*
X4854300Y3020200D02*
G01*
X4854300Y2996399D01*
D12*
X4759121Y3016576D02*
G01*
X4756575Y3016576D01*
X4756575Y3014031D01*
X4759121Y3014031D01*
X4759121Y3016576D01*
D10*
X2705000Y2240200D02*
G01*
X2714099Y2216399D01*
X2723199Y2240200D02*
G01*
X2714099Y2216399D01*
X2730699Y2240200D02*
G01*
X2730699Y2216399D01*
X2730699Y2240200D02*
G01*
X2745500Y2240200D01*
X2730699Y2228899D02*
G01*
X2739799Y2228899D01*
X2753000Y2240200D02*
G01*
X2753000Y2216399D01*
X2753000Y2240200D02*
G01*
X2763199Y2240200D01*
X2766599Y2239099D01*
X2767700Y2238000D01*
X2768900Y2235700D01*
X2768900Y2233400D01*
X2767700Y2231100D01*
X2766599Y2230000D01*
X2763199Y2228899D01*
X2753000Y2228899D02*
G01*
X2763199Y2228899D01*
X2766599Y2227700D01*
X2767700Y2226599D01*
X2768900Y2224299D01*
X2768900Y2220900D01*
X2767700Y2218600D01*
X2766599Y2217500D01*
X2763199Y2216399D01*
X2753000Y2216399D01*
X2776400Y2235700D02*
G01*
X2778599Y2236799D01*
X2781999Y2240200D01*
X2781999Y2216399D01*
D12*
X2604121Y2301576D02*
G01*
X2601575Y2301576D01*
X2601575Y2299031D01*
X2604121Y2299031D01*
X2604121Y2301576D01*
D10*
X4325000Y3710200D02*
G01*
X4334099Y3686399D01*
X4343199Y3710200D02*
G01*
X4334099Y3686399D01*
X4350699Y3710200D02*
G01*
X4350699Y3686399D01*
X4350699Y3710200D02*
G01*
X4365500Y3710200D01*
X4350699Y3698899D02*
G01*
X4359799Y3698899D01*
X4373000Y3710200D02*
G01*
X4373000Y3686399D01*
X4373000Y3710200D02*
G01*
X4383199Y3710200D01*
X4386599Y3709099D01*
X4387700Y3708000D01*
X4388900Y3705700D01*
X4388900Y3703400D01*
X4387700Y3701100D01*
X4386599Y3700000D01*
X4383199Y3698899D01*
X4373000Y3698899D02*
G01*
X4383199Y3698899D01*
X4386599Y3697700D01*
X4387700Y3696599D01*
X4388900Y3694299D01*
X4388900Y3690900D01*
X4387700Y3688600D01*
X4386599Y3687500D01*
X4383199Y3686399D01*
X4373000Y3686399D01*
X4397500Y3704499D02*
G01*
X4397500Y3705700D01*
X4398599Y3708000D01*
X4399799Y3709099D01*
X4401999Y3710200D01*
X4406599Y3710200D01*
X4408900Y3709099D01*
X4410000Y3708000D01*
X4411099Y3705700D01*
X4411099Y3703400D01*
X4410000Y3701100D01*
X4407700Y3697700D01*
X4396400Y3686399D01*
X4412299Y3686399D01*
D12*
X4269121Y3701576D02*
G01*
X4266575Y3701576D01*
X4266575Y3699031D01*
X4269121Y3699031D01*
X4269121Y3701576D01*
D10*
X4500000Y2620200D02*
G01*
X4500000Y2596399D01*
X4500000Y2620200D02*
G01*
X4514799Y2620200D01*
X4500000Y2608899D02*
G01*
X4509099Y2608899D01*
X4500000Y2596399D02*
G01*
X4514799Y2596399D01*
X4522299Y2620200D02*
G01*
X4522299Y2596399D01*
X4522299Y2620200D02*
G01*
X4538199Y2596399D01*
X4538199Y2620200D02*
G01*
X4538199Y2596399D01*
X4562700Y2614499D02*
G01*
X4561599Y2616799D01*
X4559300Y2619099D01*
X4556999Y2620200D01*
X4552500Y2620200D01*
X4550200Y2619099D01*
X4548000Y2616799D01*
X4546800Y2614499D01*
X4545699Y2611100D01*
X4545699Y2605500D01*
X4546800Y2601999D01*
X4548000Y2599800D01*
X4550200Y2597500D01*
X4552500Y2596399D01*
X4556999Y2596399D01*
X4559300Y2597500D01*
X4561599Y2599800D01*
X4562700Y2601999D01*
X4576999Y2620200D02*
G01*
X4574799Y2619099D01*
X4572500Y2616799D01*
X4571400Y2614499D01*
X4570200Y2611100D01*
X4570200Y2605500D01*
X4571400Y2601999D01*
X4572500Y2599800D01*
X4574799Y2597500D01*
X4576999Y2596399D01*
X4581599Y2596399D01*
X4583900Y2597500D01*
X4586099Y2599800D01*
X4587299Y2601999D01*
X4588400Y2605500D01*
X4588400Y2611100D01*
X4587299Y2614499D01*
X4586099Y2616799D01*
X4583900Y2619099D01*
X4581599Y2620200D01*
X4576999Y2620200D01*
X4595900Y2620200D02*
G01*
X4595900Y2603200D01*
X4596999Y2599800D01*
X4599300Y2597500D01*
X4602700Y2596399D01*
X4605000Y2596399D01*
X4608400Y2597500D01*
X4610699Y2599800D01*
X4611800Y2603200D01*
X4611800Y2620200D01*
X4627299Y2620200D02*
G01*
X4627299Y2596399D01*
X4619300Y2620200D02*
G01*
X4635200Y2620200D01*
X4651800Y2620200D02*
G01*
X4642700Y2596399D01*
X4651800Y2620200D02*
G01*
X4660900Y2596399D01*
X4646099Y2604299D02*
G01*
X4657500Y2604299D01*
D12*
X4534121Y2741576D02*
G01*
X4531575Y2741576D01*
X4531575Y2739031D01*
X4534121Y2739031D01*
X4534121Y2741576D01*
D10*
X4890000Y2965200D02*
G01*
X4890000Y2941399D01*
X4890000Y2965200D02*
G01*
X4904799Y2965200D01*
X4890000Y2953899D02*
G01*
X4899099Y2953899D01*
X4890000Y2941399D02*
G01*
X4904799Y2941399D01*
X4912299Y2965200D02*
G01*
X4912299Y2941399D01*
X4912299Y2965200D02*
G01*
X4928199Y2941399D01*
X4928199Y2965200D02*
G01*
X4928199Y2941399D01*
X4952700Y2959499D02*
G01*
X4951599Y2961799D01*
X4949300Y2964099D01*
X4946999Y2965200D01*
X4942500Y2965200D01*
X4940200Y2964099D01*
X4938000Y2961799D01*
X4936800Y2959499D01*
X4935699Y2956100D01*
X4935699Y2950500D01*
X4936800Y2946999D01*
X4938000Y2944800D01*
X4940200Y2942500D01*
X4942500Y2941399D01*
X4946999Y2941399D01*
X4949300Y2942500D01*
X4951599Y2944800D01*
X4952700Y2946999D01*
X4966999Y2965200D02*
G01*
X4964799Y2964099D01*
X4962500Y2961799D01*
X4961400Y2959499D01*
X4960200Y2956100D01*
X4960200Y2950500D01*
X4961400Y2946999D01*
X4962500Y2944800D01*
X4964799Y2942500D01*
X4966999Y2941399D01*
X4971599Y2941399D01*
X4973900Y2942500D01*
X4976099Y2944800D01*
X4977299Y2946999D01*
X4978400Y2950500D01*
X4978400Y2956100D01*
X4977299Y2959499D01*
X4976099Y2961799D01*
X4973900Y2964099D01*
X4971599Y2965200D01*
X4966999Y2965200D01*
X4985900Y2965200D02*
G01*
X4985900Y2948200D01*
X4986999Y2944800D01*
X4989300Y2942500D01*
X4992700Y2941399D01*
X4995000Y2941399D01*
X4998400Y2942500D01*
X5000699Y2944800D01*
X5001800Y2948200D01*
X5001800Y2965200D01*
X5017299Y2965200D02*
G01*
X5017299Y2941399D01*
X5009300Y2965200D02*
G01*
X5025200Y2965200D01*
X5032700Y2965200D02*
G01*
X5032700Y2941399D01*
X5032700Y2965200D02*
G01*
X5043000Y2965200D01*
X5046400Y2964099D01*
X5047500Y2963000D01*
X5048599Y2960700D01*
X5048599Y2958400D01*
X5047500Y2956100D01*
X5046400Y2955000D01*
X5043000Y2953899D01*
X5032700Y2953899D02*
G01*
X5043000Y2953899D01*
X5046400Y2952700D01*
X5047500Y2951599D01*
X5048599Y2949299D01*
X5048599Y2945900D01*
X5047500Y2943600D01*
X5046400Y2942500D01*
X5043000Y2941399D01*
X5032700Y2941399D01*
D12*
X4919121Y2951576D02*
G01*
X4916575Y2951576D01*
X4916575Y2949031D01*
X4919121Y2949031D01*
X4919121Y2951576D01*
D10*
X3881999Y1964499D02*
G01*
X3880900Y1966799D01*
X3878599Y1969099D01*
X3876400Y1970199D01*
X3871800Y1970199D01*
X3869499Y1969099D01*
X3867299Y1966799D01*
X3866099Y1964499D01*
X3865000Y1961100D01*
X3865000Y1955500D01*
X3866099Y1951999D01*
X3867299Y1949800D01*
X3869499Y1947500D01*
X3871800Y1946399D01*
X3876400Y1946399D01*
X3878599Y1947500D01*
X3880900Y1949800D01*
X3881999Y1951999D01*
X3881999Y1955500D01*
X3876400Y1955500D02*
G01*
X3881999Y1955500D01*
X3889499Y1970199D02*
G01*
X3889499Y1946399D01*
X3889499Y1970199D02*
G01*
X3905500Y1946399D01*
X3905500Y1970199D02*
G01*
X3905500Y1946399D01*
X3913000Y1970199D02*
G01*
X3913000Y1946399D01*
X3913000Y1970199D02*
G01*
X3920900Y1970199D01*
X3924300Y1969099D01*
X3926599Y1966799D01*
X3927700Y1964499D01*
X3928900Y1961100D01*
X3928900Y1955500D01*
X3927700Y1951999D01*
X3926599Y1949800D01*
X3924300Y1947500D01*
X3920900Y1946399D01*
X3913000Y1946399D01*
X3936400Y1965700D02*
G01*
X3938599Y1966799D01*
X3941999Y1970199D01*
X3941999Y1946399D01*
D12*
X3779121Y1981576D02*
G01*
X3776575Y1981576D01*
X3776575Y1979031D01*
X3779121Y1979031D01*
X3779121Y1981576D01*
D10*
X2326999Y2904499D02*
G01*
X2325900Y2906799D01*
X2323599Y2909099D01*
X2321400Y2910200D01*
X2316800Y2910200D01*
X2314499Y2909099D01*
X2312299Y2906799D01*
X2311099Y2904499D01*
X2310000Y2901100D01*
X2310000Y2895500D01*
X2311099Y2891999D01*
X2312299Y2889800D01*
X2314499Y2887500D01*
X2316800Y2886399D01*
X2321400Y2886399D01*
X2323599Y2887500D01*
X2325900Y2889800D01*
X2326999Y2891999D01*
X2326999Y2895500D01*
X2321400Y2895500D02*
G01*
X2326999Y2895500D01*
X2334499Y2910200D02*
G01*
X2334499Y2886399D01*
X2334499Y2910200D02*
G01*
X2350500Y2886399D01*
X2350500Y2910200D02*
G01*
X2350500Y2886399D01*
X2358000Y2910200D02*
G01*
X2358000Y2886399D01*
X2358000Y2910200D02*
G01*
X2365900Y2910200D01*
X2369300Y2909099D01*
X2371599Y2906799D01*
X2372700Y2904499D01*
X2373900Y2901100D01*
X2373900Y2895500D01*
X2372700Y2891999D01*
X2371599Y2889800D01*
X2369300Y2887500D01*
X2365900Y2886399D01*
X2358000Y2886399D01*
X2382500Y2904499D02*
G01*
X2382500Y2905700D01*
X2383599Y2908000D01*
X2384799Y2909099D01*
X2386999Y2910200D01*
X2391599Y2910200D01*
X2393900Y2909099D01*
X2395000Y2908000D01*
X2396099Y2905700D01*
X2396099Y2903400D01*
X2395000Y2901100D01*
X2392700Y2897700D01*
X2381400Y2886399D01*
X2397299Y2886399D01*
D12*
X2224121Y2921576D02*
G01*
X2221575Y2921576D01*
X2221575Y2919031D01*
X2224121Y2919031D01*
X2224121Y2921576D01*
D10*
X3876999Y3739499D02*
G01*
X3875900Y3741799D01*
X3873599Y3744099D01*
X3871400Y3745200D01*
X3866800Y3745200D01*
X3864499Y3744099D01*
X3862299Y3741799D01*
X3861099Y3739499D01*
X3860000Y3736100D01*
X3860000Y3730500D01*
X3861099Y3726999D01*
X3862299Y3724800D01*
X3864499Y3722500D01*
X3866800Y3721399D01*
X3871400Y3721399D01*
X3873599Y3722500D01*
X3875900Y3724800D01*
X3876999Y3726999D01*
X3876999Y3730500D01*
X3871400Y3730500D02*
G01*
X3876999Y3730500D01*
X3884499Y3745200D02*
G01*
X3884499Y3721399D01*
X3884499Y3745200D02*
G01*
X3900500Y3721399D01*
X3900500Y3745200D02*
G01*
X3900500Y3721399D01*
X3908000Y3745200D02*
G01*
X3908000Y3721399D01*
X3908000Y3745200D02*
G01*
X3915900Y3745200D01*
X3919300Y3744099D01*
X3921599Y3741799D01*
X3922700Y3739499D01*
X3923900Y3736100D01*
X3923900Y3730500D01*
X3922700Y3726999D01*
X3921599Y3724800D01*
X3919300Y3722500D01*
X3915900Y3721399D01*
X3908000Y3721399D01*
X3933599Y3745200D02*
G01*
X3946099Y3745200D01*
X3939300Y3736100D01*
X3942700Y3736100D01*
X3945000Y3735000D01*
X3946099Y3733899D01*
X3947299Y3730500D01*
X3947299Y3728200D01*
X3946099Y3724800D01*
X3943900Y3722500D01*
X3940500Y3721399D01*
X3936999Y3721399D01*
X3933599Y3722500D01*
X3932500Y3723600D01*
X3931400Y3725900D01*
D12*
X3749121Y3746576D02*
G01*
X3746575Y3746576D01*
X3746575Y3744031D01*
X3749121Y3744031D01*
X3749121Y3746576D01*
D10*
X3755900Y2746799D02*
G01*
X3753599Y2749099D01*
X3750200Y2750200D01*
X3745699Y2750200D01*
X3742299Y2749099D01*
X3740000Y2746799D01*
X3740000Y2744499D01*
X3741099Y2742300D01*
X3742299Y2741100D01*
X3744499Y2740000D01*
X3751400Y2737700D01*
X3753599Y2736599D01*
X3754799Y2735500D01*
X3755900Y2733200D01*
X3755900Y2729800D01*
X3753599Y2727500D01*
X3750200Y2726399D01*
X3745699Y2726399D01*
X3742299Y2727500D01*
X3740000Y2729800D01*
X3763400Y2750200D02*
G01*
X3763400Y2733200D01*
X3764499Y2729800D01*
X3766800Y2727500D01*
X3770200Y2726399D01*
X3772500Y2726399D01*
X3775900Y2727500D01*
X3778199Y2729800D01*
X3779300Y2733200D01*
X3779300Y2750200D01*
X3786800Y2750200D02*
G01*
X3786800Y2726399D01*
X3786800Y2750200D02*
G01*
X3795900Y2726399D01*
X3805000Y2750200D02*
G01*
X3795900Y2726399D01*
X3805000Y2750200D02*
G01*
X3805000Y2726399D01*
X3819300Y2750200D02*
G01*
X3816999Y2749099D01*
X3814799Y2746799D01*
X3813599Y2744499D01*
X3812500Y2741100D01*
X3812500Y2735500D01*
X3813599Y2731999D01*
X3814799Y2729800D01*
X3816999Y2727500D01*
X3819300Y2726399D01*
X3823900Y2726399D01*
X3826099Y2727500D01*
X3828400Y2729800D01*
X3829499Y2731999D01*
X3830699Y2735500D01*
X3830699Y2741100D01*
X3829499Y2744499D01*
X3828400Y2746799D01*
X3826099Y2749099D01*
X3823900Y2750200D01*
X3819300Y2750200D01*
X3838199Y2750200D02*
G01*
X3838199Y2733200D01*
X3839300Y2729800D01*
X3841599Y2727500D01*
X3845000Y2726399D01*
X3847299Y2726399D01*
X3850699Y2727500D01*
X3853000Y2729800D01*
X3854099Y2733200D01*
X3854099Y2750200D01*
X3869499Y2750200D02*
G01*
X3869499Y2726399D01*
X3861599Y2750200D02*
G01*
X3877500Y2750200D01*
D12*
X3649121Y2706576D02*
G01*
X3646575Y2706576D01*
X3646575Y2704031D01*
X3649121Y2704031D01*
X3649121Y2706576D01*
D10*
X3970000Y2320200D02*
G01*
X3970000Y2296399D01*
X3970000Y2320200D02*
G01*
X3980200Y2320200D01*
X3983599Y2319099D01*
X3984799Y2318000D01*
X3985900Y2315700D01*
X3985900Y2312300D01*
X3984799Y2310000D01*
X3983599Y2308899D01*
X3980200Y2307700D01*
X3970000Y2307700D01*
X3993400Y2320200D02*
G01*
X3999099Y2296399D01*
X4004799Y2320200D02*
G01*
X3999099Y2296399D01*
X4004799Y2320200D02*
G01*
X4010500Y2296399D01*
X4016099Y2320200D02*
G01*
X4010500Y2296399D01*
X4023599Y2320200D02*
G01*
X4023599Y2296399D01*
X4023599Y2320200D02*
G01*
X4032700Y2296399D01*
X4041800Y2320200D02*
G01*
X4032700Y2296399D01*
X4041800Y2320200D02*
G01*
X4041800Y2296399D01*
X4056099Y2320200D02*
G01*
X4053900Y2319099D01*
X4051599Y2316799D01*
X4050500Y2314499D01*
X4049300Y2311100D01*
X4049300Y2305500D01*
X4050500Y2301999D01*
X4051599Y2299800D01*
X4053900Y2297500D01*
X4056099Y2296399D01*
X4060699Y2296399D01*
X4063000Y2297500D01*
X4065200Y2299800D01*
X4066400Y2301999D01*
X4067500Y2305500D01*
X4067500Y2311100D01*
X4066400Y2314499D01*
X4065200Y2316799D01*
X4063000Y2319099D01*
X4060699Y2320200D01*
X4056099Y2320200D01*
X4075000Y2320200D02*
G01*
X4075000Y2303200D01*
X4076099Y2299800D01*
X4078400Y2297500D01*
X4081800Y2296399D01*
X4084099Y2296399D01*
X4087500Y2297500D01*
X4089799Y2299800D01*
X4090900Y2303200D01*
X4090900Y2320200D01*
X4106400Y2320200D02*
G01*
X4106400Y2296399D01*
X4098400Y2320200D02*
G01*
X4114300Y2320200D01*
D12*
X3979121Y2436576D02*
G01*
X3976575Y2436576D01*
X3976575Y2434031D01*
X3979121Y2434031D01*
X3979121Y2436576D01*
D10*
X2710200Y2136799D02*
G01*
X2710200Y2116399D01*
X2700000Y2126599D02*
G01*
X2720500Y2126599D01*
X2728000Y2135700D02*
G01*
X2730200Y2136799D01*
X2733599Y2140200D01*
X2733599Y2116399D01*
X2742299Y2134499D02*
G01*
X2742299Y2135700D01*
X2743400Y2138000D01*
X2744499Y2139099D01*
X2746800Y2140200D01*
X2751400Y2140200D01*
X2753599Y2139099D01*
X2754799Y2138000D01*
X2755900Y2135700D01*
X2755900Y2133400D01*
X2754799Y2131100D01*
X2752500Y2127700D01*
X2741099Y2116399D01*
X2756999Y2116399D01*
X2764499Y2140200D02*
G01*
X2773599Y2116399D01*
X2782700Y2140200D02*
G01*
X2773599Y2116399D01*
X2790200Y2140200D02*
G01*
X2790200Y2116399D01*
X2790200Y2140200D02*
G01*
X2800500Y2140200D01*
X2803900Y2139099D01*
X2805000Y2138000D01*
X2806099Y2135700D01*
X2806099Y2133400D01*
X2805000Y2131100D01*
X2803900Y2130000D01*
X2800500Y2128899D01*
X2790200Y2128899D01*
X2798199Y2128899D02*
G01*
X2806099Y2116399D01*
X2813599Y2140200D02*
G01*
X2813599Y2116399D01*
X2813599Y2140200D02*
G01*
X2828400Y2140200D01*
X2813599Y2128899D02*
G01*
X2822700Y2128899D01*
X2813599Y2116399D02*
G01*
X2828400Y2116399D01*
X2853000Y2134499D02*
G01*
X2851800Y2136799D01*
X2849499Y2139099D01*
X2847299Y2140200D01*
X2842700Y2140200D01*
X2840500Y2139099D01*
X2838199Y2136799D01*
X2836999Y2134499D01*
X2835900Y2131100D01*
X2835900Y2125500D01*
X2836999Y2121999D01*
X2838199Y2119800D01*
X2840500Y2117500D01*
X2842700Y2116399D01*
X2847299Y2116399D01*
X2849499Y2117500D01*
X2851800Y2119800D01*
X2853000Y2121999D01*
X2853000Y2125500D01*
X2847299Y2125500D02*
G01*
X2853000Y2125500D01*
D12*
X2599121Y2201576D02*
G01*
X2596575Y2201576D01*
X2596575Y2199031D01*
X2599121Y2199031D01*
X2599121Y2201576D01*
D10*
X3500000Y2066599D02*
G01*
X3520500Y2066599D01*
X3528000Y2075700D02*
G01*
X3530200Y2076799D01*
X3533599Y2080199D01*
X3533599Y2056399D01*
X3542299Y2074499D02*
G01*
X3542299Y2075700D01*
X3543400Y2078000D01*
X3544499Y2079099D01*
X3546800Y2080199D01*
X3551400Y2080199D01*
X3553599Y2079099D01*
X3554799Y2078000D01*
X3555900Y2075700D01*
X3555900Y2073400D01*
X3554799Y2071100D01*
X3552500Y2067699D01*
X3541099Y2056399D01*
X3556999Y2056399D01*
X3564499Y2080199D02*
G01*
X3573599Y2056399D01*
X3582700Y2080199D02*
G01*
X3573599Y2056399D01*
X3590200Y2080199D02*
G01*
X3590200Y2056399D01*
X3590200Y2080199D02*
G01*
X3600500Y2080199D01*
X3603900Y2079099D01*
X3605000Y2078000D01*
X3606099Y2075700D01*
X3606099Y2073400D01*
X3605000Y2071100D01*
X3603900Y2070000D01*
X3600500Y2068899D01*
X3590200Y2068899D01*
X3598199Y2068899D02*
G01*
X3606099Y2056399D01*
X3613599Y2080199D02*
G01*
X3613599Y2056399D01*
X3613599Y2080199D02*
G01*
X3628400Y2080199D01*
X3613599Y2068899D02*
G01*
X3622700Y2068899D01*
X3613599Y2056399D02*
G01*
X3628400Y2056399D01*
X3653000Y2074499D02*
G01*
X3651800Y2076799D01*
X3649499Y2079099D01*
X3647299Y2080199D01*
X3642700Y2080199D01*
X3640500Y2079099D01*
X3638199Y2076799D01*
X3636999Y2074499D01*
X3635900Y2071100D01*
X3635900Y2065500D01*
X3636999Y2061999D01*
X3638199Y2059800D01*
X3640500Y2057500D01*
X3642700Y2056399D01*
X3647299Y2056399D01*
X3649499Y2057500D01*
X3651800Y2059800D01*
X3653000Y2061999D01*
X3653000Y2065500D01*
X3647299Y2065500D02*
G01*
X3653000Y2065500D01*
D12*
X3404121Y2141576D02*
G01*
X3401575Y2141576D01*
X3401575Y2139031D01*
X3404121Y2139031D01*
X3404121Y2141576D01*
D10*
X4920000Y1845199D02*
G01*
X4929099Y1821399D01*
X4938199Y1845199D02*
G01*
X4929099Y1821399D01*
X4962700Y1839499D02*
G01*
X4961599Y1841799D01*
X4959300Y1844099D01*
X4956999Y1845199D01*
X4952500Y1845199D01*
X4950200Y1844099D01*
X4948000Y1841799D01*
X4946800Y1839499D01*
X4945699Y1836100D01*
X4945699Y1830500D01*
X4946800Y1826999D01*
X4948000Y1824800D01*
X4950200Y1822500D01*
X4952500Y1821399D01*
X4956999Y1821399D01*
X4959300Y1822500D01*
X4961599Y1824800D01*
X4962700Y1826999D01*
X4987299Y1839499D02*
G01*
X4986099Y1841799D01*
X4983900Y1844099D01*
X4981599Y1845199D01*
X4976999Y1845199D01*
X4974799Y1844099D01*
X4972500Y1841799D01*
X4971400Y1839499D01*
X4970200Y1836100D01*
X4970200Y1830500D01*
X4971400Y1826999D01*
X4972500Y1824800D01*
X4974799Y1822500D01*
X4976999Y1821399D01*
X4981599Y1821399D01*
X4983900Y1822500D01*
X4986099Y1824800D01*
X4987299Y1826999D01*
D12*
X4824121Y1906576D02*
G01*
X4821575Y1906576D01*
X4821575Y1904031D01*
X4824121Y1904031D01*
X4824121Y1906576D01*
D10*
X3020000Y2185200D02*
G01*
X3020000Y2161399D01*
X3020000Y2185200D02*
G01*
X3030200Y2185200D01*
X3033599Y2184099D01*
X3034799Y2183000D01*
X3035900Y2180700D01*
X3035900Y2177300D01*
X3034799Y2175000D01*
X3033599Y2173899D01*
X3030200Y2172700D01*
X3020000Y2172700D01*
X3043400Y2185200D02*
G01*
X3043400Y2161399D01*
X3057700Y2185200D02*
G01*
X3055500Y2184099D01*
X3053199Y2181799D01*
X3051999Y2179499D01*
X3050900Y2176100D01*
X3050900Y2170500D01*
X3051999Y2166999D01*
X3053199Y2164800D01*
X3055500Y2162500D01*
X3057700Y2161399D01*
X3062299Y2161399D01*
X3064499Y2162500D01*
X3066800Y2164800D01*
X3068000Y2166999D01*
X3069099Y2170500D01*
X3069099Y2176100D01*
X3068000Y2179499D01*
X3066800Y2181799D01*
X3064499Y2184099D01*
X3062299Y2185200D01*
X3057700Y2185200D01*
X3076599Y2185200D02*
G01*
X3076599Y2168200D01*
X3077700Y2164800D01*
X3080000Y2162500D01*
X3083400Y2161399D01*
X3085699Y2161399D01*
X3089099Y2162500D01*
X3091400Y2164800D01*
X3092500Y2168200D01*
X3092500Y2185200D01*
X3108000Y2185200D02*
G01*
X3108000Y2161399D01*
X3100000Y2185200D02*
G01*
X3115900Y2185200D01*
D12*
X3109121Y2241576D02*
G01*
X3106575Y2241576D01*
X3106575Y2239031D01*
X3109121Y2239031D01*
X3109121Y2241576D01*
D10*
X2580000Y2890200D02*
G01*
X2589099Y2866399D01*
X2598199Y2890200D02*
G01*
X2589099Y2866399D01*
X2605699Y2890200D02*
G01*
X2605699Y2866399D01*
X2605699Y2890200D02*
G01*
X2620500Y2890200D01*
X2605699Y2878899D02*
G01*
X2614799Y2878899D01*
X2605699Y2866399D02*
G01*
X2620500Y2866399D01*
X2628000Y2890200D02*
G01*
X2628000Y2866399D01*
X2628000Y2890200D02*
G01*
X2638199Y2890200D01*
X2641599Y2889099D01*
X2642700Y2888000D01*
X2643900Y2885700D01*
X2643900Y2883400D01*
X2642700Y2881100D01*
X2641599Y2880000D01*
X2638199Y2878899D01*
X2628000Y2878899D01*
X2635900Y2878899D02*
G01*
X2643900Y2866399D01*
X2651400Y2890200D02*
G01*
X2651400Y2866399D01*
X2651400Y2890200D02*
G01*
X2661599Y2890200D01*
X2665000Y2889099D01*
X2666099Y2888000D01*
X2667299Y2885700D01*
X2667299Y2883400D01*
X2666099Y2881100D01*
X2665000Y2880000D01*
X2661599Y2878899D01*
X2651400Y2878899D01*
X2659300Y2878899D02*
G01*
X2667299Y2866399D01*
X2681599Y2890200D02*
G01*
X2679300Y2889099D01*
X2676999Y2886799D01*
X2675900Y2884499D01*
X2674799Y2881100D01*
X2674799Y2875500D01*
X2675900Y2871999D01*
X2676999Y2869800D01*
X2679300Y2867500D01*
X2681599Y2866399D01*
X2686099Y2866399D01*
X2688400Y2867500D01*
X2690699Y2869800D01*
X2691800Y2871999D01*
X2693000Y2875500D01*
X2693000Y2881100D01*
X2691800Y2884499D01*
X2690699Y2886799D01*
X2688400Y2889099D01*
X2686099Y2890200D01*
X2681599Y2890200D01*
X2700500Y2890200D02*
G01*
X2700500Y2866399D01*
X2700500Y2890200D02*
G01*
X2710699Y2890200D01*
X2714099Y2889099D01*
X2715200Y2888000D01*
X2716400Y2885700D01*
X2716400Y2883400D01*
X2715200Y2881100D01*
X2714099Y2880000D01*
X2710699Y2878899D01*
X2700500Y2878899D01*
X2708400Y2878899D02*
G01*
X2716400Y2866399D01*
D12*
X2594121Y2891576D02*
G01*
X2591575Y2891576D01*
X2591575Y2889031D01*
X2594121Y2889031D01*
X2594121Y2891576D01*
D10*
X4155000Y2285399D02*
G01*
X4155000Y2242500D01*
X4155000Y2285399D02*
G01*
X4173400Y2285399D01*
X4179499Y2283400D01*
X4181599Y2281300D01*
X4183599Y2277199D01*
X4183599Y2273099D01*
X4181599Y2269000D01*
X4179499Y2266999D01*
X4173400Y2265000D01*
X4155000Y2265000D01*
X4169300Y2265000D02*
G01*
X4183599Y2242500D01*
X4227799Y2275200D02*
G01*
X4225799Y2279299D01*
X4221700Y2283400D01*
X4217600Y2285399D01*
X4209399Y2285399D01*
X4205299Y2283400D01*
X4201199Y2279299D01*
X4199200Y2275200D01*
X4197100Y2269000D01*
X4197100Y2258800D01*
X4199200Y2252700D01*
X4201199Y2248600D01*
X4205299Y2244499D01*
X4209399Y2242500D01*
X4217600Y2242500D01*
X4221700Y2244499D01*
X4225799Y2248600D01*
X4227799Y2252700D01*
X4227799Y2258800D01*
X4217600Y2258800D02*
G01*
X4227799Y2258800D01*
X4257700Y2285399D02*
G01*
X4241300Y2242500D01*
X4257700Y2285399D02*
G01*
X4273999Y2242500D01*
X4247500Y2256799D02*
G01*
X4267900Y2256799D01*
X4301899Y2285399D02*
G01*
X4301899Y2242500D01*
X4287500Y2285399D02*
G01*
X4316199Y2285399D01*
X4329700Y2285399D02*
G01*
X4329700Y2242500D01*
X4329700Y2285399D02*
G01*
X4356300Y2285399D01*
X4329700Y2265000D02*
G01*
X4346000Y2265000D01*
X4329700Y2242500D02*
G01*
X4356300Y2242500D01*
X3825000Y2385200D02*
G01*
X3825000Y2368200D01*
X3826099Y2364800D01*
X3828400Y2362500D01*
X3831800Y2361399D01*
X3834099Y2361399D01*
X3837500Y2362500D01*
X3839799Y2364800D01*
X3840900Y2368200D01*
X3840900Y2385200D01*
X3859799Y2385200D02*
G01*
X3848400Y2369299D01*
X3865500Y2369299D01*
X3859799Y2385200D02*
G01*
X3859799Y2361399D01*
X3528999Y1671399D02*
G01*
X3528999Y1640700D01*
X3531000Y1634600D01*
X3535100Y1630500D01*
X3541300Y1628499D01*
X3545399Y1628499D01*
X3551499Y1630500D01*
X3555600Y1634600D01*
X3557600Y1640700D01*
X3557600Y1671399D01*
X3595699Y1671399D02*
G01*
X3575200Y1671399D01*
X3573199Y1653000D01*
X3575200Y1655000D01*
X3581400Y1657100D01*
X3587500Y1657100D01*
X3593599Y1655000D01*
X3597700Y1650999D01*
X3599799Y1644800D01*
X3599799Y1640700D01*
X3597700Y1634600D01*
X3593599Y1630500D01*
X3587500Y1628499D01*
X3581400Y1628499D01*
X3575200Y1630500D01*
X3573199Y1632500D01*
X3571099Y1636599D01*
X2710200Y1701799D02*
G01*
X2710200Y1681399D01*
X2700000Y1691599D02*
G01*
X2720500Y1691599D01*
X2728000Y1700700D02*
G01*
X2730200Y1701799D01*
X2733599Y1705199D01*
X2733599Y1681399D01*
X2742299Y1699499D02*
G01*
X2742299Y1700700D01*
X2743400Y1703000D01*
X2744499Y1704099D01*
X2746800Y1705199D01*
X2751400Y1705199D01*
X2753599Y1704099D01*
X2754799Y1703000D01*
X2755900Y1700700D01*
X2755900Y1698400D01*
X2754799Y1696100D01*
X2752500Y1692699D01*
X2741099Y1681399D01*
X2756999Y1681399D01*
X2764499Y1705199D02*
G01*
X2764499Y1681399D01*
X2764499Y1705199D02*
G01*
X2774799Y1705199D01*
X2778199Y1704099D01*
X2779300Y1703000D01*
X2780500Y1700700D01*
X2780500Y1698400D01*
X2779300Y1696100D01*
X2778199Y1695000D01*
X2774799Y1693899D01*
X2764499Y1693899D01*
X2772500Y1693899D02*
G01*
X2780500Y1681399D01*
X2788000Y1690500D02*
G01*
X2801599Y1690500D01*
X2801599Y1692699D01*
X2800500Y1695000D01*
X2799300Y1696100D01*
X2796999Y1697300D01*
X2793599Y1697300D01*
X2791400Y1696100D01*
X2789099Y1693899D01*
X2788000Y1690500D01*
X2788000Y1688200D01*
X2789099Y1684800D01*
X2791400Y1682500D01*
X2793599Y1681399D01*
X2796999Y1681399D01*
X2799300Y1682500D01*
X2801599Y1684800D01*
X2822700Y1697300D02*
G01*
X2822700Y1679099D01*
X2821599Y1675700D01*
X2820500Y1674499D01*
X2818199Y1673400D01*
X2814799Y1673400D01*
X2812500Y1674499D01*
X2822700Y1693899D02*
G01*
X2820500Y1696100D01*
X2818199Y1697300D01*
X2814799Y1697300D01*
X2812500Y1696100D01*
X2810200Y1693899D01*
X2809099Y1690500D01*
X2809099Y1688200D01*
X2810200Y1684800D01*
X2812500Y1682500D01*
X2814799Y1681399D01*
X2818199Y1681399D01*
X2820500Y1682500D01*
X2822700Y1684800D01*
X3275000Y1681599D02*
G01*
X3295500Y1681599D01*
X3303000Y1690700D02*
G01*
X3305200Y1691799D01*
X3308599Y1695199D01*
X3308599Y1671399D01*
X3317299Y1689499D02*
G01*
X3317299Y1690700D01*
X3318400Y1693000D01*
X3319499Y1694099D01*
X3321800Y1695199D01*
X3326400Y1695199D01*
X3328599Y1694099D01*
X3329799Y1693000D01*
X3330900Y1690700D01*
X3330900Y1688400D01*
X3329799Y1686100D01*
X3327500Y1682699D01*
X3316099Y1671399D01*
X3331999Y1671399D01*
X3339499Y1695199D02*
G01*
X3339499Y1671399D01*
X3339499Y1695199D02*
G01*
X3349799Y1695199D01*
X3353199Y1694099D01*
X3354300Y1693000D01*
X3355500Y1690700D01*
X3355500Y1688400D01*
X3354300Y1686100D01*
X3353199Y1685000D01*
X3349799Y1683899D01*
X3339499Y1683899D01*
X3347500Y1683899D02*
G01*
X3355500Y1671399D01*
X3363000Y1680500D02*
G01*
X3376599Y1680500D01*
X3376599Y1682699D01*
X3375500Y1685000D01*
X3374300Y1686100D01*
X3371999Y1687300D01*
X3368599Y1687300D01*
X3366400Y1686100D01*
X3364099Y1683899D01*
X3363000Y1680500D01*
X3363000Y1678200D01*
X3364099Y1674800D01*
X3366400Y1672500D01*
X3368599Y1671399D01*
X3371999Y1671399D01*
X3374300Y1672500D01*
X3376599Y1674800D01*
X3397700Y1687300D02*
G01*
X3397700Y1669099D01*
X3396599Y1665700D01*
X3395500Y1664499D01*
X3393199Y1663400D01*
X3389799Y1663400D01*
X3387500Y1664499D01*
X3397700Y1683899D02*
G01*
X3395500Y1686100D01*
X3393199Y1687300D01*
X3389799Y1687300D01*
X3387500Y1686100D01*
X3385200Y1683899D01*
X3384099Y1680500D01*
X3384099Y1678200D01*
X3385200Y1674800D01*
X3387500Y1672500D01*
X3389799Y1671399D01*
X3393199Y1671399D01*
X3395500Y1672500D01*
X3397700Y1674800D01*
X4075000Y2600200D02*
G01*
X4075000Y2576399D01*
X4075000Y2600200D02*
G01*
X4085200Y2600200D01*
X4088599Y2599099D01*
X4089799Y2598000D01*
X4090900Y2595700D01*
X4090900Y2593400D01*
X4089799Y2591100D01*
X4088599Y2590000D01*
X4085200Y2588899D01*
X4075000Y2588899D01*
X4083000Y2588899D02*
G01*
X4090900Y2576399D01*
X4098400Y2600200D02*
G01*
X4098400Y2576399D01*
X4098400Y2600200D02*
G01*
X4108599Y2600200D01*
X4111999Y2599099D01*
X4113199Y2598000D01*
X4114300Y2595700D01*
X4114300Y2592300D01*
X4113199Y2590000D01*
X4111999Y2588899D01*
X4108599Y2587700D01*
X4098400Y2587700D01*
X4121800Y2600200D02*
G01*
X4121800Y2583200D01*
X4123000Y2579800D01*
X4125200Y2577500D01*
X4128599Y2576399D01*
X4130900Y2576399D01*
X4134300Y2577500D01*
X4136599Y2579800D01*
X4137700Y2583200D01*
X4137700Y2600200D01*
X4145200Y2600200D02*
G01*
X4145200Y2576399D01*
X4145200Y2576399D02*
G01*
X4158900Y2576399D01*
X4166400Y2600200D02*
G01*
X4166400Y2576399D01*
X4166400Y2576399D02*
G01*
X4180000Y2576399D01*
X3855600Y3126399D02*
G01*
X3857500Y3127300D01*
X3859300Y3129099D01*
X3860200Y3130900D01*
X3860200Y3134499D01*
X3859300Y3136399D01*
X3857500Y3138200D01*
X3855600Y3139099D01*
X3852899Y3140000D01*
X3848400Y3140000D01*
X3845600Y3139099D01*
X3843800Y3138200D01*
X3841999Y3136399D01*
X3841099Y3134499D01*
X3841099Y3130900D01*
X3841999Y3129099D01*
X3843800Y3127300D01*
X3845600Y3126399D01*
X3855600Y3119499D02*
G01*
X3856499Y3119499D01*
X3858400Y3118499D01*
X3859300Y3117600D01*
X3860200Y3115799D01*
X3860200Y3112199D01*
X3859300Y3110399D01*
X3858400Y3109499D01*
X3856499Y3108499D01*
X3854700Y3108499D01*
X3852899Y3109499D01*
X3850200Y3111300D01*
X3841099Y3120399D01*
X3841099Y3107600D01*
X3855600Y3100700D02*
G01*
X3856499Y3100700D01*
X3858400Y3099800D01*
X3859300Y3098899D01*
X3860200Y3097100D01*
X3860200Y3093499D01*
X3859300Y3091599D01*
X3858400Y3090700D01*
X3856499Y3089800D01*
X3854700Y3089800D01*
X3852899Y3090700D01*
X3850200Y3092500D01*
X3841099Y3101599D01*
X3841099Y3088899D01*
X4138599Y3705599D02*
G01*
X4137700Y3707500D01*
X4135900Y3709299D01*
X4134099Y3710200D01*
X4130500Y3710200D01*
X4128599Y3709299D01*
X4126800Y3707500D01*
X4125900Y3705599D01*
X4125000Y3702899D01*
X4125000Y3698400D01*
X4125900Y3695599D01*
X4126800Y3693800D01*
X4128599Y3691999D01*
X4130500Y3691100D01*
X4134099Y3691100D01*
X4135900Y3691999D01*
X4137700Y3693800D01*
X4138599Y3695599D01*
X4145500Y3705599D02*
G01*
X4145500Y3706500D01*
X4146499Y3708400D01*
X4147399Y3709299D01*
X4149200Y3710200D01*
X4152799Y3710200D01*
X4154600Y3709299D01*
X4155500Y3708400D01*
X4156499Y3706500D01*
X4156499Y3704699D01*
X4155500Y3702899D01*
X4153699Y3700200D01*
X4144600Y3691100D01*
X4157399Y3691100D01*
X4165200Y3710200D02*
G01*
X4175200Y3710200D01*
X4169700Y3702899D01*
X4172500Y3702899D01*
X4174300Y3701999D01*
X4175200Y3701100D01*
X4176099Y3698400D01*
X4176099Y3696500D01*
X4175200Y3693800D01*
X4173400Y3691999D01*
X4170600Y3691100D01*
X4167899Y3691100D01*
X4165200Y3691999D01*
X4164300Y3692899D01*
X4163400Y3694699D01*
X3781999Y2849499D02*
G01*
X3780900Y2851799D01*
X3778599Y2854099D01*
X3776400Y2855200D01*
X3771800Y2855200D01*
X3769499Y2854099D01*
X3767299Y2851799D01*
X3766099Y2849499D01*
X3765000Y2846100D01*
X3765000Y2840500D01*
X3766099Y2836999D01*
X3767299Y2834800D01*
X3769499Y2832500D01*
X3771800Y2831399D01*
X3776400Y2831399D01*
X3778599Y2832500D01*
X3780900Y2834800D01*
X3781999Y2836999D01*
X3800900Y2855200D02*
G01*
X3789499Y2839299D01*
X3806599Y2839299D01*
X3800900Y2855200D02*
G01*
X3800900Y2831399D01*
X3515000Y2945200D02*
G01*
X3515000Y2921399D01*
X3515000Y2945200D02*
G01*
X3525200Y2945200D01*
X3528599Y2944099D01*
X3529799Y2943000D01*
X3530900Y2940700D01*
X3530900Y2938400D01*
X3529799Y2936100D01*
X3528599Y2935000D01*
X3525200Y2933899D01*
X3515000Y2933899D01*
X3523000Y2933899D02*
G01*
X3530900Y2921399D01*
X3538400Y2940700D02*
G01*
X3540699Y2941799D01*
X3544099Y2945200D01*
X3544099Y2921399D01*
X3565200Y2945200D02*
G01*
X3553900Y2945200D01*
X3552700Y2935000D01*
X3553900Y2936100D01*
X3557299Y2937300D01*
X3560699Y2937300D01*
X3564099Y2936100D01*
X3566400Y2933899D01*
X3567500Y2930500D01*
X3567500Y2928200D01*
X3566400Y2924800D01*
X3564099Y2922500D01*
X3560699Y2921399D01*
X3557299Y2921399D01*
X3553900Y2922500D01*
X3552700Y2923600D01*
X3551599Y2925900D01*
X4060200Y3165000D02*
G01*
X4036400Y3165000D01*
X4060200Y3165000D02*
G01*
X4060200Y3154800D01*
X4059099Y3151399D01*
X4058000Y3150200D01*
X4055699Y3149099D01*
X4053400Y3149099D01*
X4051099Y3150200D01*
X4050000Y3151399D01*
X4048900Y3154800D01*
X4048900Y3165000D01*
X4048900Y3156999D02*
G01*
X4036400Y3149099D01*
X4060200Y3133600D02*
G01*
X4036400Y3133600D01*
X4060200Y3141599D02*
G01*
X4060200Y3125700D01*
X4055699Y3118200D02*
G01*
X4056800Y3115900D01*
X4060200Y3112500D01*
X4036400Y3112500D01*
X2356999Y2319499D02*
G01*
X2355900Y2321799D01*
X2353599Y2324099D01*
X2351400Y2325200D01*
X2346800Y2325200D01*
X2344499Y2324099D01*
X2342299Y2321799D01*
X2341099Y2319499D01*
X2340000Y2316100D01*
X2340000Y2310500D01*
X2341099Y2306999D01*
X2342299Y2304800D01*
X2344499Y2302500D01*
X2346800Y2301399D01*
X2351400Y2301399D01*
X2353599Y2302500D01*
X2355900Y2304800D01*
X2356999Y2306999D01*
X2364499Y2320700D02*
G01*
X2366800Y2321799D01*
X2370200Y2325200D01*
X2370200Y2301399D01*
X2392500Y2317300D02*
G01*
X2391400Y2313899D01*
X2389099Y2311599D01*
X2385699Y2310500D01*
X2384499Y2310500D01*
X2381099Y2311599D01*
X2378900Y2313899D01*
X2377700Y2317300D01*
X2377700Y2318400D01*
X2378900Y2321799D01*
X2381099Y2324099D01*
X2384499Y2325200D01*
X2385699Y2325200D01*
X2389099Y2324099D01*
X2391400Y2321799D01*
X2392500Y2317300D01*
X2392500Y2311599D01*
X2391400Y2305900D01*
X2389099Y2302500D01*
X2385699Y2301399D01*
X2383400Y2301399D01*
X2380000Y2302500D01*
X2378900Y2304800D01*
X3021999Y2319499D02*
G01*
X3020900Y2321799D01*
X3018599Y2324099D01*
X3016400Y2325200D01*
X3011800Y2325200D01*
X3009499Y2324099D01*
X3007299Y2321799D01*
X3006099Y2319499D01*
X3005000Y2316100D01*
X3005000Y2310500D01*
X3006099Y2306999D01*
X3007299Y2304800D01*
X3009499Y2302500D01*
X3011800Y2301399D01*
X3016400Y2301399D01*
X3018599Y2302500D01*
X3020900Y2304800D01*
X3021999Y2306999D01*
X3030699Y2319499D02*
G01*
X3030699Y2320700D01*
X3031800Y2323000D01*
X3033000Y2324099D01*
X3035200Y2325200D01*
X3039799Y2325200D01*
X3041999Y2324099D01*
X3043199Y2323000D01*
X3044300Y2320700D01*
X3044300Y2318400D01*
X3043199Y2316100D01*
X3040900Y2312700D01*
X3029499Y2301399D01*
X3045500Y2301399D01*
X3059799Y2325200D02*
G01*
X3056400Y2324099D01*
X3054099Y2320700D01*
X3053000Y2315000D01*
X3053000Y2311599D01*
X3054099Y2305900D01*
X3056400Y2302500D01*
X3059799Y2301399D01*
X3061999Y2301399D01*
X3065500Y2302500D01*
X3067700Y2305900D01*
X3068900Y2311599D01*
X3068900Y2315000D01*
X3067700Y2320700D01*
X3065500Y2324099D01*
X3061999Y2325200D01*
X3059799Y2325200D01*
X3396999Y2319499D02*
G01*
X3395900Y2321799D01*
X3393599Y2324099D01*
X3391400Y2325200D01*
X3386800Y2325200D01*
X3384499Y2324099D01*
X3382299Y2321799D01*
X3381099Y2319499D01*
X3380000Y2316100D01*
X3380000Y2310500D01*
X3381099Y2306999D01*
X3382299Y2304800D01*
X3384499Y2302500D01*
X3386800Y2301399D01*
X3391400Y2301399D01*
X3393599Y2302500D01*
X3395900Y2304800D01*
X3396999Y2306999D01*
X3405699Y2319499D02*
G01*
X3405699Y2320700D01*
X3406800Y2323000D01*
X3408000Y2324099D01*
X3410200Y2325200D01*
X3414799Y2325200D01*
X3416999Y2324099D01*
X3418199Y2323000D01*
X3419300Y2320700D01*
X3419300Y2318400D01*
X3418199Y2316100D01*
X3415900Y2312700D01*
X3404499Y2301399D01*
X3420500Y2301399D01*
X3428000Y2320700D02*
G01*
X3430200Y2321799D01*
X3433599Y2325200D01*
X3433599Y2301399D01*
X2820000Y2860200D02*
G01*
X2829099Y2836399D01*
X2838199Y2860200D02*
G01*
X2829099Y2836399D01*
X2845699Y2860200D02*
G01*
X2845699Y2836399D01*
X2845699Y2860200D02*
G01*
X2855900Y2860200D01*
X2859300Y2859099D01*
X2860500Y2858000D01*
X2861599Y2855700D01*
X2861599Y2853400D01*
X2860500Y2851100D01*
X2859300Y2850000D01*
X2855900Y2848899D01*
X2845699Y2848899D01*
X2853599Y2848899D02*
G01*
X2861599Y2836399D01*
X2870200Y2854499D02*
G01*
X2870200Y2855700D01*
X2871400Y2858000D01*
X2872500Y2859099D01*
X2874799Y2860200D01*
X2879300Y2860200D01*
X2881599Y2859099D01*
X2882700Y2858000D01*
X2883900Y2855700D01*
X2883900Y2853400D01*
X2882700Y2851100D01*
X2880500Y2847700D01*
X2869099Y2836399D01*
X2885000Y2836399D01*
X3230000Y2935200D02*
G01*
X3239099Y2911399D01*
X3248199Y2935200D02*
G01*
X3239099Y2911399D01*
X3255699Y2935200D02*
G01*
X3255699Y2911399D01*
X3255699Y2935200D02*
G01*
X3265900Y2935200D01*
X3269300Y2934099D01*
X3270500Y2933000D01*
X3271599Y2930700D01*
X3271599Y2928400D01*
X3270500Y2926100D01*
X3269300Y2925000D01*
X3265900Y2923899D01*
X3255699Y2923899D01*
X3263599Y2923899D02*
G01*
X3271599Y2911399D01*
X3281400Y2935200D02*
G01*
X3293900Y2935200D01*
X3286999Y2926100D01*
X3290500Y2926100D01*
X3292700Y2925000D01*
X3293900Y2923899D01*
X3295000Y2920500D01*
X3295000Y2918200D01*
X3293900Y2914800D01*
X3291599Y2912500D01*
X3288199Y2911399D01*
X3284799Y2911399D01*
X3281400Y2912500D01*
X3280200Y2913600D01*
X3279099Y2915900D01*
X3550200Y3115000D02*
G01*
X3526400Y3105900D01*
X3550200Y3096799D02*
G01*
X3526400Y3105900D01*
X3550200Y3089299D02*
G01*
X3526400Y3089299D01*
X3550200Y3089299D02*
G01*
X3550200Y3079099D01*
X3549099Y3075700D01*
X3548000Y3074499D01*
X3545699Y3073400D01*
X3543400Y3073400D01*
X3541099Y3074499D01*
X3540000Y3075700D01*
X3538900Y3079099D01*
X3538900Y3089299D01*
X3538900Y3081399D02*
G01*
X3526400Y3073400D01*
X3550200Y3054499D02*
G01*
X3534300Y3065900D01*
X3534300Y3048899D01*
X3550200Y3054499D02*
G01*
X3526400Y3054499D01*
X2671999Y1979499D02*
G01*
X2670900Y1981799D01*
X2668599Y1984099D01*
X2666400Y1985199D01*
X2661800Y1985199D01*
X2659499Y1984099D01*
X2657299Y1981799D01*
X2656099Y1979499D01*
X2655000Y1976100D01*
X2655000Y1970500D01*
X2656099Y1966999D01*
X2657299Y1964800D01*
X2659499Y1962500D01*
X2661800Y1961399D01*
X2666400Y1961399D01*
X2668599Y1962500D01*
X2670900Y1964800D01*
X2671999Y1966999D01*
X2693199Y1985199D02*
G01*
X2681800Y1985199D01*
X2680699Y1975000D01*
X2681800Y1976100D01*
X2685200Y1977300D01*
X2688599Y1977300D01*
X2691999Y1976100D01*
X2694300Y1973899D01*
X2695500Y1970500D01*
X2695500Y1968200D01*
X2694300Y1964800D01*
X2691999Y1962500D01*
X2688599Y1961399D01*
X2685200Y1961399D01*
X2681800Y1962500D01*
X2680699Y1963600D01*
X2679499Y1965900D01*
X3411999Y1969499D02*
G01*
X3410900Y1971799D01*
X3408599Y1974099D01*
X3406400Y1975199D01*
X3401800Y1975199D01*
X3399499Y1974099D01*
X3397299Y1971799D01*
X3396099Y1969499D01*
X3395000Y1966100D01*
X3395000Y1960500D01*
X3396099Y1956999D01*
X3397299Y1954800D01*
X3399499Y1952500D01*
X3401800Y1951399D01*
X3406400Y1951399D01*
X3408599Y1952500D01*
X3410900Y1954800D01*
X3411999Y1956999D01*
X3433199Y1971799D02*
G01*
X3431999Y1974099D01*
X3428599Y1975199D01*
X3426400Y1975199D01*
X3423000Y1974099D01*
X3420699Y1970700D01*
X3419499Y1965000D01*
X3419499Y1959299D01*
X3420699Y1954800D01*
X3423000Y1952500D01*
X3426400Y1951399D01*
X3427500Y1951399D01*
X3430900Y1952500D01*
X3433199Y1954800D01*
X3434300Y1958200D01*
X3434300Y1959299D01*
X3433199Y1962699D01*
X3430900Y1965000D01*
X3427500Y1966100D01*
X3426400Y1966100D01*
X3423000Y1965000D01*
X3420699Y1962699D01*
X3419499Y1959299D01*
X2895195Y1293699D02*
G01*
X2893095Y1297800D01*
X2888995Y1301900D01*
X2884996Y1303899D01*
X2876796Y1303899D01*
X2872695Y1301900D01*
X2868595Y1297800D01*
X2866495Y1293699D01*
X2864495Y1287500D01*
X2864495Y1277300D01*
X2866495Y1271199D01*
X2868595Y1267100D01*
X2872695Y1263000D01*
X2876796Y1260999D01*
X2884996Y1260999D01*
X2888995Y1263000D01*
X2893095Y1267100D01*
X2895195Y1271199D01*
X2908696Y1295700D02*
G01*
X2912795Y1297800D01*
X2918896Y1303899D01*
X2918896Y1260999D01*
X2952896Y1303899D02*
G01*
X2932395Y1275300D01*
X2963095Y1275300D01*
X2952896Y1303899D02*
G01*
X2952896Y1260999D01*
X3220695Y1290199D02*
G01*
X3218595Y1294299D01*
X3214495Y1298400D01*
X3210496Y1300399D01*
X3202295Y1300399D01*
X3198195Y1298400D01*
X3194095Y1294299D01*
X3191995Y1290199D01*
X3189996Y1284000D01*
X3189996Y1273800D01*
X3191995Y1267699D01*
X3194095Y1263600D01*
X3198195Y1259499D01*
X3202295Y1257500D01*
X3210496Y1257500D01*
X3214495Y1259499D01*
X3218595Y1263600D01*
X3220695Y1267699D01*
X3234196Y1292199D02*
G01*
X3238296Y1294299D01*
X3244395Y1300399D01*
X3244395Y1257500D01*
X3282496Y1300399D02*
G01*
X3261995Y1300399D01*
X3259996Y1281999D01*
X3261995Y1284000D01*
X3268095Y1286100D01*
X3274296Y1286100D01*
X3280396Y1284000D01*
X3284495Y1280000D01*
X3286495Y1273800D01*
X3286495Y1269699D01*
X3284495Y1263600D01*
X3280396Y1259499D01*
X3274296Y1257500D01*
X3268095Y1257500D01*
X3261995Y1259499D01*
X3259996Y1261500D01*
X3257896Y1265599D01*
X3411999Y1879499D02*
G01*
X3410900Y1881799D01*
X3408599Y1884099D01*
X3406400Y1885199D01*
X3401800Y1885199D01*
X3399499Y1884099D01*
X3397299Y1881799D01*
X3396099Y1879499D01*
X3395000Y1876100D01*
X3395000Y1870500D01*
X3396099Y1866999D01*
X3397299Y1864800D01*
X3399499Y1862500D01*
X3401800Y1861399D01*
X3406400Y1861399D01*
X3408599Y1862500D01*
X3410900Y1864800D01*
X3411999Y1866999D01*
X3419499Y1880700D02*
G01*
X3421800Y1881799D01*
X3425200Y1885199D01*
X3425200Y1861399D01*
X3446400Y1881799D02*
G01*
X3445200Y1884099D01*
X3441800Y1885199D01*
X3439499Y1885199D01*
X3436099Y1884099D01*
X3433900Y1880700D01*
X3432700Y1875000D01*
X3432700Y1869299D01*
X3433900Y1864800D01*
X3436099Y1862500D01*
X3439499Y1861399D01*
X3440699Y1861399D01*
X3444099Y1862500D01*
X3446400Y1864800D01*
X3447500Y1868200D01*
X3447500Y1869299D01*
X3446400Y1872699D01*
X3444099Y1875000D01*
X3440699Y1876100D01*
X3439499Y1876100D01*
X3436099Y1875000D01*
X3433900Y1872699D01*
X3432700Y1869299D01*
X3411999Y1819499D02*
G01*
X3410900Y1821799D01*
X3408599Y1824099D01*
X3406400Y1825199D01*
X3401800Y1825199D01*
X3399499Y1824099D01*
X3397299Y1821799D01*
X3396099Y1819499D01*
X3395000Y1816100D01*
X3395000Y1810500D01*
X3396099Y1806999D01*
X3397299Y1804800D01*
X3399499Y1802500D01*
X3401800Y1801399D01*
X3406400Y1801399D01*
X3408599Y1802500D01*
X3410900Y1804800D01*
X3411999Y1806999D01*
X3419499Y1820700D02*
G01*
X3421800Y1821799D01*
X3425200Y1825199D01*
X3425200Y1801399D01*
X3448599Y1825199D02*
G01*
X3437299Y1801399D01*
X3432700Y1825199D02*
G01*
X3448599Y1825199D01*
X3536700Y1291199D02*
G01*
X3534600Y1295300D01*
X3530500Y1299400D01*
X3526499Y1301399D01*
X3518299Y1301399D01*
X3514200Y1299400D01*
X3510100Y1295300D01*
X3508000Y1291199D01*
X3506000Y1285000D01*
X3506000Y1274800D01*
X3508000Y1268699D01*
X3510100Y1264600D01*
X3514200Y1260500D01*
X3518299Y1258499D01*
X3526499Y1258499D01*
X3530500Y1260500D01*
X3534600Y1264600D01*
X3536700Y1268699D01*
X3550200Y1293200D02*
G01*
X3554300Y1295300D01*
X3560399Y1301399D01*
X3560399Y1258499D01*
X3584099Y1301399D02*
G01*
X3578000Y1299400D01*
X3576000Y1295300D01*
X3576000Y1291199D01*
X3578000Y1287100D01*
X3582100Y1285000D01*
X3590299Y1283000D01*
X3596400Y1280999D01*
X3600500Y1276900D01*
X3602500Y1272800D01*
X3602500Y1266599D01*
X3600500Y1262500D01*
X3598500Y1260500D01*
X3592299Y1258499D01*
X3584099Y1258499D01*
X3578000Y1260500D01*
X3576000Y1262500D01*
X3573900Y1266599D01*
X3573900Y1272800D01*
X3576000Y1276900D01*
X3580000Y1280999D01*
X3586199Y1283000D01*
X3594399Y1285000D01*
X3598500Y1287100D01*
X3600500Y1291199D01*
X3600500Y1295300D01*
X3598500Y1299400D01*
X3592299Y1301399D01*
X3584099Y1301399D01*
X4825002Y2885399D02*
G01*
X4825002Y2842500D01*
X4825002Y2885399D02*
G01*
X4841401Y2842500D01*
X4857701Y2885399D02*
G01*
X4841401Y2842500D01*
X4857701Y2885399D02*
G01*
X4857701Y2842500D01*
X4871202Y2885399D02*
G01*
X4871202Y2842500D01*
X4884701Y2885399D02*
G01*
X4884701Y2842500D01*
X4884701Y2885399D02*
G01*
X4913401Y2842500D01*
X4913401Y2885399D02*
G01*
X4913401Y2842500D01*
X3952299Y2145399D02*
G01*
X3948199Y2143400D01*
X3944099Y2139299D01*
X3941999Y2135200D01*
X3940000Y2129000D01*
X3940000Y2118800D01*
X3941999Y2112700D01*
X3944099Y2108600D01*
X3948199Y2104499D01*
X3952299Y2102500D01*
X3960500Y2102500D01*
X3964499Y2104499D01*
X3968599Y2108600D01*
X3970699Y2112700D01*
X3972700Y2118800D01*
X3972700Y2129000D01*
X3970699Y2135200D01*
X3968599Y2139299D01*
X3964499Y2143400D01*
X3960500Y2145399D01*
X3952299Y2145399D01*
X3958400Y2110599D02*
G01*
X3970699Y2098400D01*
X3986199Y2137199D02*
G01*
X3990299Y2139299D01*
X3996499Y2145399D01*
X3996499Y2102500D01*
X4010000Y2145399D02*
G01*
X4010000Y2102500D01*
X4010000Y2145399D02*
G01*
X4028400Y2145399D01*
X4034499Y2143400D01*
X4036499Y2141300D01*
X4038599Y2137199D01*
X4038599Y2131100D01*
X4036499Y2126999D01*
X4034499Y2125000D01*
X4028400Y2122899D01*
X4010000Y2122899D01*
X4052100Y2145399D02*
G01*
X4052100Y2114699D01*
X4054099Y2108600D01*
X4058199Y2104499D01*
X4064399Y2102500D01*
X4068500Y2102500D01*
X4074600Y2104499D01*
X4078699Y2108600D01*
X4080699Y2114699D01*
X4080699Y2145399D01*
X4094200Y2145399D02*
G01*
X4094200Y2102500D01*
X4094200Y2102500D02*
G01*
X4118800Y2102500D01*
X4132299Y2145399D02*
G01*
X4132299Y2102500D01*
X4132299Y2102500D02*
G01*
X4156800Y2102500D01*
X5049775Y1630700D02*
G01*
X5045675Y1628600D01*
X5041575Y1624499D01*
X5039575Y1620500D01*
X5039575Y1612300D01*
X5041575Y1608200D01*
X5045675Y1604099D01*
X5049775Y1601999D01*
X5055974Y1600000D01*
X5066175Y1600000D01*
X5072275Y1601999D01*
X5076374Y1604099D01*
X5080474Y1608200D01*
X5082475Y1612300D01*
X5082475Y1620500D01*
X5080474Y1624499D01*
X5076374Y1628600D01*
X5072275Y1630700D01*
X5039575Y1644200D02*
G01*
X5082475Y1644200D01*
X5039575Y1644200D02*
G01*
X5082475Y1672800D01*
X5039575Y1672800D02*
G01*
X5082475Y1672800D01*
X5047775Y1686300D02*
G01*
X5045675Y1690399D01*
X5039575Y1696500D01*
X5082475Y1696500D01*
X2526999Y2634499D02*
G01*
X2525900Y2636799D01*
X2523599Y2639099D01*
X2521400Y2640200D01*
X2516800Y2640200D01*
X2514499Y2639099D01*
X2512299Y2636799D01*
X2511099Y2634499D01*
X2510000Y2631100D01*
X2510000Y2625500D01*
X2511099Y2621999D01*
X2512299Y2619800D01*
X2514499Y2617500D01*
X2516800Y2616399D01*
X2521400Y2616399D01*
X2523599Y2617500D01*
X2525900Y2619800D01*
X2526999Y2621999D01*
X2534499Y2635700D02*
G01*
X2536800Y2636799D01*
X2540200Y2640200D01*
X2540200Y2616399D01*
X3196999Y2689499D02*
G01*
X3195900Y2691799D01*
X3193599Y2694099D01*
X3191400Y2695200D01*
X3186800Y2695200D01*
X3184499Y2694099D01*
X3182299Y2691799D01*
X3181099Y2689499D01*
X3180000Y2686100D01*
X3180000Y2680500D01*
X3181099Y2676999D01*
X3182299Y2674800D01*
X3184499Y2672500D01*
X3186800Y2671399D01*
X3191400Y2671399D01*
X3193599Y2672500D01*
X3195900Y2674800D01*
X3196999Y2676999D01*
X3205699Y2689499D02*
G01*
X3205699Y2690700D01*
X3206800Y2693000D01*
X3208000Y2694099D01*
X3210200Y2695200D01*
X3214799Y2695200D01*
X3216999Y2694099D01*
X3218199Y2693000D01*
X3219300Y2690700D01*
X3219300Y2688400D01*
X3218199Y2686100D01*
X3215900Y2682700D01*
X3204499Y2671399D01*
X3220500Y2671399D01*
X3551999Y2689499D02*
G01*
X3550900Y2691799D01*
X3548599Y2694099D01*
X3546400Y2695200D01*
X3541800Y2695200D01*
X3539499Y2694099D01*
X3537299Y2691799D01*
X3536099Y2689499D01*
X3535000Y2686100D01*
X3535000Y2680500D01*
X3536099Y2676999D01*
X3537299Y2674800D01*
X3539499Y2672500D01*
X3541800Y2671399D01*
X3546400Y2671399D01*
X3548599Y2672500D01*
X3550900Y2674800D01*
X3551999Y2676999D01*
X3561800Y2695200D02*
G01*
X3574300Y2695200D01*
X3567500Y2686100D01*
X3570900Y2686100D01*
X3573199Y2685000D01*
X3574300Y2683899D01*
X3575500Y2680500D01*
X3575500Y2678200D01*
X3574300Y2674800D01*
X3571999Y2672500D01*
X3568599Y2671399D01*
X3565200Y2671399D01*
X3561800Y2672500D01*
X3560699Y2673600D01*
X3559499Y2675900D01*
X3036999Y2724499D02*
G01*
X3035900Y2726799D01*
X3033599Y2729099D01*
X3031400Y2730200D01*
X3026800Y2730200D01*
X3024499Y2729099D01*
X3022299Y2726799D01*
X3021099Y2724499D01*
X3020000Y2721100D01*
X3020000Y2715500D01*
X3021099Y2711999D01*
X3022299Y2709800D01*
X3024499Y2707500D01*
X3026800Y2706399D01*
X3031400Y2706399D01*
X3033599Y2707500D01*
X3035900Y2709800D01*
X3036999Y2711999D01*
X3060500Y2730200D02*
G01*
X3049099Y2706399D01*
X3044499Y2730200D02*
G01*
X3060500Y2730200D01*
X3921999Y2709499D02*
G01*
X3920900Y2711799D01*
X3918599Y2714099D01*
X3916400Y2715200D01*
X3911800Y2715200D01*
X3909499Y2714099D01*
X3907299Y2711799D01*
X3906099Y2709499D01*
X3905000Y2706100D01*
X3905000Y2700500D01*
X3906099Y2696999D01*
X3907299Y2694800D01*
X3909499Y2692500D01*
X3911800Y2691399D01*
X3916400Y2691399D01*
X3918599Y2692500D01*
X3920900Y2694800D01*
X3921999Y2696999D01*
X3935200Y2715200D02*
G01*
X3931800Y2714099D01*
X3930699Y2711799D01*
X3930699Y2709499D01*
X3931800Y2707300D01*
X3934099Y2706100D01*
X3938599Y2705000D01*
X3941999Y2703899D01*
X3944300Y2701599D01*
X3945500Y2699299D01*
X3945500Y2695900D01*
X3944300Y2693600D01*
X3943199Y2692500D01*
X3939799Y2691399D01*
X3935200Y2691399D01*
X3931800Y2692500D01*
X3930699Y2693600D01*
X3929499Y2695900D01*
X3929499Y2699299D01*
X3930699Y2701599D01*
X3933000Y2703899D01*
X3936400Y2705000D01*
X3940900Y2706100D01*
X3943199Y2707300D01*
X3944300Y2709499D01*
X3944300Y2711799D01*
X3943199Y2714099D01*
X3939799Y2715200D01*
X3935200Y2715200D01*
X3953599Y3095599D02*
G01*
X3952700Y3097500D01*
X3950900Y3099299D01*
X3949099Y3100200D01*
X3945500Y3100200D01*
X3943599Y3099299D01*
X3941800Y3097500D01*
X3940900Y3095599D01*
X3940000Y3092899D01*
X3940000Y3088400D01*
X3940900Y3085599D01*
X3941800Y3083800D01*
X3943599Y3081999D01*
X3945500Y3081100D01*
X3949099Y3081100D01*
X3950900Y3081999D01*
X3952700Y3083800D01*
X3953599Y3085599D01*
X3966000Y3100200D02*
G01*
X3966000Y3081100D01*
X3959600Y3100200D02*
G01*
X3972399Y3100200D01*
X4155702Y2070199D02*
G01*
X4153602Y2074299D01*
X4149502Y2078400D01*
X4145501Y2080399D01*
X4137301Y2080399D01*
X4133202Y2078400D01*
X4129102Y2074299D01*
X4127002Y2070199D01*
X4125002Y2064000D01*
X4125002Y2053800D01*
X4127002Y2047699D01*
X4129102Y2043600D01*
X4133202Y2039499D01*
X4137301Y2037500D01*
X4145501Y2037500D01*
X4149502Y2039499D01*
X4153602Y2043600D01*
X4155702Y2047699D01*
X4195802Y2066100D02*
G01*
X4193702Y2060000D01*
X4189602Y2055900D01*
X4183501Y2053800D01*
X4181502Y2053800D01*
X4175302Y2055900D01*
X4171202Y2060000D01*
X4169201Y2066100D01*
X4169201Y2068099D01*
X4171202Y2074299D01*
X4175302Y2078400D01*
X4181502Y2080399D01*
X4183501Y2080399D01*
X4189602Y2078400D01*
X4193702Y2074299D01*
X4195802Y2066100D01*
X4195802Y2055900D01*
X4193702Y2045599D01*
X4189602Y2039499D01*
X4183501Y2037500D01*
X4179402Y2037500D01*
X4173302Y2039499D01*
X4171202Y2043600D01*
X4130702Y1995199D02*
G01*
X4128602Y1999299D01*
X4124502Y2003400D01*
X4120501Y2005399D01*
X4112301Y2005399D01*
X4108202Y2003400D01*
X4104102Y1999299D01*
X4102002Y1995199D01*
X4100002Y1989000D01*
X4100002Y1978800D01*
X4102002Y1972699D01*
X4104102Y1968600D01*
X4108202Y1964499D01*
X4112301Y1962500D01*
X4120501Y1962500D01*
X4124502Y1964499D01*
X4128602Y1968600D01*
X4130702Y1972699D01*
X4144201Y1997199D02*
G01*
X4148302Y1999299D01*
X4154402Y2005399D01*
X4154402Y1962500D01*
X4180201Y2005399D02*
G01*
X4174002Y2003400D01*
X4170002Y1997199D01*
X4167902Y1986999D01*
X4167902Y1980900D01*
X4170002Y1970599D01*
X4174002Y1964499D01*
X4180201Y1962500D01*
X4184301Y1962500D01*
X4190402Y1964499D01*
X4194502Y1970599D01*
X4196502Y1980900D01*
X4196502Y1986999D01*
X4194502Y1997199D01*
X4190402Y2003400D01*
X4184301Y2005399D01*
X4180201Y2005399D01*
X4952254Y3304499D02*
G01*
X4951153Y3306799D01*
X4948854Y3309099D01*
X4946653Y3310200D01*
X4942053Y3310200D01*
X4939754Y3309099D01*
X4937554Y3306799D01*
X4936354Y3304499D01*
X4935254Y3301100D01*
X4935254Y3295500D01*
X4936354Y3291999D01*
X4937554Y3289800D01*
X4939754Y3287500D01*
X4942053Y3286399D01*
X4946653Y3286399D01*
X4948854Y3287500D01*
X4951153Y3289800D01*
X4952254Y3291999D01*
X4959754Y3305700D02*
G01*
X4962053Y3306799D01*
X4965454Y3310200D01*
X4965454Y3286399D01*
X4972954Y3305700D02*
G01*
X4975254Y3306799D01*
X4978653Y3310200D01*
X4978653Y3286399D01*
X4942051Y3489497D02*
G01*
X4940950Y3491797D01*
X4938651Y3494097D01*
X4936351Y3495198D01*
X4931850Y3495198D01*
X4929551Y3494097D01*
X4927250Y3491797D01*
X4926151Y3489497D01*
X4924951Y3486098D01*
X4924951Y3480497D01*
X4926151Y3476997D01*
X4927250Y3474798D01*
X4929551Y3472498D01*
X4931850Y3471397D01*
X4936351Y3471397D01*
X4938651Y3472498D01*
X4940950Y3474798D01*
X4942051Y3476997D01*
X4949551Y3490698D02*
G01*
X4951850Y3491797D01*
X4955250Y3495198D01*
X4955250Y3471397D01*
X4963851Y3489497D02*
G01*
X4963851Y3490698D01*
X4964951Y3492997D01*
X4966151Y3494097D01*
X4968450Y3495198D01*
X4972951Y3495198D01*
X4975250Y3494097D01*
X4976351Y3492997D01*
X4977451Y3490698D01*
X4977451Y3488398D01*
X4976351Y3486098D01*
X4974050Y3482698D01*
X4962750Y3471397D01*
X4978651Y3471397D01*
X4942051Y3554497D02*
G01*
X4940950Y3556797D01*
X4938651Y3559097D01*
X4936351Y3560198D01*
X4931850Y3560198D01*
X4929551Y3559097D01*
X4927250Y3556797D01*
X4926151Y3554497D01*
X4924951Y3551098D01*
X4924951Y3545497D01*
X4926151Y3541997D01*
X4927250Y3539798D01*
X4929551Y3537498D01*
X4931850Y3536397D01*
X4936351Y3536397D01*
X4938651Y3537498D01*
X4940950Y3539798D01*
X4942051Y3541997D01*
X4949551Y3555698D02*
G01*
X4951850Y3556797D01*
X4955250Y3560198D01*
X4955250Y3536397D01*
X4964951Y3560198D02*
G01*
X4977451Y3560198D01*
X4970650Y3551098D01*
X4974050Y3551098D01*
X4976351Y3549998D01*
X4977451Y3548897D01*
X4978651Y3545497D01*
X4978651Y3543198D01*
X4977451Y3539798D01*
X4975250Y3537498D01*
X4971850Y3536397D01*
X4968450Y3536397D01*
X4964951Y3537498D01*
X4963851Y3538598D01*
X4962750Y3540898D01*
X4159799Y1490700D02*
G01*
X4155699Y1488600D01*
X4151599Y1484499D01*
X4149600Y1480500D01*
X4149600Y1472300D01*
X4151599Y1468200D01*
X4155699Y1464099D01*
X4159799Y1461999D01*
X4166000Y1460000D01*
X4176199Y1460000D01*
X4182299Y1461999D01*
X4186400Y1464099D01*
X4190500Y1468200D01*
X4192500Y1472300D01*
X4192500Y1480500D01*
X4190500Y1484499D01*
X4186400Y1488600D01*
X4182299Y1490700D01*
X4149600Y1504200D02*
G01*
X4192500Y1504200D01*
X4149600Y1504200D02*
G01*
X4149600Y1522600D01*
X4151599Y1528699D01*
X4153699Y1530799D01*
X4157799Y1532800D01*
X4161899Y1532800D01*
X4166000Y1530799D01*
X4168000Y1528699D01*
X4170000Y1522600D01*
X4170000Y1504200D02*
G01*
X4170000Y1522600D01*
X4172100Y1528699D01*
X4174099Y1530799D01*
X4178199Y1532800D01*
X4184399Y1532800D01*
X4188500Y1530799D01*
X4190500Y1528699D01*
X4192500Y1522600D01*
X4192500Y1504200D01*
X4149600Y1546300D02*
G01*
X4180299Y1546300D01*
X4186400Y1548400D01*
X4190500Y1552500D01*
X4192500Y1558600D01*
X4192500Y1562699D01*
X4190500Y1568800D01*
X4186400Y1572899D01*
X4180299Y1575000D01*
X4149600Y1575000D01*
X4149600Y1588499D02*
G01*
X4192500Y1588499D01*
X4192500Y1588499D02*
G01*
X4192500Y1613000D01*
X4149600Y1626500D02*
G01*
X4192500Y1626500D01*
X4149600Y1655100D02*
G01*
X4178199Y1626500D01*
X4168000Y1636700D02*
G01*
X4192500Y1655100D01*
X4685400Y2460000D02*
G01*
X4642500Y2460000D01*
X4685400Y2460000D02*
G01*
X4685400Y2445700D01*
X4683400Y2439499D01*
X4679300Y2435500D01*
X4675200Y2433400D01*
X4668999Y2431399D01*
X4658800Y2431399D01*
X4652700Y2433400D01*
X4648599Y2435500D01*
X4644499Y2439499D01*
X4642500Y2445700D01*
X4642500Y2460000D01*
X4677200Y2417899D02*
G01*
X4679300Y2413800D01*
X4685400Y2407600D01*
X4642500Y2407600D01*
X2730000Y2585200D02*
G01*
X2730000Y2561399D01*
X2730000Y2585200D02*
G01*
X2740200Y2585200D01*
X2743599Y2584099D01*
X2744799Y2583000D01*
X2745900Y2580700D01*
X2745900Y2578400D01*
X2744799Y2576100D01*
X2743599Y2575000D01*
X2740200Y2573899D01*
X2730000Y2573899D01*
X2738000Y2573899D02*
G01*
X2745900Y2561399D01*
X2753400Y2580700D02*
G01*
X2755699Y2581799D01*
X2759099Y2585200D01*
X2759099Y2561399D01*
X2855000Y2470200D02*
G01*
X2855000Y2446399D01*
X2855000Y2470200D02*
G01*
X2865200Y2470200D01*
X2868599Y2469099D01*
X2869799Y2468000D01*
X2870900Y2465700D01*
X2870900Y2463400D01*
X2869799Y2461100D01*
X2868599Y2460000D01*
X2865200Y2458899D01*
X2855000Y2458899D01*
X2863000Y2458899D02*
G01*
X2870900Y2446399D01*
X2880699Y2470200D02*
G01*
X2893199Y2470200D01*
X2886400Y2461100D01*
X2889799Y2461100D01*
X2891999Y2460000D01*
X2893199Y2458899D01*
X2894300Y2455500D01*
X2894300Y2453200D01*
X2893199Y2449800D01*
X2890900Y2447500D01*
X2887500Y2446399D01*
X2884099Y2446399D01*
X2880699Y2447500D01*
X2879499Y2448600D01*
X2878400Y2450900D01*
X2530000Y2315200D02*
G01*
X2530000Y2291399D01*
X2530000Y2315200D02*
G01*
X2540200Y2315200D01*
X2543599Y2314099D01*
X2544799Y2313000D01*
X2545900Y2310700D01*
X2545900Y2308400D01*
X2544799Y2306100D01*
X2543599Y2305000D01*
X2540200Y2303899D01*
X2530000Y2303899D01*
X2538000Y2303899D02*
G01*
X2545900Y2291399D01*
X2564799Y2315200D02*
G01*
X2553400Y2299299D01*
X2570500Y2299299D01*
X2564799Y2315200D02*
G01*
X2564799Y2291399D01*
X2820000Y2570200D02*
G01*
X2820000Y2546399D01*
X2820000Y2570200D02*
G01*
X2830200Y2570200D01*
X2833599Y2569099D01*
X2834799Y2568000D01*
X2835900Y2565700D01*
X2835900Y2563400D01*
X2834799Y2561100D01*
X2833599Y2560000D01*
X2830200Y2558899D01*
X2820000Y2558899D01*
X2828000Y2558899D02*
G01*
X2835900Y2546399D01*
X2856999Y2570200D02*
G01*
X2845699Y2570200D01*
X2844499Y2560000D01*
X2845699Y2561100D01*
X2849099Y2562300D01*
X2852500Y2562300D01*
X2855900Y2561100D01*
X2858199Y2558899D01*
X2859300Y2555500D01*
X2859300Y2553200D01*
X2858199Y2549800D01*
X2855900Y2547500D01*
X2852500Y2546399D01*
X2849099Y2546399D01*
X2845699Y2547500D01*
X2844499Y2548600D01*
X2843400Y2550900D01*
X3310000Y2430200D02*
G01*
X3310000Y2406399D01*
X3310000Y2430200D02*
G01*
X3320200Y2430200D01*
X3323599Y2429099D01*
X3324799Y2428000D01*
X3325900Y2425700D01*
X3325900Y2423400D01*
X3324799Y2421100D01*
X3323599Y2420000D01*
X3320200Y2418899D01*
X3310000Y2418899D01*
X3318000Y2418899D02*
G01*
X3325900Y2406399D01*
X3349300Y2430200D02*
G01*
X3338000Y2406399D01*
X3333400Y2430200D02*
G01*
X3349300Y2430200D01*
X3744799Y2350000D02*
G01*
X3768599Y2350000D01*
X3744799Y2350000D02*
G01*
X3744799Y2360200D01*
X3745900Y2363600D01*
X3746999Y2364800D01*
X3749300Y2365900D01*
X3751599Y2365900D01*
X3753900Y2364800D01*
X3755000Y2363600D01*
X3756099Y2360200D01*
X3756099Y2350000D01*
X3756099Y2358000D02*
G01*
X3768599Y2365900D01*
X3752700Y2388200D02*
G01*
X3756099Y2386999D01*
X3758400Y2384800D01*
X3759499Y2381399D01*
X3759499Y2380200D01*
X3758400Y2376799D01*
X3756099Y2374499D01*
X3752700Y2373400D01*
X3751599Y2373400D01*
X3748199Y2374499D01*
X3745900Y2376799D01*
X3744799Y2380200D01*
X3744799Y2381399D01*
X3745900Y2384800D01*
X3748199Y2386999D01*
X3752700Y2388200D01*
X3758400Y2388200D01*
X3764099Y2386999D01*
X3767500Y2384800D01*
X3768599Y2381399D01*
X3768599Y2379099D01*
X3767500Y2375700D01*
X3765200Y2374499D01*
X4705000Y3675200D02*
G01*
X4705000Y3651399D01*
X4705000Y3675200D02*
G01*
X4715200Y3675200D01*
X4718599Y3674099D01*
X4719799Y3673000D01*
X4720900Y3670700D01*
X4720900Y3668400D01*
X4719799Y3666100D01*
X4718599Y3665000D01*
X4715200Y3663899D01*
X4705000Y3663899D01*
X4713000Y3663899D02*
G01*
X4720900Y3651399D01*
X4728400Y3670700D02*
G01*
X4730699Y3671799D01*
X4734099Y3675200D01*
X4734099Y3651399D01*
X4741599Y3670700D02*
G01*
X4743900Y3671799D01*
X4747299Y3675200D01*
X4747299Y3651399D01*
X4926149Y3430200D02*
G01*
X4926149Y3406399D01*
X4926149Y3430200D02*
G01*
X4936350Y3430200D01*
X4939750Y3429099D01*
X4940950Y3428000D01*
X4942049Y3425700D01*
X4942049Y3423400D01*
X4940950Y3421100D01*
X4939750Y3420000D01*
X4936350Y3418899D01*
X4926149Y3418899D01*
X4934150Y3418899D02*
G01*
X4942049Y3406399D01*
X4949549Y3425700D02*
G01*
X4951850Y3426799D01*
X4955249Y3430200D01*
X4955249Y3406399D01*
X4963850Y3424499D02*
G01*
X4963850Y3425700D01*
X4965050Y3428000D01*
X4966149Y3429099D01*
X4968450Y3430200D01*
X4972950Y3430200D01*
X4975249Y3429099D01*
X4976350Y3428000D01*
X4977550Y3425700D01*
X4977550Y3423400D01*
X4976350Y3421100D01*
X4974150Y3417700D01*
X4962749Y3406399D01*
X4978649Y3406399D01*
X4926153Y3375201D02*
G01*
X4926153Y3351401D01*
X4926153Y3375201D02*
G01*
X4936354Y3375201D01*
X4939754Y3374101D01*
X4940954Y3373002D01*
X4942053Y3370702D01*
X4942053Y3368402D01*
X4940954Y3366102D01*
X4939754Y3365001D01*
X4936354Y3363901D01*
X4926153Y3363901D01*
X4934153Y3363901D02*
G01*
X4942053Y3351401D01*
X4949553Y3370702D02*
G01*
X4951854Y3371801D01*
X4955254Y3375201D01*
X4955254Y3351401D01*
X4965054Y3375201D02*
G01*
X4977554Y3375201D01*
X4970654Y3366102D01*
X4974153Y3366102D01*
X4976354Y3365001D01*
X4977554Y3363901D01*
X4978653Y3360502D01*
X4978653Y3358202D01*
X4977554Y3354801D01*
X4975254Y3352501D01*
X4971854Y3351401D01*
X4968454Y3351401D01*
X4965054Y3352501D01*
X4963854Y3353602D01*
X4962754Y3355902D01*
X2705000Y2320200D02*
G01*
X2705000Y2296399D01*
X2705000Y2320200D02*
G01*
X2715200Y2320200D01*
X2718599Y2319099D01*
X2719799Y2318000D01*
X2720900Y2315700D01*
X2720900Y2313400D01*
X2719799Y2311100D01*
X2718599Y2310000D01*
X2715200Y2308899D01*
X2705000Y2308899D01*
X2713000Y2308899D02*
G01*
X2720900Y2296399D01*
X2728400Y2315700D02*
G01*
X2730699Y2316799D01*
X2734099Y2320200D01*
X2734099Y2296399D01*
X2753000Y2320200D02*
G01*
X2741599Y2304299D01*
X2758599Y2304299D01*
X2753000Y2320200D02*
G01*
X2753000Y2296399D01*
X3830000Y2975200D02*
G01*
X3830000Y2951399D01*
X3830000Y2975200D02*
G01*
X3840200Y2975200D01*
X3843599Y2974099D01*
X3844799Y2973000D01*
X3845900Y2970700D01*
X3845900Y2968400D01*
X3844799Y2966100D01*
X3843599Y2965000D01*
X3840200Y2963899D01*
X3830000Y2963899D01*
X3838000Y2963899D02*
G01*
X3845900Y2951399D01*
X3853400Y2970700D02*
G01*
X3855699Y2971799D01*
X3859099Y2975200D01*
X3859099Y2951399D01*
X3880200Y2971799D02*
G01*
X3879099Y2974099D01*
X3875699Y2975200D01*
X3873400Y2975200D01*
X3870000Y2974099D01*
X3867700Y2970700D01*
X3866599Y2965000D01*
X3866599Y2959299D01*
X3867700Y2954800D01*
X3870000Y2952500D01*
X3873400Y2951399D01*
X3874499Y2951399D01*
X3878000Y2952500D01*
X3880200Y2954800D01*
X3881400Y2958200D01*
X3881400Y2959299D01*
X3880200Y2962700D01*
X3878000Y2965000D01*
X3874499Y2966100D01*
X3873400Y2966100D01*
X3870000Y2965000D01*
X3867700Y2962700D01*
X3866599Y2959299D01*
X2940000Y2805200D02*
G01*
X2940000Y2781399D01*
X2940000Y2805200D02*
G01*
X2950200Y2805200D01*
X2953599Y2804099D01*
X2954799Y2803000D01*
X2955900Y2800700D01*
X2955900Y2798400D01*
X2954799Y2796100D01*
X2953599Y2795000D01*
X2950200Y2793899D01*
X2940000Y2793899D01*
X2948000Y2793899D02*
G01*
X2955900Y2781399D01*
X2963400Y2805200D02*
G01*
X2963400Y2781399D01*
X2963400Y2805200D02*
G01*
X2973599Y2805200D01*
X2976999Y2804099D01*
X2978199Y2803000D01*
X2979300Y2800700D01*
X2979300Y2798400D01*
X2978199Y2796100D01*
X2976999Y2795000D01*
X2973599Y2793899D01*
X2963400Y2793899D02*
G01*
X2973599Y2793899D01*
X2976999Y2792700D01*
X2978199Y2791599D01*
X2979300Y2789299D01*
X2979300Y2785900D01*
X2978199Y2783600D01*
X2976999Y2782500D01*
X2973599Y2781399D01*
X2963400Y2781399D01*
X2986800Y2805200D02*
G01*
X2986800Y2781399D01*
X2986800Y2781399D02*
G01*
X3000500Y2781399D01*
X3008000Y2805200D02*
G01*
X3008000Y2781399D01*
X3008000Y2805200D02*
G01*
X3022700Y2805200D01*
X3008000Y2793899D02*
G01*
X3016999Y2793899D01*
X3008000Y2781399D02*
G01*
X3022700Y2781399D01*
X3030200Y2805200D02*
G01*
X3030200Y2781399D01*
X3030200Y2805200D02*
G01*
X3045000Y2805200D01*
X3030200Y2793899D02*
G01*
X3039300Y2793899D01*
X3030200Y2781399D02*
G01*
X3045000Y2781399D01*
X3052500Y2805200D02*
G01*
X3052500Y2781399D01*
X3052500Y2805200D02*
G01*
X3060500Y2805200D01*
X3063900Y2804099D01*
X3066099Y2801799D01*
X3067299Y2799499D01*
X3068400Y2796100D01*
X3068400Y2790500D01*
X3067299Y2786999D01*
X3066099Y2784800D01*
X3063900Y2782500D01*
X3060500Y2781399D01*
X3052500Y2781399D01*
X4447299Y2500399D02*
G01*
X4443199Y2498400D01*
X4439099Y2494299D01*
X4436999Y2490200D01*
X4435000Y2484000D01*
X4435000Y2473800D01*
X4436999Y2467700D01*
X4439099Y2463600D01*
X4443199Y2459499D01*
X4447299Y2457500D01*
X4455500Y2457500D01*
X4459499Y2459499D01*
X4463599Y2463600D01*
X4465699Y2467700D01*
X4467700Y2473800D01*
X4467700Y2484000D01*
X4465699Y2490200D01*
X4463599Y2494299D01*
X4459499Y2498400D01*
X4455500Y2500399D01*
X4447299Y2500399D01*
X4453400Y2465599D02*
G01*
X4465699Y2453400D01*
X4481199Y2492199D02*
G01*
X4485299Y2494299D01*
X4491499Y2500399D01*
X4491499Y2457500D01*
X2525000Y2380200D02*
G01*
X2525000Y2363200D01*
X2526099Y2359800D01*
X2528400Y2357500D01*
X2531800Y2356399D01*
X2534099Y2356399D01*
X2537500Y2357500D01*
X2539799Y2359800D01*
X2540900Y2363200D01*
X2540900Y2380200D01*
X2548400Y2375700D02*
G01*
X2550699Y2376799D01*
X2554099Y2380200D01*
X2554099Y2356399D01*
X3040000Y2630200D02*
G01*
X3040000Y2613200D01*
X3041099Y2609800D01*
X3043400Y2607500D01*
X3046800Y2606399D01*
X3049099Y2606399D01*
X3052500Y2607500D01*
X3054799Y2609800D01*
X3055900Y2613200D01*
X3055900Y2630200D01*
X3064499Y2624499D02*
G01*
X3064499Y2625700D01*
X3065699Y2628000D01*
X3066800Y2629099D01*
X3069099Y2630200D01*
X3073599Y2630200D01*
X3075900Y2629099D01*
X3076999Y2628000D01*
X3078199Y2625700D01*
X3078199Y2623400D01*
X3076999Y2621100D01*
X3074799Y2617700D01*
X3063400Y2606399D01*
X3079300Y2606399D01*
X3490000Y2390200D02*
G01*
X3490000Y2373200D01*
X3491099Y2369800D01*
X3493400Y2367500D01*
X3496800Y2366399D01*
X3499099Y2366399D01*
X3502500Y2367500D01*
X3504799Y2369800D01*
X3505900Y2373200D01*
X3505900Y2390200D01*
X3515699Y2390200D02*
G01*
X3528199Y2390200D01*
X3521400Y2381100D01*
X3524799Y2381100D01*
X3526999Y2380000D01*
X3528199Y2378899D01*
X3529300Y2375500D01*
X3529300Y2373200D01*
X3528199Y2369800D01*
X3525900Y2367500D01*
X3522500Y2366399D01*
X3519099Y2366399D01*
X3515699Y2367500D01*
X3514499Y2368600D01*
X3513400Y2370900D01*
X4520000Y3145200D02*
G01*
X4520000Y3131500D01*
X4520900Y3128800D01*
X4522700Y3126999D01*
X4525500Y3126100D01*
X4527299Y3126100D01*
X4530000Y3126999D01*
X4531800Y3128800D01*
X4532700Y3131500D01*
X4532700Y3145200D01*
X4543299Y3145200D02*
G01*
X4540500Y3144299D01*
X4539600Y3142500D01*
X4539600Y3140599D01*
X4540500Y3138800D01*
X4542399Y3137899D01*
X4546000Y3136999D01*
X4548699Y3136100D01*
X4550500Y3134299D01*
X4551499Y3132500D01*
X4551499Y3129699D01*
X4550500Y3127899D01*
X4549600Y3126999D01*
X4546899Y3126100D01*
X4543299Y3126100D01*
X4540500Y3126999D01*
X4539600Y3127899D01*
X4538699Y3129699D01*
X4538699Y3132500D01*
X4539600Y3134299D01*
X4541499Y3136100D01*
X4544200Y3136999D01*
X4547799Y3137899D01*
X4549600Y3138800D01*
X4550500Y3140599D01*
X4550500Y3142500D01*
X4549600Y3144299D01*
X4546899Y3145200D01*
X4543299Y3145200D01*
X4505000Y3660200D02*
G01*
X4505000Y3646500D01*
X4505900Y3643800D01*
X4507700Y3641999D01*
X4510500Y3641100D01*
X4512299Y3641100D01*
X4515000Y3641999D01*
X4516800Y3643800D01*
X4517700Y3646500D01*
X4517700Y3660200D01*
X4535500Y3653800D02*
G01*
X4534600Y3651100D01*
X4532799Y3649299D01*
X4530100Y3648400D01*
X4529200Y3648400D01*
X4526499Y3649299D01*
X4524600Y3651100D01*
X4523699Y3653800D01*
X4523699Y3654699D01*
X4524600Y3657500D01*
X4526499Y3659299D01*
X4529200Y3660200D01*
X4530100Y3660200D01*
X4532799Y3659299D01*
X4534600Y3657500D01*
X4535500Y3653800D01*
X4535500Y3649299D01*
X4534600Y3644699D01*
X4532799Y3641999D01*
X4530100Y3641100D01*
X4528299Y3641100D01*
X4525500Y3641999D01*
X4524600Y3643800D01*
X4290200Y3435000D02*
G01*
X4276499Y3435000D01*
X4273800Y3434099D01*
X4271999Y3432300D01*
X4271099Y3429499D01*
X4271099Y3427700D01*
X4271999Y3425000D01*
X4273800Y3423200D01*
X4276499Y3422300D01*
X4290200Y3422300D01*
X4286499Y3416300D02*
G01*
X4287500Y3414499D01*
X4290200Y3411700D01*
X4271099Y3411700D01*
X4290200Y3400300D02*
G01*
X4289300Y3403000D01*
X4286499Y3404800D01*
X4281999Y3405700D01*
X4279300Y3405700D01*
X4274700Y3404800D01*
X4271999Y3403000D01*
X4271099Y3400300D01*
X4271099Y3398499D01*
X4271999Y3395700D01*
X4274700Y3393899D01*
X4279300Y3393000D01*
X4281999Y3393000D01*
X4286499Y3393899D01*
X4289300Y3395700D01*
X4290200Y3398499D01*
X4290200Y3400300D01*
X1784994Y2545399D02*
G01*
X1801395Y2502500D01*
X1817695Y2545399D02*
G01*
X1801395Y2502500D01*
X1831194Y2545399D02*
G01*
X1831194Y2502500D01*
X1831194Y2545399D02*
G01*
X1849594Y2545399D01*
X1855794Y2543400D01*
X1857794Y2541300D01*
X1859894Y2537199D01*
X1859894Y2533099D01*
X1857794Y2529000D01*
X1855794Y2526999D01*
X1849594Y2525000D01*
X1831194Y2525000D01*
X1845495Y2525000D02*
G01*
X1859894Y2502500D01*
X1873395Y2537199D02*
G01*
X1877494Y2539299D01*
X1883594Y2545399D01*
X1883594Y2502500D01*
G36*
X2894460Y2680440D02*
G01*
X2894320Y2680299D01*
X2894320Y2644560D01*
X2894660Y2644220D01*
X2898639Y2644220D01*
X2898740Y2644120D01*
X2898900Y2680440D01*
G37*
G36*
X3169460Y2880440D02*
G01*
X3169320Y2880299D01*
X3169320Y2844560D01*
X3169660Y2844220D01*
X3173639Y2844220D01*
X3173740Y2844120D01*
X3173900Y2880440D01*
G37*
G36*
X3569560Y3045680D02*
G01*
X3569220Y3045340D01*
X3569220Y3041360D01*
X3569120Y3041259D01*
X3605440Y3041100D01*
X3605440Y3045539D01*
X3605299Y3045680D01*
G37*
G36*
X4315640Y1448080D02*
G01*
X4315640Y1399400D01*
X4327820Y1399400D01*
X4327820Y1448080D01*
G37*
G36*
X4315640Y1780600D02*
G01*
X4315640Y1731920D01*
X4327820Y1731920D01*
X4327820Y1780600D01*
G37*
G36*
X4281180Y1762340D02*
G01*
X4281180Y1750180D01*
X4362280Y1750180D01*
X4362280Y1762340D01*
G37*
G36*
X4600860Y2160780D02*
G01*
X4600860Y2142780D01*
X4616680Y2142640D01*
X4616860Y2160740D01*
G37*
G36*
X4703140Y2161120D02*
G01*
X4703140Y2143120D01*
X4718980Y2142960D01*
X4719160Y2161060D01*
G37*
X4321779Y2303991D02*
G01*
X4359530Y2303991D01*
X4359530Y2356008D01*
X4321779Y2356008D01*
X4288220Y2303991D02*
G01*
X4250469Y2303991D01*
X4250469Y2356008D01*
X4288220Y2356008D01*
D13*
X3780945Y2598425D02*
G01*
X3780945Y2401574D01*
X3899054Y2598425D02*
G01*
X3899054Y2401574D01*
X3780945Y2598425D02*
G01*
X3811395Y2598425D01*
X3899054Y2598425D02*
G01*
X3868594Y2598425D01*
X3899054Y2401574D02*
G01*
X3780945Y2401574D01*
X3610982Y1380511D02*
G01*
X2843267Y1380511D01*
X2843269Y1380511D02*
G01*
X2843269Y1616732D01*
X3610983Y1380511D02*
G01*
X3610983Y1616732D01*
X3610982Y1616732D02*
G01*
X2843269Y1616732D01*
X2891571Y1665005D02*
G01*
X2891571Y2065005D01*
X2842358Y1665003D02*
G01*
X2842358Y2065003D01*
X2842358Y2065005D02*
G01*
X3022673Y2065005D01*
X3022673Y1665005D01*
X2842358Y1665005D01*
X3081571Y1665005D02*
G01*
X3081571Y2065005D01*
X3032358Y1665003D02*
G01*
X3032358Y2065003D01*
X3032358Y2065005D02*
G01*
X3212673Y2065005D01*
X3212673Y1665005D01*
X3032358Y1665005D01*
D10*
X4003991Y2538220D02*
G01*
X4003991Y2500468D01*
X4056008Y2500468D01*
X4056008Y2538220D01*
X4003991Y2571779D02*
G01*
X4003991Y2609531D01*
X4056008Y2609531D01*
X4056008Y2571779D01*
D13*
X3827935Y3108969D02*
G01*
X3827935Y3077474D01*
X3827953Y3131033D02*
G01*
X3827953Y3162528D01*
X3772043Y3108969D02*
G01*
X3772043Y3077474D01*
X3772061Y3131033D02*
G01*
X3772061Y3162528D01*
X3815738Y3065279D02*
G01*
X3784240Y3065279D01*
X3784260Y3174724D02*
G01*
X3815757Y3174724D01*
D14*
X4088000Y3608499D02*
G01*
X4211999Y3608499D01*
X4086999Y3671500D02*
G01*
X4213000Y3671500D01*
X4137263Y3608499D02*
G01*
X4137411Y3671500D01*
D10*
X4146779Y3068991D02*
G01*
X4184530Y3068991D01*
X4184530Y3121008D01*
X4146779Y3121008D01*
X4113220Y3068991D02*
G01*
X4075469Y3068991D01*
X4075469Y3121008D01*
X4113220Y3121008D01*
D14*
X3678000Y2868499D02*
G01*
X3801999Y2868499D01*
X3676999Y2931500D02*
G01*
X3803000Y2931500D01*
X3727263Y2868499D02*
G01*
X3727411Y2931500D01*
D10*
X3578991Y2918220D02*
G01*
X3578991Y2880468D01*
X3631008Y2880468D01*
X3631008Y2918220D01*
X3578991Y2951779D02*
G01*
X3578991Y2989531D01*
X3631008Y2989531D01*
X3631008Y2951779D01*
X4113220Y3181008D02*
G01*
X4075469Y3181008D01*
X4075469Y3128991D01*
X4113220Y3128991D01*
X4146779Y3181008D02*
G01*
X4184530Y3181008D01*
X4184530Y3128991D01*
X4146779Y3128991D01*
D13*
X2388968Y2337064D02*
G01*
X2357474Y2337064D01*
X2411033Y2337046D02*
G01*
X2442529Y2337046D01*
X2388968Y2392957D02*
G01*
X2357474Y2392957D01*
X2411033Y2392937D02*
G01*
X2442529Y2392937D01*
X2345279Y2349261D02*
G01*
X2345279Y2380760D01*
X2454724Y2380738D02*
G01*
X2454724Y2349241D01*
X3046031Y2392935D02*
G01*
X3077525Y2392935D01*
X3023966Y2392953D02*
G01*
X2992470Y2392953D01*
X3046031Y2337042D02*
G01*
X3077525Y2337042D01*
X3023966Y2337062D02*
G01*
X2992470Y2337062D01*
X3089720Y2380738D02*
G01*
X3089720Y2349240D01*
X2980275Y2349261D02*
G01*
X2980275Y2380758D01*
X3368968Y2337064D02*
G01*
X3337474Y2337064D01*
X3391033Y2337046D02*
G01*
X3422529Y2337046D01*
X3368968Y2392957D02*
G01*
X3337474Y2392957D01*
X3391033Y2392937D02*
G01*
X3422529Y2392937D01*
X3325279Y2349261D02*
G01*
X3325279Y2380760D01*
X3434724Y2380738D02*
G01*
X3434724Y2349241D01*
D16*
X2786102Y2648105D02*
G01*
X2786102Y2635511D01*
X2923896Y2635511D01*
X2923896Y2683539D01*
X2786102Y2746531D02*
G01*
X2786102Y2713470D01*
X2923896Y2776462D02*
G01*
X2923896Y2824488D01*
X2786102Y2824488D01*
X2786102Y2811896D01*
X3061102Y2848105D02*
G01*
X3061102Y2835511D01*
X3198896Y2835511D01*
X3198896Y2883539D01*
X3061102Y2946531D02*
G01*
X3061102Y2913470D01*
X3198896Y2976462D02*
G01*
X3198896Y3024488D01*
X3061102Y3024488D01*
X3061102Y3011896D01*
X3573105Y3153897D02*
G01*
X3560511Y3153897D01*
X3560511Y3016102D01*
X3608539Y3016102D01*
X3671531Y3153897D02*
G01*
X3638470Y3153897D01*
X3701463Y3016102D02*
G01*
X3749488Y3016102D01*
X3749488Y3153897D01*
X3736895Y3153897D01*
D13*
X2763968Y1937064D02*
G01*
X2732474Y1937064D01*
X2786033Y1937046D02*
G01*
X2817529Y1937046D01*
X2763968Y1992957D02*
G01*
X2732474Y1992957D01*
X2786033Y1992937D02*
G01*
X2817529Y1992937D01*
X2720279Y1949261D02*
G01*
X2720279Y1980760D01*
X2829724Y1980738D02*
G01*
X2829724Y1949241D01*
X3286031Y1992935D02*
G01*
X3317525Y1992935D01*
X3263966Y1992953D02*
G01*
X3232470Y1992953D01*
X3286031Y1937042D02*
G01*
X3317525Y1937042D01*
X3263966Y1937062D02*
G01*
X3232470Y1937062D01*
X3329720Y1980738D02*
G01*
X3329720Y1949239D01*
X3220275Y1949261D02*
G01*
X3220275Y1980758D01*
X3027935Y1302968D02*
G01*
X3027935Y1271473D01*
X3027953Y1325034D02*
G01*
X3027953Y1356529D01*
X2972043Y1302968D02*
G01*
X2972043Y1271473D01*
X2972061Y1325034D02*
G01*
X2972061Y1356529D01*
X3015738Y1259279D02*
G01*
X2984240Y1259279D01*
X2984260Y1368724D02*
G01*
X3015757Y1368724D01*
X3093936Y1302968D02*
G01*
X3093936Y1271473D01*
X3093954Y1325034D02*
G01*
X3093954Y1356529D01*
X3038042Y1302968D02*
G01*
X3038042Y1271473D01*
X3038062Y1325034D02*
G01*
X3038062Y1356529D01*
X3081737Y1259279D02*
G01*
X3050240Y1259279D01*
X3050261Y1368724D02*
G01*
X3081758Y1368724D01*
X3284686Y1898285D02*
G01*
X3316180Y1898285D01*
X3262620Y1898303D02*
G01*
X3231126Y1898303D01*
X3284686Y1842393D02*
G01*
X3316180Y1842393D01*
X3262620Y1842411D02*
G01*
X3231126Y1842411D01*
X3328375Y1886087D02*
G01*
X3328375Y1854589D01*
X3218930Y1854610D02*
G01*
X3218930Y1886107D01*
X3286031Y1832935D02*
G01*
X3317525Y1832935D01*
X3263966Y1832953D02*
G01*
X3232470Y1832953D01*
X3286031Y1777042D02*
G01*
X3317525Y1777042D01*
X3263966Y1777062D02*
G01*
X3232470Y1777062D01*
X3329720Y1820738D02*
G01*
X3329720Y1789239D01*
X3220275Y1789261D02*
G01*
X3220275Y1820758D01*
X3468968Y1317064D02*
G01*
X3437474Y1317064D01*
X3491033Y1317046D02*
G01*
X3522529Y1317046D01*
X3468968Y1372957D02*
G01*
X3437474Y1372957D01*
X3491033Y1372937D02*
G01*
X3522529Y1372937D01*
X3425279Y1329261D02*
G01*
X3425279Y1360760D01*
X3534724Y1360738D02*
G01*
X3534724Y1329241D01*
X4722209Y2020471D02*
G01*
X4722209Y2829522D01*
X5021419Y2829522D01*
X5021419Y2020471D01*
X4722209Y2020471D01*
D10*
X4278220Y2151008D02*
G01*
X4240469Y2151008D01*
X4240469Y2098991D01*
X4278220Y2098991D01*
X4311779Y2151008D02*
G01*
X4349530Y2151008D01*
X4349530Y2098991D01*
X4311779Y2098991D01*
D13*
X4771575Y1383150D02*
G01*
X4771575Y1776849D01*
X5027479Y1441941D02*
G01*
X4968424Y1441941D01*
X4968424Y1520945D01*
X5027479Y1520945D01*
X5027479Y1638791D02*
G01*
X4968424Y1638791D01*
X4968424Y1717795D01*
X5027479Y1717795D01*
X5027479Y1383150D02*
G01*
X4732205Y1383150D01*
X4732205Y1776849D01*
X5027479Y1776849D01*
X5027479Y1383150D01*
X2621031Y2657935D02*
G01*
X2652525Y2657935D01*
X2598966Y2657953D02*
G01*
X2567470Y2657953D01*
X2621031Y2602042D02*
G01*
X2652525Y2602042D01*
X2598966Y2602062D02*
G01*
X2567470Y2602062D01*
X2664720Y2645738D02*
G01*
X2664720Y2614240D01*
X2555275Y2614261D02*
G01*
X2555275Y2645758D01*
X3211031Y2662935D02*
G01*
X3242525Y2662935D01*
X3188966Y2662953D02*
G01*
X3157470Y2662953D01*
X3211031Y2607042D02*
G01*
X3242525Y2607042D01*
X3188966Y2607062D02*
G01*
X3157470Y2607062D01*
X3254720Y2650738D02*
G01*
X3254720Y2619240D01*
X3145275Y2619261D02*
G01*
X3145275Y2650758D01*
X3566031Y2662935D02*
G01*
X3597525Y2662935D01*
X3543966Y2662953D02*
G01*
X3512470Y2662953D01*
X3566031Y2607042D02*
G01*
X3597525Y2607042D01*
X3543966Y2607062D02*
G01*
X3512470Y2607062D01*
X3609720Y2650738D02*
G01*
X3609720Y2619240D01*
X3500275Y2619261D02*
G01*
X3500275Y2650758D01*
X3146031Y2752935D02*
G01*
X3177525Y2752935D01*
X3123966Y2752953D02*
G01*
X3092470Y2752953D01*
X3146031Y2697042D02*
G01*
X3177525Y2697042D01*
X3123966Y2697062D02*
G01*
X3092470Y2697062D01*
X3189720Y2740738D02*
G01*
X3189720Y2709240D01*
X3080275Y2709261D02*
G01*
X3080275Y2740758D01*
X3931031Y2667935D02*
G01*
X3962525Y2667935D01*
X3908966Y2667953D02*
G01*
X3877470Y2667953D01*
X3931031Y2612042D02*
G01*
X3962525Y2612042D01*
X3908966Y2612062D02*
G01*
X3877470Y2612062D01*
X3974720Y2655738D02*
G01*
X3974720Y2624240D01*
X3865275Y2624261D02*
G01*
X3865275Y2655758D01*
X3966031Y3172935D02*
G01*
X3997525Y3172935D01*
X3943966Y3172953D02*
G01*
X3912470Y3172953D01*
X3966031Y3117042D02*
G01*
X3997525Y3117042D01*
X3943966Y3117062D02*
G01*
X3912470Y3117062D01*
X4009720Y3160738D02*
G01*
X4009720Y3129240D01*
X3900275Y3129261D02*
G01*
X3900275Y3160758D01*
X4283968Y2027064D02*
G01*
X4252474Y2027064D01*
X4306034Y2027046D02*
G01*
X4337529Y2027046D01*
X4283968Y2082957D02*
G01*
X4252474Y2082957D01*
X4306034Y2082937D02*
G01*
X4337529Y2082937D01*
X4240279Y2039261D02*
G01*
X4240279Y2070760D01*
X4349724Y2070738D02*
G01*
X4349724Y2039241D01*
X4283968Y1957064D02*
G01*
X4252474Y1957064D01*
X4306034Y1957046D02*
G01*
X4337529Y1957046D01*
X4283968Y2012957D02*
G01*
X4252474Y2012957D01*
X4306034Y2012937D02*
G01*
X4337529Y2012937D01*
X4240279Y1969261D02*
G01*
X4240279Y2000760D01*
X4349724Y2000738D02*
G01*
X4349724Y1969241D01*
D14*
X4713000Y3268499D02*
G01*
X4836999Y3268499D01*
X4711999Y3331500D02*
G01*
X4838000Y3331500D01*
X4762263Y3268499D02*
G01*
X4762411Y3331500D01*
X4713000Y3453499D02*
G01*
X4836999Y3453499D01*
X4711999Y3516500D02*
G01*
X4838000Y3516500D01*
X4762263Y3453499D02*
G01*
X4762411Y3516500D01*
X4713000Y3523499D02*
G01*
X4836999Y3523499D01*
X4711999Y3586500D02*
G01*
X4838000Y3586500D01*
X4762263Y3523499D02*
G01*
X4762411Y3586500D01*
D10*
X4448559Y1384243D02*
G01*
X4620757Y1384243D01*
X4620757Y1711653D01*
X4536652Y1795756D01*
X4448559Y1795756D01*
X4381440Y1384243D02*
G01*
X4209242Y1384243D01*
X4209242Y1711653D01*
X4293347Y1795756D01*
X4381440Y1795756D01*
X4603850Y2225200D02*
G01*
X4716149Y2225200D01*
X4603850Y2157788D02*
G01*
X4603850Y2362211D01*
X4613267Y2362474D01*
X4706283Y2362098D02*
G01*
X4715702Y2362361D01*
X4716149Y2157788D02*
G01*
X4716149Y2362211D01*
X2751008Y2516779D02*
G01*
X2751008Y2554531D01*
X2698991Y2554531D01*
X2698991Y2516779D01*
X2751008Y2483220D02*
G01*
X2751008Y2445468D01*
X2698991Y2445468D01*
X2698991Y2483220D01*
X2956008Y2506779D02*
G01*
X2956008Y2544531D01*
X2903991Y2544531D01*
X2903991Y2506779D01*
X2956008Y2473220D02*
G01*
X2956008Y2435468D01*
X2903991Y2435468D01*
X2903991Y2473220D01*
X2561779Y2328991D02*
G01*
X2599530Y2328991D01*
X2599530Y2381008D01*
X2561779Y2381008D01*
X2528220Y2328991D02*
G01*
X2490469Y2328991D01*
X2490469Y2381008D01*
X2528220Y2381008D01*
X2823220Y2631008D02*
G01*
X2785469Y2631008D01*
X2785469Y2578991D01*
X2823220Y2578991D01*
X2856779Y2631008D02*
G01*
X2894530Y2631008D01*
X2894530Y2578991D01*
X2856779Y2578991D01*
X3303991Y2478220D02*
G01*
X3303991Y2440468D01*
X3356008Y2440468D01*
X3356008Y2478220D01*
X3303991Y2511779D02*
G01*
X3303991Y2549531D01*
X3356008Y2549531D01*
X3356008Y2511779D01*
X3663220Y2396008D02*
G01*
X3625469Y2396008D01*
X3625469Y2343991D01*
X3663220Y2343991D01*
X3696779Y2396008D02*
G01*
X3734530Y2396008D01*
X3734530Y2343991D01*
X3696779Y2343991D01*
X4738220Y3641008D02*
G01*
X4700469Y3641008D01*
X4700469Y3588991D01*
X4738220Y3588991D01*
X4771779Y3641008D02*
G01*
X4809530Y3641008D01*
X4809530Y3588991D01*
X4771779Y3588991D01*
X4758220Y3446008D02*
G01*
X4720469Y3446008D01*
X4720469Y3393991D01*
X4758220Y3393991D01*
X4791779Y3446008D02*
G01*
X4829530Y3446008D01*
X4829530Y3393991D01*
X4791779Y3393991D01*
X4758220Y3391008D02*
G01*
X4720469Y3391008D01*
X4720469Y3338991D01*
X4758220Y3338991D01*
X4791779Y3391008D02*
G01*
X4829530Y3391008D01*
X4829530Y3338991D01*
X4791779Y3338991D01*
X2751008Y2401779D02*
G01*
X2751008Y2439531D01*
X2698991Y2439531D01*
X2698991Y2401779D01*
X2751008Y2368220D02*
G01*
X2751008Y2330468D01*
X2698991Y2330468D01*
X2698991Y2368220D01*
X3713220Y2991008D02*
G01*
X3675469Y2991008D01*
X3675469Y2938991D01*
X3713220Y2938991D01*
X3746779Y2991008D02*
G01*
X3784530Y2991008D01*
X3784530Y2938991D01*
X3746779Y2938991D01*
X3151779Y2763991D02*
G01*
X3189530Y2763991D01*
X3189530Y2816008D01*
X3151779Y2816008D01*
X3118220Y2763991D02*
G01*
X3080469Y2763991D01*
X3080469Y2816008D01*
X3118220Y2816008D01*
D13*
X4512047Y2430000D02*
G01*
X4512047Y2030000D01*
X4370000Y2430000D02*
G01*
X4370000Y2030000D01*
X4545000Y2030000D01*
X4545000Y2430000D01*
X4370000Y2430000D01*
D10*
X2470101Y2594457D02*
G01*
X2589898Y2594457D01*
X2589898Y2395542D01*
X2470101Y2395542D01*
X2470101Y2594457D01*
X3055101Y2599457D02*
G01*
X3174898Y2599457D01*
X3174898Y2400542D01*
X3055101Y2400542D01*
X3055101Y2599457D01*
X3450101Y2599457D02*
G01*
X3569898Y2599457D01*
X3569898Y2400542D01*
X3450101Y2400542D01*
X3450101Y2599457D01*
X4599898Y2761723D02*
G01*
X4480101Y2761723D01*
X4480101Y3108276D01*
X4599898Y3108276D01*
X4599898Y2761723D01*
X4579898Y3281723D02*
G01*
X4460102Y3281723D01*
X4460102Y3628276D01*
X4579898Y3628276D01*
X4579898Y3281723D01*
D11*
X4226599Y3268499D02*
G01*
X4246000Y3268499D01*
X4246000Y3520300D01*
X4225500Y3520300D01*
X3454724Y3365511D02*
G01*
X3454724Y3268975D01*
X3455001Y3520707D02*
G01*
X3455001Y3427892D01*
X3456968Y3268465D02*
G01*
X3473443Y3268465D01*
X3474539Y3520315D02*
G01*
X3457008Y3520315D01*
X3574539Y3520315D02*
G01*
X3525460Y3520315D01*
X3674539Y3520315D02*
G01*
X3625460Y3520315D01*
X3774539Y3520315D02*
G01*
X3725460Y3520315D01*
X3874539Y3520315D02*
G01*
X3825460Y3520315D01*
X3974539Y3520315D02*
G01*
X3925460Y3520315D01*
X4074539Y3520315D02*
G01*
X4025460Y3520315D01*
X4174539Y3520315D02*
G01*
X4125460Y3520315D01*
X4126556Y3268465D02*
G01*
X4173443Y3268465D01*
X4026556Y3268465D02*
G01*
X4073443Y3268465D01*
X3926556Y3268465D02*
G01*
X3973443Y3268465D01*
X3826556Y3268465D02*
G01*
X3873443Y3268465D01*
X3726556Y3268465D02*
G01*
X3773443Y3268465D01*
X3626556Y3268465D02*
G01*
X3673443Y3268465D01*
X3526556Y3268465D02*
G01*
X3573443Y3268465D01*
D17*
X1736459Y2029059D02*
G01*
X1618350Y2029059D01*
X1618350Y2410940D01*
X1736459Y2410940D01*
X1933310Y2029059D02*
G01*
X2110469Y2029059D01*
X2110469Y2062519D01*
X2110469Y2377480D02*
G01*
X2110469Y2410940D01*
X1933310Y2410940D01*
D18*
G75*
G01*
X4847402Y2945000D02*
G03*
X4847401Y2944804I-37401J93D01*
G75*
G01*
X2692402Y2230000D02*
G03*
X2692401Y2229804I-37401J93D01*
G75*
G01*
X4357402Y3630000D02*
G03*
X4357401Y3629804I-37401J93D01*
G75*
G01*
X4622402Y2670000D02*
G03*
X4622401Y2669804I-37401J93D01*
G75*
G01*
X5007402Y2880000D02*
G03*
X5007401Y2879804I-37401J93D01*
G75*
G01*
X3867402Y1910000D02*
G03*
X3867401Y1909804I-37401J93D01*
G75*
G01*
X2312402Y2850000D02*
G03*
X2312401Y2849804I-37401J93D01*
G75*
G01*
X3837402Y3675000D02*
G03*
X3837401Y3674804I-37401J93D01*
G75*
G01*
X3737402Y2635000D02*
G03*
X3737401Y2634804I-37401J93D01*
G75*
G01*
X4067402Y2365000D02*
G03*
X4067401Y2364804I-37401J93D01*
G75*
G01*
X2687402Y2130000D02*
G03*
X2687401Y2129804I-37401J93D01*
G75*
G01*
X3492402Y2070000D02*
G03*
X3492401Y2069804I-37401J93D01*
G75*
G01*
X4912402Y1835000D02*
G03*
X4912401Y1834804I-37401J93D01*
G75*
G01*
X3197402Y2170000D02*
G03*
X3197401Y2169804I-37401J93D01*
G75*
G01*
X2682402Y2820000D02*
G03*
X2682401Y2819804I-37401J93D01*
D13*
G75*
G01*
X3811395Y2598425D02*
G03*
X3868594Y2598232I28605J1567D01*
G75*
G01*
X3772062Y3162527D02*
G02*
X3784261Y3174725I12198J0D01*
G75*
G01*
X3815756Y3174725D02*
G02*
X3827954Y3162527I0J-12198D01*
G75*
G01*
X3827936Y3077476D02*
G02*
X3815738Y3065279I-12198J1D01*
G75*
G01*
X3784243Y3065279D02*
G02*
X3772043Y3077476I-2J12198D01*
G75*
G01*
X2442527Y2392938D02*
G02*
X2454725Y2380739I0J-12198D01*
G75*
G01*
X2454725Y2349244D02*
G02*
X2442527Y2337046I-12198J0D01*
G75*
G01*
X2357476Y2337064D02*
G02*
X2345279Y2349262I1J12198D01*
G75*
G01*
X2345279Y2380757D02*
G02*
X2357476Y2392957I12198J2D01*
G75*
G01*
X2992473Y2337062D02*
G02*
X2980275Y2349261I0J12198D01*
G75*
G01*
X2980275Y2380756D02*
G02*
X2992473Y2392954I12198J0D01*
G75*
G01*
X3077524Y2392936D02*
G02*
X3089721Y2380738I-1J-12198D01*
G75*
G01*
X3089721Y2349243D02*
G02*
X3077524Y2337043I-12198J-2D01*
G75*
G01*
X3422527Y2392938D02*
G02*
X3434725Y2380739I0J-12198D01*
G75*
G01*
X3434725Y2349244D02*
G02*
X3422527Y2337046I-12198J0D01*
G75*
G01*
X3337476Y2337064D02*
G02*
X3325279Y2349262I1J12198D01*
G75*
G01*
X3325279Y2380757D02*
G02*
X3337476Y2392957I12198J2D01*
D16*
G75*
G01*
X2879713Y2656867D02*
G03*
X2879244Y2658707I17414J5419D01*
G75*
G01*
X3154713Y2856867D02*
G03*
X3154244Y2858707I17414J5419D01*
G75*
G01*
X3581867Y3060287D02*
G03*
X3583707Y3060756I5419J-17414D01*
D13*
G75*
G01*
X2817527Y1992938D02*
G02*
X2829725Y1980739I0J-12198D01*
G75*
G01*
X2829725Y1949244D02*
G02*
X2817527Y1937046I-12198J0D01*
G75*
G01*
X2732476Y1937064D02*
G02*
X2720279Y1949262I1J12198D01*
G75*
G01*
X2720279Y1980757D02*
G02*
X2732476Y1992957I12198J2D01*
G75*
G01*
X3232473Y1937062D02*
G02*
X3220275Y1949261I0J12198D01*
G75*
G01*
X3220275Y1980756D02*
G02*
X3232473Y1992954I12198J0D01*
G75*
G01*
X3317524Y1992936D02*
G02*
X3329721Y1980738I-1J-12198D01*
G75*
G01*
X3329721Y1949243D02*
G02*
X3317524Y1937043I-12198J-2D01*
G75*
G01*
X2972062Y1356527D02*
G02*
X2984261Y1368725I12198J0D01*
G75*
G01*
X3015756Y1368725D02*
G02*
X3027954Y1356527I0J-12198D01*
G75*
G01*
X3027936Y1271476D02*
G02*
X3015738Y1259279I-12198J1D01*
G75*
G01*
X2984243Y1259279D02*
G02*
X2972043Y1271476I-2J12198D01*
G75*
G01*
X3038062Y1356527D02*
G02*
X3050261Y1368725I12198J0D01*
G75*
G01*
X3081756Y1368725D02*
G02*
X3093954Y1356527I0J-12198D01*
G75*
G01*
X3093936Y1271476D02*
G02*
X3081738Y1259279I-12198J1D01*
G75*
G01*
X3050243Y1259279D02*
G02*
X3038043Y1271476I-2J12198D01*
G75*
G01*
X3231128Y1842412D02*
G02*
X3218930Y1854611I0J12198D01*
G75*
G01*
X3218930Y1886106D02*
G02*
X3231128Y1898304I12198J0D01*
G75*
G01*
X3316179Y1898286D02*
G02*
X3328376Y1886088I-1J-12198D01*
G75*
G01*
X3328376Y1854593D02*
G02*
X3316179Y1842393I-12198J-2D01*
G75*
G01*
X3232473Y1777062D02*
G02*
X3220275Y1789261I0J12198D01*
G75*
G01*
X3220275Y1820756D02*
G02*
X3232473Y1832954I12198J0D01*
G75*
G01*
X3317524Y1832936D02*
G02*
X3329721Y1820738I-1J-12198D01*
G75*
G01*
X3329721Y1789243D02*
G02*
X3317524Y1777043I-12198J-2D01*
G75*
G01*
X3522527Y1372938D02*
G02*
X3534725Y1360739I0J-12198D01*
G75*
G01*
X3534725Y1329244D02*
G02*
X3522527Y1317046I-12198J0D01*
G75*
G01*
X3437476Y1317064D02*
G02*
X3425279Y1329262I1J12198D01*
G75*
G01*
X3425279Y1360757D02*
G02*
X3437476Y1372957I12198J2D01*
G75*
G01*
X2567473Y2602062D02*
G02*
X2555275Y2614261I0J12198D01*
G75*
G01*
X2555275Y2645756D02*
G02*
X2567473Y2657954I12198J0D01*
G75*
G01*
X2652524Y2657936D02*
G02*
X2664721Y2645738I-1J-12198D01*
G75*
G01*
X2664721Y2614243D02*
G02*
X2652524Y2602043I-12198J-2D01*
G75*
G01*
X3157473Y2607062D02*
G02*
X3145275Y2619261I0J12198D01*
G75*
G01*
X3145275Y2650756D02*
G02*
X3157473Y2662954I12198J0D01*
G75*
G01*
X3242524Y2662936D02*
G02*
X3254721Y2650738I-1J-12198D01*
G75*
G01*
X3254721Y2619243D02*
G02*
X3242524Y2607043I-12198J-2D01*
G75*
G01*
X3512473Y2607062D02*
G02*
X3500275Y2619261I0J12198D01*
G75*
G01*
X3500275Y2650756D02*
G02*
X3512473Y2662954I12198J0D01*
G75*
G01*
X3597524Y2662936D02*
G02*
X3609721Y2650738I-1J-12198D01*
G75*
G01*
X3609721Y2619243D02*
G02*
X3597524Y2607043I-12198J-2D01*
G75*
G01*
X3092473Y2697062D02*
G02*
X3080275Y2709261I0J12198D01*
G75*
G01*
X3080275Y2740756D02*
G02*
X3092473Y2752954I12198J0D01*
G75*
G01*
X3177524Y2752936D02*
G02*
X3189721Y2740738I-1J-12198D01*
G75*
G01*
X3189721Y2709243D02*
G02*
X3177524Y2697043I-12198J-2D01*
G75*
G01*
X3877473Y2612062D02*
G02*
X3865275Y2624261I0J12198D01*
G75*
G01*
X3865275Y2655756D02*
G02*
X3877473Y2667954I12198J0D01*
G75*
G01*
X3962524Y2667936D02*
G02*
X3974721Y2655738I-1J-12198D01*
G75*
G01*
X3974721Y2624243D02*
G02*
X3962524Y2612043I-12198J-2D01*
G75*
G01*
X3912473Y3117062D02*
G02*
X3900275Y3129261I0J12198D01*
G75*
G01*
X3900275Y3160756D02*
G02*
X3912473Y3172954I12198J0D01*
G75*
G01*
X3997524Y3172936D02*
G02*
X4009721Y3160738I-1J-12198D01*
G75*
G01*
X4009721Y3129243D02*
G02*
X3997524Y3117043I-12198J-2D01*
G75*
G01*
X4337527Y2082938D02*
G02*
X4349725Y2070739I0J-12198D01*
G75*
G01*
X4349725Y2039244D02*
G02*
X4337527Y2027046I-12198J0D01*
G75*
G01*
X4252476Y2027064D02*
G02*
X4240279Y2039262I1J12198D01*
G75*
G01*
X4240279Y2070757D02*
G02*
X4252476Y2082957I12198J2D01*
G75*
G01*
X4337527Y2012938D02*
G02*
X4349725Y2000739I0J-12198D01*
G75*
G01*
X4349725Y1969244D02*
G02*
X4337527Y1957046I-12198J0D01*
G75*
G01*
X4252476Y1957064D02*
G02*
X4240279Y1969262I1J12198D01*
G75*
G01*
X4240279Y2000757D02*
G02*
X4252476Y2012957I12198J2D01*
D19*
G75*
G01*
X4343000Y2339000D02*
G03*
X4343000Y2338900I-7874J-50D01*
D10*
G75*
G01*
X3456733Y3365000D02*
G03*
X3456733Y3427500I0J31250D01*
D20*
G75*
G01*
X2157720Y2117640D02*
G02*
X2157720Y2125510I198J3935D01*
G75*
G01*
X2157720Y2125510D02*
G02*
X2157720Y2117640I-198J-3935D01*
D21*
G75*
G01
X3805910Y2570000D02*
G03X3805910Y2570000I-5910J0D01*
G75*
G01
X3048270Y1765010D02*
G03X3048270Y1765010I-5910J0D01*
G75*
G01
X3238270Y1765010D02*
G03X3238270Y1765010I-5910J0D01*
D19*
G75*
G01
X2754210Y2780000D02*
G03X2754210Y2780000I-7870J0D01*
G75*
G01
X3029210Y2980000D02*
G03X3029210Y2980000I-7870J0D01*
G75*
G01
X3712870Y3193660D02*
G03X3712870Y3193660I-7870J0D01*
D21*
G75*
G01
X2505630Y2570000D02*
G03X2505630Y2570000I-5910J0D01*
G75*
G01
X2426760Y2599390D02*
G03X2426760Y2599390I-5910J0D01*
G75*
G01
X3090630Y2575000D02*
G03X3090630Y2575000I-5910J0D01*
G75*
G01
X3011760Y2604390D02*
G03X3011760Y2604390I-5910J0D01*
G75*
G01
X3485630Y2575000D02*
G03X3485630Y2575000I-5910J0D01*
G75*
G01
X3406760Y2604390D02*
G03X3406760Y2604390I-5910J0D01*
G75*
G01
X4576190Y2785000D02*
G03X4576190Y2785000I-5910J0D01*
G75*
G01
X4653540Y2755480D02*
G03X4653540Y2755480I-5910J0D01*
G75*
G01
X4556190Y3305000D02*
G03X4556190Y3305000I-5910J0D01*
G75*
G01
X4634930Y3275890D02*
G03X4634930Y3275890I-5910J0D01*
G75*
G01
X3451970Y3236730D02*
G03X3451970Y3236730I-5910J0D01*
M02*
