G04 Layer: InnerLayer2*
G04 EasyEDA v6.5.51, 2025-11-08 23:49:31*
G04 24b077a0fc1f4b80a491af6b48e99bdb,10*
G04 Gerber Generator version 0.2*
G04 Scale: 100 percent, Rotated: No, Reflected: No *
G04 Dimensions in inches *
G04 leading zeros omitted , absolute positions ,3 integer and 6 decimal *
%FSLAX36Y36*%
%MOIN*%

%AMMACRO1*21,1,$1,$2,0,0,$3*%
%ADD10C,0.0200*%
%ADD11C,0.0400*%
%ADD12C,0.1968*%
%ADD13C,0.0630*%
%ADD14R,0.0630X0.0630*%
%ADD15R,0.0110X0.0630*%
%ADD16O,0.059055X0.07874*%
%ADD17R,0.0591X0.0787*%
%ADD18C,0.0787*%
%ADD19MACRO1,0.0788X0.0984X-90.0000*%
%ADD20O,0.098425X0.07874*%
%ADD21C,0.0709*%
%ADD22C,0.1756*%
%ADD23C,0.0244*%

%LPD*%
D10*
X2925000Y2025000D02*
G01*
X2380000Y2025000D01*
X2285000Y2120000D01*
X2285000Y2680000D01*
X2305000Y2700000D01*
X4035000Y2700000D01*
X4290000Y2955000D01*
X4290000Y2990000D01*
X4270000Y3010000D01*
X3850000Y3010000D01*
X3820000Y3040000D01*
X3820000Y3045000D01*
X2650100Y2025000D02*
G01*
X2650000Y2060000D01*
X3320000Y2160000D02*
G01*
X3330000Y2160000D01*
X3380000Y2110000D01*
D11*
X4530000Y1940000D02*
G01*
X4975000Y1940000D01*
X5040000Y2005000D01*
X5040000Y2455000D01*
D10*
X3650000Y2825000D02*
G01*
X3620000Y2855000D01*
X3653136Y2700000D02*
G01*
X3650000Y2703137D01*
X3650000Y2855000D01*
X2656535Y2700000D02*
G01*
X2655000Y2698463D01*
X2655000Y2675000D01*
X2623999Y2700000D02*
G01*
X2625000Y2675000D01*
X4270000Y3010000D02*
G01*
X4520000Y3260000D01*
X4520000Y3610000D01*
X4515000Y3605000D01*
X4490000Y3605000D01*
X4520000Y3572689D02*
G01*
X4517689Y3575000D01*
X4490000Y3575000D01*
X3996457Y2700000D02*
G01*
X4000000Y2696457D01*
X4000000Y2645000D01*
X3655000Y2670000D02*
G01*
X3625000Y2670000D01*
X3625799Y2700000D02*
G01*
X3625000Y2670000D01*
X3653136Y2700000D02*
G01*
X3655000Y2698137D01*
X3655000Y2670000D01*
X3270000Y2660000D02*
G01*
X3270000Y2630000D01*
X3270100Y2700000D02*
G01*
X3270000Y2660000D01*
X2210000Y2120000D02*
G01*
X2210000Y2080000D01*
X2285000Y2120000D02*
G01*
X2210000Y2120000D01*
X4175726Y2840727D02*
G01*
X4221454Y2795000D01*
X4370000Y2795000D01*
X3185000Y2025000D02*
G01*
X3320000Y2160000D01*
X3440000Y2160000D01*
X3530000Y2250000D01*
X3530000Y2265000D01*
X3515000Y2280000D01*
X2455000Y2280000D01*
X2425000Y2310000D01*
D11*
X5040000Y2455000D02*
G01*
X5040000Y2505000D01*
X4630000Y2040000D02*
G01*
X4680000Y2090000D01*
X4680000Y2110000D01*
X4415000Y1875000D02*
G01*
X4480000Y1940000D01*
X4530000Y1940000D01*
X4630000Y2040000D01*
X4630000Y2110000D01*
X4800000Y1700000D02*
G01*
X4735000Y1765000D01*
X4475000Y1765000D01*
X4325000Y1930000D02*
G01*
X4370000Y1930000D01*
X4415000Y1875000D02*
G01*
X4370000Y1920000D01*
X4370000Y1930000D01*
X4475000Y1765000D02*
G01*
X4475000Y1710000D01*
D10*
X4370000Y2795000D02*
G01*
X4370000Y2765000D01*
X3780000Y3045000D02*
G01*
X3820000Y3045000D01*
X3459399Y2280000D02*
G01*
X3460000Y2360000D01*
X2959700Y2280000D02*
G01*
X2960000Y2360000D01*
X3115000Y2025000D02*
G01*
X3185000Y2025000D01*
X2985000Y2025000D02*
G01*
X2925000Y2025000D01*
D12*
G01*
X2250000Y1605000D03*
G01*
X1845000Y3165000D03*
G01*
X3955000Y1405000D03*
G01*
X3105000Y3545000D03*
G01*
X4915000Y3780000D03*
D13*
G01*
X3135000Y1425000D03*
G01*
X3035000Y1425000D03*
G01*
X3235000Y1425000D03*
D14*
G01*
X3535000Y1425000D03*
D13*
G01*
X3435000Y1425000D03*
D16*
G01*
X2954960Y1865010D03*
G01*
X2954960Y1965010D03*
D17*
G01*
X2954949Y1765010D03*
D16*
G01*
X3144960Y1865010D03*
G01*
X3144960Y1965010D03*
D17*
G01*
X3144949Y1765010D03*
D18*
G01*
X4870010Y1481570D03*
G01*
X4870010Y1678420D03*
D19*
G01*
X4440000Y2330000D03*
D20*
G01*
X4440000Y2130000D03*
G01*
X4440000Y2230000D03*
D21*
G01*
X2110469Y2121579D03*
G01*
X2110469Y2220000D03*
G01*
X2110469Y2318420D03*
D22*
G01*
X1834880Y2046770D03*
G01*
X1834880Y2393229D03*
D23*
G01*
X3350000Y1950000D03*
G01*
X3350000Y1855000D03*
G01*
X3350000Y1780000D03*
G01*
X2815000Y1885000D03*
G01*
X2815000Y1835000D03*
G01*
X2925000Y2025000D03*
G01*
X2985000Y2025000D03*
G01*
X3115000Y2025000D03*
G01*
X3185000Y2025000D03*
G01*
X3220000Y2855000D03*
G01*
X3280000Y2395000D03*
G01*
X2700000Y2575000D03*
G01*
X2740000Y2760000D03*
G01*
X3020000Y2955000D03*
G01*
X3545000Y3185000D03*
G01*
X3795000Y2625000D03*
G01*
X3460000Y2360000D03*
G01*
X2960000Y2360000D03*
G01*
X2425000Y2310000D03*
G01*
X2210000Y2120000D03*
G01*
X2210000Y2080000D03*
G01*
X3470000Y2475000D03*
G01*
X3070000Y2490000D03*
G01*
X3360000Y2315000D03*
G01*
X3330000Y2315000D03*
G01*
X3305000Y2335000D03*
G01*
X3100000Y2320000D03*
G01*
X3115000Y2345000D03*
G01*
X3115000Y2375000D03*
G01*
X2325000Y2380000D03*
G01*
X2325000Y2350000D03*
G01*
X2335000Y2320000D03*
G01*
X4870000Y1545000D03*
G01*
X4870000Y1415000D03*
G01*
X4805000Y1480000D03*
G01*
X4935000Y1480000D03*
G01*
X4475000Y1460000D03*
G01*
X4475000Y1400000D03*
G01*
X4475000Y1345000D03*
G01*
X4355000Y1345000D03*
G01*
X4355000Y1400000D03*
G01*
X4355000Y1460000D03*
G01*
X4415000Y1525000D03*
G01*
X4415000Y1300000D03*
G01*
X3400000Y1455000D03*
G01*
X3390000Y1420000D03*
G01*
X3405000Y1390000D03*
G01*
X3405000Y1345000D03*
G01*
X3135000Y1380000D03*
G01*
X3170000Y1395000D03*
G01*
X3115000Y1270000D03*
G01*
X2960000Y1245000D03*
G01*
X3035000Y1245000D03*
G01*
X3115000Y1305000D03*
G01*
X4220000Y2150000D03*
G01*
X4220000Y2120000D03*
G01*
X4220000Y2090000D03*
G01*
X4220000Y2060000D03*
G01*
X4220000Y2030000D03*
G01*
X4220000Y2000000D03*
G01*
X4220000Y1970000D03*
G01*
X4765000Y2335000D03*
G01*
X4950000Y2335000D03*
G01*
X4875000Y3505000D03*
G01*
X4875000Y3465000D03*
G01*
X4875000Y3320000D03*
G01*
X4875000Y3285000D03*
G01*
X4630000Y3115000D03*
G01*
X4675000Y3115000D03*
G01*
X4080000Y3050000D03*
G01*
X4115000Y3050000D03*
G01*
X3450000Y3190000D03*
G01*
X3495000Y3185000D03*
G01*
X3835000Y2920000D03*
G01*
X3835000Y2885000D03*
G01*
X4250000Y3655000D03*
G01*
X4250000Y3620000D03*
G01*
X3780000Y3045000D03*
G01*
X3820000Y3045000D03*
G01*
X4370000Y2795000D03*
G01*
X4370000Y2765000D03*
G01*
X2130000Y2365000D03*
G01*
X2155000Y2345000D03*
G01*
X2160000Y2315000D03*
G01*
X3470000Y2445000D03*
G01*
X3070000Y2455000D03*
G01*
X3165000Y2425000D03*
G01*
X3165000Y2455000D03*
G01*
X4800000Y1700000D03*
G01*
X4800000Y1660000D03*
G01*
X4475000Y1765000D03*
G01*
X4475000Y1710000D03*
G01*
X4325000Y1930000D03*
G01*
X4370000Y1930000D03*
G01*
X4630000Y2110000D03*
G01*
X4680000Y2110000D03*
G01*
X4415000Y1875000D03*
G01*
X5040000Y2505000D03*
G01*
X5040000Y2455000D03*
G01*
X4355000Y3480000D03*
G01*
X4355000Y3445000D03*
G01*
X4355000Y3410000D03*
G01*
X4355000Y3375000D03*
G01*
X4820000Y3655000D03*
G01*
X4825000Y3615000D03*
G01*
X4785000Y3655000D03*
G01*
X4300000Y3545000D03*
G01*
X4300000Y3505000D03*
G01*
X2670000Y2365000D03*
G01*
X2670000Y2335000D03*
G01*
X3555000Y2440000D03*
G01*
X3555000Y2410000D03*
G01*
X3800000Y2445000D03*
G01*
X3800000Y2415000D03*
G01*
X3625000Y2670000D03*
G01*
X3490000Y2670000D03*
G01*
X3480000Y2640000D03*
G01*
X3125000Y2650000D03*
G01*
X3125000Y2620000D03*
G01*
X3655000Y2670000D03*
G01*
X3270000Y2660000D03*
G01*
X3270000Y2630000D03*
G01*
X4000000Y2675000D03*
G01*
X4000000Y2645000D03*
G01*
X3845000Y2665000D03*
G01*
X3845000Y2630000D03*
G01*
X4820000Y2335000D03*
G01*
X4885000Y2335000D03*
G01*
X4490000Y3605000D03*
G01*
X4490000Y3575000D03*
G01*
X2625000Y2675000D03*
G01*
X2655000Y2675000D03*
G01*
X2530000Y2660000D03*
G01*
X2530000Y2620000D03*
G01*
X3620000Y2855000D03*
G01*
X3650000Y2855000D03*
G01*
X3350000Y1890000D03*
G01*
X3350000Y1815000D03*
G01*
X3350000Y1985000D03*
G01*
X3805000Y2985000D03*
G01*
X3805000Y2950000D03*
G01*
X3380000Y2110000D03*
G01*
X2650000Y2060000D03*
G01*
X3755000Y2605000D03*
G01*
X3885000Y1910000D03*
G01*
X3775000Y1910000D03*
G01*
X3830000Y1855000D03*
G01*
X3830000Y1965000D03*
G01*
X3855000Y3675000D03*
G01*
X3740000Y3675000D03*
G01*
X3800000Y3620000D03*
G01*
X3800000Y3730000D03*
G01*
X2220000Y2850000D03*
G01*
X2330000Y2850000D03*
G01*
X2275000Y2795000D03*
G01*
X2275000Y2905000D03*
G01*
X3870000Y3605000D03*
G01*
X3925000Y3605000D03*
G01*
X3115000Y1695000D03*
G01*
X3150000Y1695000D03*
G01*
X3180000Y1695000D03*
G01*
X2725000Y1915000D03*
G01*
X2760000Y1915000D03*
M02*
