G04 Layer: TopLayer*
G04 EasyEDA v6.5.51, 2025-11-08 23:49:31*
G04 24b077a0fc1f4b80a491af6b48e99bdb,10*
G04 Gerber Generator version 0.2*
G04 Scale: 100 percent, Rotated: No, Reflected: No *
G04 Dimensions in inches *
G04 leading zeros omitted , absolute positions ,3 integer and 6 decimal *
%FSLAX36Y36*%
%MOIN*%

%AMMACRO1*21,1,$1,$2,0,0,$3*%
%ADD10C,0.0200*%
%ADD11C,0.0100*%
%ADD12C,0.0250*%
%ADD13C,0.0394*%
%ADD14C,0.0400*%
%ADD15C,0.0116*%
%ADD16C,0.0300*%
%ADD17C,0.0591*%
%ADD18MACRO1,0.034X0.0318X90.0000*%
%ADD19O,0.07678X0.022378*%
%ADD20MACRO1,0.034X0.0318X0.0000*%
%ADD21R,0.0340X0.0318*%
%ADD22R,0.0354X0.0315*%
%ADD23R,0.0591X0.0535*%
%ADD24MACRO1,0.034X0.0318X-90.0000*%
%ADD25R,0.0315X0.0354*%
%ADD26R,0.0630X0.0512*%
%ADD27R,0.0630X0.0787*%
%ADD28R,0.0512X0.0630*%
%ADD29R,0.0787X0.0630*%
%ADD30R,0.2362X0.0433*%
%ADD31R,0.0650X0.1772*%
%ADD32R,0.0787X0.0787*%
%ADD33O,0.080512X0.02315*%
%ADD34O,0.077461X0.023425*%
%ADD35O,0.080236X0.022598*%
%ADD36O,0.056693X0.070866*%
%ADD37C,0.1968*%
%ADD38C,0.0630*%
%ADD39R,0.0630X0.0630*%
%ADD40O,0.059055X0.07874*%
%ADD41R,0.0591X0.0787*%
%ADD42C,0.0787*%
%ADD43MACRO1,0.0788X0.0984X-90.0000*%
%ADD44O,0.098425X0.07874*%
%ADD45C,0.0709*%
%ADD46C,0.1756*%
%ADD47C,0.0244*%

%LPD*%
G36*
X4206660Y1940000D02*
G01*
X4205120Y1940300D01*
X4203820Y1941180D01*
X4201180Y1943820D01*
X4200300Y1945120D01*
X4200000Y1946660D01*
X4200000Y2171000D01*
X4200300Y2172540D01*
X4201180Y2173820D01*
X4202460Y2174700D01*
X4204000Y2175000D01*
X4286000Y2175000D01*
X4287540Y2174700D01*
X4288820Y2173820D01*
X4289700Y2172540D01*
X4290000Y2171000D01*
X4290000Y1945400D01*
X4290120Y1944780D01*
X4290080Y1943020D01*
X4289300Y1941459D01*
X4287900Y1940380D01*
X4286200Y1940000D01*
G37*

%LPD*%
G36*
X2799000Y1815000D02*
G01*
X2797460Y1815300D01*
X2796180Y1816180D01*
X2795299Y1817460D01*
X2795000Y1819000D01*
X2795000Y1911000D01*
X2795299Y1912540D01*
X2796180Y1913820D01*
X2797460Y1914700D01*
X2799000Y1915000D01*
X3001000Y1915000D01*
X3002540Y1914700D01*
X3003820Y1913820D01*
X3004700Y1912540D01*
X3005000Y1911000D01*
X3005000Y1819000D01*
X3004700Y1817460D01*
X3003820Y1816180D01*
X3002540Y1815300D01*
X3001000Y1815000D01*
G37*

%LPD*%
G36*
X3279780Y1749880D02*
G01*
X3278020Y1749920D01*
X3276460Y1750700D01*
X3275380Y1752100D01*
X3275000Y1753800D01*
X3275000Y1792880D01*
X3275220Y1794199D01*
X3276300Y1797280D01*
X3277120Y1801680D01*
X3277300Y1806140D01*
X3276780Y1810580D01*
X3276120Y1813080D01*
X3275980Y1814120D01*
X3275980Y1870200D01*
X3275640Y1874800D01*
X3275100Y1877140D01*
X3275000Y1878040D01*
X3275000Y2031000D01*
X3275299Y2032540D01*
X3276180Y2033820D01*
X3277460Y2034700D01*
X3279000Y2035000D01*
X3396000Y2035000D01*
X3397540Y2034700D01*
X3398820Y2033820D01*
X3399700Y2032540D01*
X3400000Y2031000D01*
X3400000Y1754000D01*
X3399700Y1752460D01*
X3398820Y1751180D01*
X3397540Y1750300D01*
X3396000Y1750000D01*
X3280400Y1750000D01*
G37*

%LPD*%
G36*
X3094000Y1675000D02*
G01*
X3092460Y1675300D01*
X3091180Y1676180D01*
X3090299Y1677460D01*
X3090000Y1679000D01*
X3090000Y1811000D01*
X3090299Y1812540D01*
X3091180Y1813820D01*
X3092460Y1814700D01*
X3094000Y1815000D01*
X3196000Y1815000D01*
X3197540Y1814700D01*
X3198820Y1813820D01*
X3199700Y1812540D01*
X3200000Y1811000D01*
X3200000Y1679000D01*
X3199700Y1677460D01*
X3198820Y1676180D01*
X3197540Y1675300D01*
X3196000Y1675000D01*
G37*

%LPD*%
G36*
X3364000Y1300000D02*
G01*
X3362460Y1300300D01*
X3361180Y1301180D01*
X3360299Y1302460D01*
X3360000Y1304000D01*
X3360000Y1476000D01*
X3360299Y1477540D01*
X3361180Y1478820D01*
X3362460Y1479700D01*
X3364000Y1480000D01*
X3476000Y1480000D01*
X3477540Y1479700D01*
X3478820Y1478820D01*
X3479700Y1477540D01*
X3480000Y1476000D01*
X3480000Y1304000D01*
X3479700Y1302460D01*
X3478820Y1301180D01*
X3477540Y1300300D01*
X3476000Y1300000D01*
G37*

%LPD*%
G36*
X4304000Y1260000D02*
G01*
X4302460Y1260300D01*
X4301180Y1261180D01*
X4300300Y1262460D01*
X4300000Y1264000D01*
X4300000Y1596000D01*
X4300300Y1597540D01*
X4301180Y1598820D01*
X4302460Y1599700D01*
X4304000Y1600000D01*
X5016000Y1600000D01*
X5017540Y1599700D01*
X5018820Y1598820D01*
X5019700Y1597540D01*
X5020000Y1596000D01*
X5020000Y1264000D01*
X5019700Y1262460D01*
X5018820Y1261180D01*
X5017540Y1260300D01*
X5016000Y1260000D01*
G37*

%LPD*%
G36*
X2946660Y1230000D02*
G01*
X2945120Y1230300D01*
X2943820Y1231180D01*
X2941180Y1233820D01*
X2940299Y1235120D01*
X2940000Y1236660D01*
X2940000Y1311000D01*
X2940299Y1312540D01*
X2941180Y1313820D01*
X2942460Y1314700D01*
X2944000Y1315000D01*
X2985360Y1315000D01*
X2986960Y1314660D01*
X2989080Y1313740D01*
X2991200Y1313000D01*
X2993360Y1312420D01*
X2995539Y1312020D01*
X2997760Y1311759D01*
X3000080Y1311680D01*
X3065860Y1311680D01*
X3070460Y1312020D01*
X3074800Y1313020D01*
X3079160Y1314720D01*
X3080620Y1315000D01*
X3099600Y1315000D01*
X3100000Y1315400D01*
X3100000Y1471000D01*
X3100299Y1472540D01*
X3101180Y1473820D01*
X3102460Y1474700D01*
X3104000Y1475000D01*
X3181000Y1475000D01*
X3182540Y1474700D01*
X3183820Y1473820D01*
X3184700Y1472540D01*
X3185000Y1471000D01*
X3185000Y1234000D01*
X3184700Y1232460D01*
X3183820Y1231180D01*
X3182540Y1230300D01*
X3181000Y1230000D01*
G37*

%LPD*%
D10*
X2725000Y1915000D02*
G01*
X2747439Y1937440D01*
X2747439Y1965000D01*
X2760000Y1915000D02*
G01*
X2747439Y1927559D01*
X2747439Y1965000D01*
D11*
X4725339Y3615000D02*
G01*
X4695339Y3645000D01*
X4580000Y3645000D01*
X4550000Y3615000D01*
X4550000Y3545000D01*
X4510000Y3505000D01*
X4410980Y3505000D01*
D10*
X3900000Y3551300D02*
G01*
X3900000Y3580000D01*
X3925000Y3605000D01*
X3900000Y3551300D02*
G01*
X3900000Y3575000D01*
X3870000Y3605000D01*
X3855000Y3675000D02*
G01*
X3800000Y3675000D01*
X3800000Y3620000D02*
G01*
X3800000Y3675000D01*
X3740000Y3675000D02*
G01*
X3800000Y3675000D01*
X3800000Y3730000D02*
G01*
X3800000Y3675000D01*
X2275000Y2850000D02*
G01*
X2220000Y2850000D01*
X2275000Y2850000D02*
G01*
X2275000Y2795000D01*
X2275000Y2850000D02*
G01*
X2330000Y2850000D01*
X2275000Y2850000D02*
G01*
X2275000Y2905000D01*
D11*
X4300000Y3545000D02*
G01*
X4300000Y3610000D01*
X4320000Y3630000D01*
D10*
X3775000Y1910000D02*
G01*
X3830000Y1910000D01*
X3830000Y1855000D02*
G01*
X3830000Y1910000D01*
X3830000Y1910000D02*
G01*
X3885000Y1910000D01*
X3830000Y1965000D02*
G01*
X3830000Y1910000D01*
D11*
X4860000Y2675000D02*
G01*
X4980000Y2675000D01*
X5005000Y2720000D01*
X5005000Y2810000D01*
X4970000Y2880000D01*
X4647629Y2672370D02*
G01*
X4587370Y2672370D01*
X4585000Y2670000D01*
X4730000Y2946840D02*
G01*
X4808159Y2946840D01*
X4810000Y2945000D01*
D10*
X2670000Y2335000D02*
G01*
X2670000Y2245000D01*
X2655000Y2230000D01*
X3733500Y2575000D02*
G01*
X3733500Y2583499D01*
X3755000Y2605000D01*
D11*
X3733500Y2525000D02*
G01*
X3715000Y2525000D01*
X3680000Y2560000D01*
X3680000Y2615000D01*
X3700000Y2635000D01*
X2740000Y2760000D02*
G01*
X2705000Y2760000D01*
X2645000Y2820000D01*
D10*
X2650000Y2060000D02*
G01*
X2650000Y2130000D01*
X3380000Y2110000D02*
G01*
X3415000Y2110000D01*
X3455000Y2070000D01*
D11*
X3165000Y2230000D02*
G01*
X3165000Y2175000D01*
X3160000Y2170000D01*
X4030000Y2525340D02*
G01*
X4030000Y2365000D01*
X2420850Y2570000D02*
G01*
X2420850Y2520000D01*
D12*
X3115000Y2025000D02*
G01*
X3185000Y2025000D01*
X2985000Y2025000D02*
G01*
X2925000Y2025000D01*
X2954961Y1965007D02*
G01*
X2985000Y1995046D01*
X2985000Y2025000D01*
X2802559Y1965000D02*
G01*
X2954961Y1965007D01*
X3035000Y1425000D02*
G01*
X2954951Y1505048D01*
X2954951Y1765007D01*
X3246094Y1870349D02*
G01*
X3240752Y1865007D01*
X3144961Y1865007D01*
X3235000Y1425000D02*
G01*
X3247440Y1437440D01*
X3247440Y1805000D01*
D13*
X3247440Y1805000D02*
G01*
X3246094Y1806345D01*
X3246094Y1870349D01*
X3035000Y1425000D02*
G01*
X3000000Y1390000D01*
X3000000Y1341559D01*
X3000000Y1341559D02*
G01*
X3066000Y1341559D01*
D12*
X3247440Y1965000D02*
G01*
X3144961Y1965007D01*
X3144961Y1965007D02*
G01*
X3115000Y1994971D01*
X3115000Y2025000D01*
D14*
X4660000Y2173379D02*
G01*
X4661620Y2175000D01*
X4860000Y2175000D01*
X4660000Y2346621D02*
G01*
X4731620Y2275000D01*
X4860000Y2275000D01*
X4440000Y2230000D02*
G01*
X4543379Y2230000D01*
X4660000Y2346621D01*
D12*
X4324657Y2125000D02*
G01*
X4329657Y2130000D01*
X4440000Y2130000D01*
D13*
X4334660Y2330000D02*
G01*
X4440000Y2330000D01*
D11*
X3605790Y3142089D02*
G01*
X3655000Y3092881D01*
X3655000Y3027910D01*
X3655000Y3027910D02*
G01*
X3644663Y3017568D01*
X3644663Y2965000D01*
X4100000Y3238699D02*
G01*
X4100000Y3155297D01*
X4100298Y3155000D01*
X4000000Y3238699D02*
G01*
X3982559Y3221259D01*
X3982559Y3145000D01*
X2725000Y2470338D02*
G01*
X2725000Y2414659D01*
X2110469Y2220000D02*
G01*
X2360469Y2470000D01*
X2420850Y2470000D01*
D10*
X3946499Y2575000D02*
G01*
X3956160Y2584659D01*
X4030000Y2584659D01*
D11*
X3224149Y2525000D02*
G01*
X3224489Y2524659D01*
X3330000Y2524659D01*
X4030000Y2525340D02*
G01*
X4215001Y2340338D01*
X4265000Y2340338D01*
X4275342Y2330000D01*
X3946499Y2525000D02*
G01*
X3946839Y2525340D01*
X4030000Y2525340D01*
X4159663Y3155000D02*
G01*
X4159663Y3095000D01*
X2420850Y2520000D02*
G01*
X2495000Y2520000D01*
X2525000Y2490000D01*
X2525000Y2405000D01*
X2515339Y2395340D01*
X2515339Y2355000D01*
X2574660Y2355000D02*
G01*
X2639149Y2419490D01*
X2639149Y2420000D01*
X4100000Y3551298D02*
G01*
X4102759Y3554059D01*
X4102759Y3640000D01*
X3700000Y3238699D02*
G01*
X3704209Y3234490D01*
X3704209Y3142089D01*
X3900000Y3238699D02*
G01*
X3927440Y3211259D01*
X3927440Y3145000D01*
X3800000Y3147559D02*
G01*
X3800000Y3238699D01*
X2725000Y2470340D02*
G01*
X2639489Y2470340D01*
X2639149Y2470000D01*
X2869651Y2605001D02*
G01*
X2899651Y2575000D01*
X3005850Y2575000D01*
X2929998Y2519650D02*
G01*
X2985348Y2575000D01*
X3005850Y2575000D01*
X2912089Y2730000D02*
G01*
X2935000Y2730000D01*
X3060000Y2605000D01*
X3060000Y2550000D01*
X3035000Y2525000D01*
X3005850Y2525000D01*
X3224149Y2525000D02*
G01*
X3235000Y2525000D01*
X3305000Y2595000D01*
X3305000Y2675000D01*
X3255000Y2725000D01*
X3162560Y2725000D01*
X3164660Y2790000D02*
G01*
X3162560Y2787899D01*
X3162560Y2725000D01*
X3107439Y2725000D02*
G01*
X3105339Y2727100D01*
X3105339Y2790000D01*
X3072910Y2880790D02*
G01*
X3105339Y2848359D01*
X3105339Y2790000D01*
X3187089Y2930000D02*
G01*
X3187089Y2887910D01*
X3220000Y2855000D01*
X3280000Y2395000D02*
G01*
X3280000Y2445000D01*
X3250000Y2475000D01*
X3224149Y2475000D01*
X2639149Y2520000D02*
G01*
X2655000Y2520000D01*
X2670000Y2505000D01*
X2700000Y2505000D01*
X2724660Y2529659D01*
X2725000Y2529659D01*
X2639149Y2520000D02*
G01*
X2660000Y2520000D01*
X2690000Y2550000D01*
X2690000Y2565000D01*
X2700000Y2575000D01*
X2740000Y2760000D02*
G01*
X2759210Y2779209D01*
X2797910Y2779209D01*
X3020000Y2955000D02*
G01*
X3044210Y2979209D01*
X3072910Y2979209D01*
X3619149Y2525000D02*
G01*
X3733500Y2525000D01*
X3644663Y2965000D02*
G01*
X3644663Y2925336D01*
X3670000Y2900000D01*
X3692759Y2900000D01*
X3600000Y3238699D02*
G01*
X3598699Y3238699D01*
X3545000Y3185000D01*
X3795000Y2625000D02*
G01*
X3795000Y2500000D01*
X3770000Y2475000D01*
X3733500Y2475000D01*
D10*
X3460000Y2360000D02*
G01*
X3455000Y2365000D01*
X3407560Y2365000D01*
X2960000Y2360000D02*
G01*
X2965000Y2365000D01*
X3007439Y2365000D01*
X2425000Y2310000D02*
G01*
X2427560Y2312559D01*
X2427560Y2365000D01*
X3407560Y2365000D02*
G01*
X3400850Y2371709D01*
X3400850Y2425000D01*
X3007439Y2365000D02*
G01*
X3005850Y2366590D01*
X3005850Y2425000D01*
X2427560Y2365000D02*
G01*
X2420850Y2371709D01*
X2420850Y2420000D01*
D11*
X2929998Y2460340D02*
G01*
X2929998Y2260001D01*
X2960000Y2230000D01*
X3165000Y2230000D01*
X3310000Y2375000D01*
X3310000Y2395000D01*
X3330000Y2415000D01*
X3330000Y2465340D01*
X4334660Y2330000D02*
G01*
X4324660Y2320000D01*
X4324660Y2125000D01*
X4860000Y2675000D02*
G01*
X4780000Y2675000D01*
X4725000Y2730000D01*
X4725000Y2800000D01*
X4690000Y2835000D01*
X4647629Y2835000D01*
X4860000Y2575000D02*
G01*
X4745000Y2575000D01*
X4647629Y2672370D01*
X4647629Y2785000D01*
X4629020Y3455000D02*
G01*
X4697757Y3455000D01*
X4727758Y3485001D01*
X4629020Y3455000D02*
G01*
X4650000Y3455000D01*
X4685000Y3420000D01*
X4745348Y3420000D01*
X4629020Y3405000D02*
G01*
X4649020Y3385000D01*
X4690000Y3385000D01*
X4709997Y3365001D01*
X4745347Y3365001D01*
X4629020Y3355000D02*
G01*
X4639020Y3345000D01*
X4690000Y3345000D01*
X4727759Y3307240D01*
X4727759Y3300000D01*
X4629020Y3505000D02*
G01*
X4654020Y3530000D01*
X4680000Y3530000D01*
X4705002Y3555001D01*
X4727758Y3555001D01*
X4885000Y3418604D02*
G01*
X4883604Y3420000D01*
X4804657Y3420000D01*
X4822200Y3555000D02*
G01*
X4885000Y3555000D01*
X4910000Y3530000D01*
X4910000Y3440000D01*
X4835000Y3365000D01*
X4804700Y3365000D01*
D10*
X4875000Y3465000D02*
G01*
X4875000Y3505000D01*
X4875000Y3465000D02*
G01*
X4854997Y3485001D01*
X4822239Y3485001D01*
X4822240Y3300000D02*
G01*
X4842240Y3320000D01*
X4875000Y3320000D01*
X4822240Y3300000D02*
G01*
X4837240Y3285000D01*
X4875000Y3285000D01*
X3835000Y2920000D02*
G01*
X3815000Y2900000D01*
X3787240Y2900000D01*
X3495000Y3185000D02*
G01*
X3500000Y3190000D01*
X3500000Y3238699D01*
D11*
X4080000Y3050000D02*
G01*
X4100339Y3070340D01*
X4100339Y3095000D01*
X4115000Y3050000D02*
G01*
X4100339Y3064659D01*
X4100339Y3095000D01*
D10*
X4675000Y3115000D02*
G01*
X4647629Y3087629D01*
X4647629Y3085000D01*
X4250000Y3620000D02*
G01*
X4230000Y3640000D01*
X4197240Y3640000D01*
X3780000Y3045000D02*
G01*
X3800000Y3065000D01*
X3800000Y3092440D01*
X3820000Y3045000D02*
G01*
X3800000Y3065000D01*
X3800000Y3092440D01*
X4370000Y2795000D02*
G01*
X4380000Y2785000D01*
X4432370Y2785000D01*
X4370000Y2765000D02*
G01*
X4390000Y2785000D01*
X4432370Y2785000D01*
X4630000Y3115000D02*
G01*
X4647629Y3097370D01*
X4647629Y3085000D01*
D11*
X4629020Y3305000D02*
G01*
X4629020Y3245979D01*
X4730000Y3145000D01*
X4730000Y2915000D01*
X4700000Y2885000D01*
X4647632Y2885000D01*
D10*
X4822239Y3485001D02*
G01*
X4842236Y3505000D01*
X4875000Y3505000D01*
X4250000Y3655000D02*
G01*
X4235000Y3640000D01*
X4197240Y3640000D01*
X3450000Y3190000D02*
G01*
X3498699Y3238699D01*
X3500000Y3238699D01*
X2335000Y2320000D02*
G01*
X2325000Y2330000D01*
X2325000Y2350000D01*
X2325000Y2380000D02*
G01*
X2325000Y2350000D01*
X2325000Y2380000D02*
G01*
X2340000Y2365000D01*
X2372439Y2365000D01*
X2325000Y2350000D02*
G01*
X2340000Y2365000D01*
X2372439Y2365000D01*
X2335000Y2320000D02*
G01*
X2372439Y2357440D01*
X2372439Y2365000D01*
X2110469Y2318420D02*
G01*
X2113890Y2315000D01*
X2160000Y2315000D01*
X2110469Y2318420D02*
G01*
X2137049Y2345000D01*
X2155000Y2345000D01*
X2110469Y2318420D02*
G01*
X2130000Y2337950D01*
X2130000Y2365000D01*
X3470000Y2445000D02*
G01*
X3440000Y2475000D01*
X3400850Y2475000D01*
X3470000Y2475000D02*
G01*
X3400850Y2475000D01*
X3070000Y2455000D02*
G01*
X3050000Y2475000D01*
X3005850Y2475000D01*
X3070000Y2490000D02*
G01*
X3055000Y2475000D01*
X3005850Y2475000D01*
X3305000Y2335000D02*
G01*
X3335000Y2365000D01*
X3352439Y2365000D01*
X3330000Y2315000D02*
G01*
X3352439Y2337440D01*
X3352439Y2365000D01*
X3360000Y2315000D02*
G01*
X3352439Y2322559D01*
X3352439Y2365000D01*
X3100000Y2320000D02*
G01*
X3062560Y2357440D01*
X3062560Y2365000D01*
X3115000Y2345000D02*
G01*
X3095000Y2365000D01*
X3062560Y2365000D01*
X3115000Y2375000D02*
G01*
X3105000Y2365000D01*
X3062560Y2365000D01*
X3165000Y2455000D02*
G01*
X3195000Y2425000D01*
X3224149Y2425000D01*
X3165000Y2425000D02*
G01*
X3224149Y2425000D01*
D14*
X4870010Y1678420D02*
G01*
X4851589Y1660000D01*
X4800000Y1660000D01*
X4870010Y1678420D02*
G01*
X4848429Y1700000D01*
X4800000Y1700000D01*
X4415000Y1767159D02*
G01*
X4472160Y1710000D01*
X4475000Y1710000D01*
X4415000Y1767159D02*
G01*
X4415000Y1875000D01*
X4475000Y1710000D02*
G01*
X4475000Y1765000D01*
X4630000Y2110000D02*
G01*
X4660000Y2140000D01*
X4660000Y2173380D01*
X4680000Y2110000D02*
G01*
X4660000Y2130000D01*
X4660000Y2173380D01*
X4860000Y2475000D02*
G01*
X4890000Y2505000D01*
X5040000Y2505000D01*
X4860000Y2475000D02*
G01*
X4880000Y2455000D01*
X5040000Y2455000D01*
D10*
X2210000Y2080000D02*
G01*
X2152048Y2080000D01*
X2110469Y2121579D01*
X2210000Y2120000D02*
G01*
X2112049Y2120000D01*
X2110469Y2121579D01*
D11*
X3700336Y2965000D02*
G01*
X3644663Y2965000D01*
X3605000Y2964699D02*
G01*
X3644700Y2965000D01*
D10*
X4355000Y3445000D02*
G01*
X4365000Y3455000D01*
X4410980Y3455000D01*
X4355000Y3410000D02*
G01*
X4360000Y3405000D01*
X4410980Y3405000D01*
X4355000Y3375000D02*
G01*
X4385000Y3405000D01*
X4410980Y3405000D01*
X4355000Y3445000D02*
G01*
X4355000Y3410000D01*
X4355000Y3480000D02*
G01*
X4380000Y3455000D01*
X4410980Y3455000D01*
D11*
X4727758Y3555001D02*
G01*
X4725339Y3557420D01*
X4725339Y3615000D01*
D10*
X4784700Y3615000D02*
G01*
X4785000Y3655000D01*
X4784660Y3615000D02*
G01*
X4820000Y3650340D01*
X4820000Y3655000D01*
X4784660Y3615000D02*
G01*
X4825000Y3615000D01*
D11*
X4411000Y3505000D02*
G01*
X4385000Y3505000D01*
X4370000Y3520000D01*
X4325000Y3520000D01*
X4300000Y3545000D01*
X4325000Y3520000D02*
G01*
X4310000Y3505000D01*
X4300000Y3505000D01*
X4300000Y3545000D02*
G01*
X4300000Y3505000D01*
X2725000Y2355340D02*
G01*
X2715339Y2365000D01*
X2670000Y2365000D01*
X2725000Y2355340D02*
G01*
X2704660Y2335000D01*
X2670000Y2335000D01*
X3165000Y2230000D02*
G01*
X3435000Y2230000D01*
X3510000Y2305000D01*
X3510000Y2435000D01*
X3550000Y2475000D01*
X3619149Y2475000D01*
X3510000Y2305000D02*
G01*
X3575000Y2370000D01*
X3650348Y2370000D01*
X3709659Y2370000D02*
G01*
X3676572Y2403085D01*
X3676572Y2525000D01*
D10*
X3555000Y2410000D02*
G01*
X3570000Y2425000D01*
X3619149Y2425000D01*
D11*
X3733500Y2425000D02*
G01*
X3753500Y2445000D01*
X3800000Y2445000D01*
X3733500Y2425000D02*
G01*
X3743500Y2415000D01*
X3800000Y2415000D01*
D10*
X3490000Y2670000D02*
G01*
X3525000Y2635000D01*
X3527439Y2635000D01*
X3480000Y2640000D02*
G01*
X3485000Y2635000D01*
X3527439Y2635000D01*
X3125000Y2650000D02*
G01*
X3140000Y2635000D01*
X3172439Y2635000D01*
X3125000Y2620000D02*
G01*
X3140000Y2635000D01*
X3227560Y2635000D02*
G01*
X3252560Y2660000D01*
X3270000Y2660000D01*
X3227560Y2635000D02*
G01*
X3232560Y2630000D01*
X3270000Y2630000D01*
X3582560Y2635000D02*
G01*
X3617560Y2670000D01*
X3625000Y2670000D01*
X3625000Y2670000D02*
G01*
X3655000Y2670000D01*
X3947560Y2640000D02*
G01*
X3946499Y2638939D01*
X3946499Y2575000D01*
X3947560Y2640000D02*
G01*
X3952560Y2645000D01*
X4000000Y2645000D01*
X4000000Y2645000D02*
G01*
X4000000Y2675000D01*
X3845000Y2630000D02*
G01*
X3855000Y2640000D01*
X3892439Y2640000D01*
X3845000Y2665000D02*
G01*
X3870000Y2640000D01*
X3892439Y2640000D01*
X4765000Y2335000D02*
G01*
X4805000Y2375000D01*
X4860000Y2375000D01*
X4820000Y2335000D02*
G01*
X4860000Y2375000D01*
X4885000Y2335000D02*
G01*
X4860000Y2360000D01*
X4860000Y2375000D01*
X4950000Y2335000D02*
G01*
X4910000Y2375000D01*
X4860000Y2375000D01*
X4325000Y1930000D02*
G01*
X4322560Y1932440D01*
X4322560Y1985000D01*
X4322560Y1985000D02*
G01*
X4322560Y2054998D01*
X4322559Y2055000D01*
X3227560Y2635000D02*
G01*
X3224149Y2631590D01*
X3224149Y2575000D01*
X4490000Y3605000D02*
G01*
X4410980Y3605000D01*
X4490000Y3575000D02*
G01*
X4470000Y3555000D01*
X4410980Y3555000D01*
X2637560Y2630000D02*
G01*
X2625000Y2642559D01*
X2625000Y2675000D01*
X2637560Y2630000D02*
G01*
X2655000Y2647440D01*
X2655000Y2675000D01*
X2582439Y2630000D02*
G01*
X2552439Y2660000D01*
X2530000Y2660000D01*
X2530000Y2620000D02*
G01*
X2540000Y2630000D01*
X2582439Y2630000D01*
X2637560Y2630000D02*
G01*
X2639149Y2628409D01*
X2639149Y2570000D01*
X3582560Y2635000D02*
G01*
X3619149Y2598409D01*
X3619149Y2575000D01*
X3620000Y2855000D02*
G01*
X3605000Y2870000D01*
X3605000Y2905340D01*
X3620000Y2855000D02*
G01*
X3650000Y2855000D01*
X3835000Y2885000D02*
G01*
X3820000Y2900000D01*
X3787240Y2900000D01*
X3759660Y2965000D02*
G01*
X3779660Y2985000D01*
X3805000Y2985000D01*
X3759660Y2965000D02*
G01*
X3774660Y2950000D01*
X3805000Y2950000D01*
X3619149Y2425000D02*
G01*
X3604149Y2440000D01*
X3555000Y2440000D01*
D11*
X2810340Y2605001D02*
G01*
X2797910Y2617431D01*
X2797910Y2680790D01*
D14*
X4415000Y1875000D02*
G01*
X4365000Y1825000D01*
X4050000Y1825000D01*
X3650000Y1425000D01*
X3535000Y1425000D01*
D16*
X3507560Y1345000D02*
G01*
X3535000Y1372440D01*
X3535000Y1425000D01*
X4870010Y1678420D02*
G01*
X4875000Y1683409D01*
X4875000Y1830000D01*
D17*
G01*
X4810000Y2945000D03*
G01*
X2655000Y2230000D03*
G01*
X4320000Y3630000D03*
G01*
X4585000Y2670000D03*
G01*
X4970000Y2880000D03*
G01*
X3830000Y1910000D03*
G01*
X2275000Y2850000D03*
G01*
X3800000Y3675000D03*
G01*
X3700000Y2635000D03*
G01*
X4030000Y2365000D03*
G01*
X2650000Y2130000D03*
G01*
X3455000Y2070000D03*
G01*
X4875000Y1835000D03*
G01*
X3160000Y2170000D03*
G01*
X2645000Y2820000D03*
D18*
G01*
X4334655Y2330000D03*
G01*
X4275344Y2330000D03*
D19*
G01*
X3733500Y2575000D03*
G01*
X3733500Y2525000D03*
G01*
X3733500Y2475000D03*
G01*
X3733500Y2425000D03*
G01*
X3946499Y2575000D03*
G01*
X3946499Y2525000D03*
G01*
X3946499Y2475000D03*
G01*
X3946499Y2425000D03*
D20*
G01*
X4030000Y2525344D03*
D21*
G01*
X4030000Y2584659D03*
D22*
G01*
X3800000Y3147559D03*
G01*
X3800000Y3092440D03*
D23*
G01*
X4102759Y3640000D03*
G01*
X4197240Y3640000D03*
D18*
G01*
X4159655Y3095000D03*
G01*
X4100344Y3095000D03*
D23*
G01*
X3692759Y2900000D03*
G01*
X3787240Y2900000D03*
D20*
G01*
X3605000Y2905344D03*
D21*
G01*
X3605000Y2964659D03*
D24*
G01*
X4100344Y3155000D03*
G01*
X4159655Y3155000D03*
D25*
G01*
X2427560Y2365000D03*
G01*
X2372439Y2365000D03*
G01*
X3007439Y2365000D03*
G01*
X3062560Y2365000D03*
G01*
X3407560Y2365000D03*
G01*
X3352439Y2365000D03*
D26*
G01*
X2797910Y2680790D03*
D27*
G01*
X2912089Y2730000D03*
D26*
G01*
X2797910Y2779209D03*
G01*
X3072910Y2880790D03*
D27*
G01*
X3187089Y2930000D03*
D26*
G01*
X3072910Y2979209D03*
D28*
G01*
X3605789Y3142089D03*
D29*
G01*
X3655000Y3027910D03*
D28*
G01*
X3704210Y3142089D03*
D25*
G01*
X2802560Y1965000D03*
G01*
X2747439Y1965000D03*
G01*
X3247439Y1965000D03*
G01*
X3302560Y1965000D03*
D22*
G01*
X3000000Y1341559D03*
G01*
X3000000Y1286439D03*
G01*
X3066000Y1341559D03*
G01*
X3066000Y1286439D03*
D25*
G01*
X3246099Y1870349D03*
G01*
X3301210Y1870349D03*
G01*
X3247439Y1805000D03*
G01*
X3302560Y1805000D03*
G01*
X3507560Y1345000D03*
G01*
X3452439Y1345000D03*
D30*
G01*
X4860000Y2175000D03*
G01*
X4860000Y2275000D03*
G01*
X4860000Y2375000D03*
G01*
X4860000Y2475000D03*
G01*
X4860000Y2575000D03*
G01*
X4860000Y2675000D03*
G01*
X4860000Y2775000D03*
G01*
X4860000Y2075000D03*
D24*
G01*
X4265344Y2125000D03*
G01*
X4324655Y2125000D03*
D25*
G01*
X2582439Y2630000D03*
G01*
X2637560Y2630000D03*
G01*
X3172439Y2635000D03*
G01*
X3227560Y2635000D03*
G01*
X3527439Y2635000D03*
G01*
X3582560Y2635000D03*
G01*
X3107439Y2725000D03*
G01*
X3162560Y2725000D03*
G01*
X3892439Y2640000D03*
G01*
X3947560Y2640000D03*
G01*
X3927439Y3145000D03*
G01*
X3982560Y3145000D03*
G01*
X4322560Y2055000D03*
G01*
X4267439Y2055000D03*
G01*
X4322560Y1985000D03*
G01*
X4267439Y1985000D03*
D23*
G01*
X4727759Y3300000D03*
G01*
X4822240Y3300000D03*
G01*
X4727759Y3485000D03*
G01*
X4822240Y3485000D03*
G01*
X4727759Y3555000D03*
G01*
X4822240Y3555000D03*
D31*
G01*
X4415000Y1767159D03*
G01*
X4415000Y1412840D03*
D32*
G01*
X4660000Y2346619D03*
G01*
X4660000Y2173380D03*
D20*
G01*
X2725000Y2529655D03*
D21*
G01*
X2725000Y2470340D03*
D20*
G01*
X2930000Y2519655D03*
D21*
G01*
X2930000Y2460340D03*
D18*
G01*
X2574655Y2355000D03*
G01*
X2515344Y2355000D03*
D24*
G01*
X2810344Y2605000D03*
G01*
X2869655Y2605000D03*
D20*
G01*
X3330000Y2465344D03*
D21*
G01*
X3330000Y2524659D03*
D24*
G01*
X3650344Y2370000D03*
G01*
X3709655Y2370000D03*
G01*
X4725344Y3615000D03*
G01*
X4784655Y3615000D03*
G01*
X4745344Y3420000D03*
G01*
X4804655Y3420000D03*
G01*
X4745344Y3365000D03*
G01*
X4804655Y3365000D03*
D20*
G01*
X2725000Y2414655D03*
D21*
G01*
X2725000Y2355340D03*
D24*
G01*
X3700344Y2965000D03*
G01*
X3759655Y2965000D03*
D18*
G01*
X3164655Y2790000D03*
G01*
X3105344Y2790000D03*
D33*
G01*
X2420850Y2570000D03*
G01*
X2420850Y2520000D03*
G01*
X2420850Y2470000D03*
G01*
X2420850Y2420000D03*
G01*
X2639149Y2570000D03*
G01*
X2639149Y2520000D03*
G01*
X2639149Y2470000D03*
G01*
X2639149Y2420000D03*
G01*
X3005850Y2575000D03*
G01*
X3005850Y2525000D03*
G01*
X3005850Y2475000D03*
G01*
X3005850Y2425000D03*
G01*
X3224149Y2575000D03*
G01*
X3224149Y2525000D03*
G01*
X3224149Y2475000D03*
G01*
X3224149Y2425000D03*
G01*
X3400850Y2575000D03*
G01*
X3400850Y2525000D03*
G01*
X3400850Y2475000D03*
G01*
X3400850Y2425000D03*
G01*
X3619149Y2575000D03*
G01*
X3619149Y2525000D03*
G01*
X3619149Y2475000D03*
G01*
X3619149Y2425000D03*
D34*
G01*
X4647629Y2785000D03*
G01*
X4647629Y2835000D03*
G01*
X4647629Y2885000D03*
G01*
X4647629Y2935000D03*
G01*
X4647629Y2985000D03*
G01*
X4647629Y3035000D03*
G01*
X4647629Y3085000D03*
G01*
X4432370Y2785000D03*
G01*
X4432370Y2835000D03*
G01*
X4432370Y2885000D03*
G01*
X4432370Y2935000D03*
G01*
X4432370Y2985000D03*
G01*
X4432370Y3035000D03*
G01*
X4432370Y3085000D03*
D35*
G01*
X4629020Y3305000D03*
G01*
X4629020Y3355000D03*
G01*
X4629020Y3405000D03*
G01*
X4629020Y3455000D03*
G01*
X4629020Y3505000D03*
G01*
X4629020Y3555000D03*
G01*
X4629020Y3605000D03*
G01*
X4410980Y3305000D03*
G01*
X4410980Y3355000D03*
G01*
X4410980Y3405000D03*
G01*
X4410980Y3455000D03*
G01*
X4410980Y3505000D03*
G01*
X4410980Y3555000D03*
G01*
X4410980Y3605000D03*
D36*
G01*
X3600000Y3238699D03*
G01*
X3500000Y3551300D03*
G01*
X3700000Y3238699D03*
G01*
X3600000Y3551300D03*
G01*
X3800000Y3238699D03*
G01*
X3700000Y3551300D03*
G01*
X3900000Y3238699D03*
G01*
X3800000Y3551300D03*
G01*
X4000000Y3238699D03*
G01*
X3900000Y3551300D03*
G01*
X4100000Y3238699D03*
G01*
X4000000Y3551300D03*
G01*
X4200000Y3238699D03*
G01*
X4200000Y3551300D03*
G01*
X3500000Y3238699D03*
G01*
X4100000Y3551300D03*
D37*
G01*
X2250000Y1605000D03*
G01*
X1845000Y3165000D03*
G01*
X3955000Y1405000D03*
G01*
X3105000Y3545000D03*
G01*
X4915000Y3780000D03*
D38*
G01*
X3135000Y1425000D03*
G01*
X3035000Y1425000D03*
G01*
X3235000Y1425000D03*
D39*
G01*
X3535000Y1425000D03*
D38*
G01*
X3435000Y1425000D03*
D40*
G01*
X2954960Y1865010D03*
G01*
X2954960Y1965010D03*
D41*
G01*
X2954949Y1765010D03*
D40*
G01*
X3144960Y1865010D03*
G01*
X3144960Y1965010D03*
D41*
G01*
X3144949Y1765010D03*
D42*
G01*
X4870010Y1481570D03*
G01*
X4870010Y1678420D03*
D43*
G01*
X4440000Y2330000D03*
D44*
G01*
X4440000Y2130000D03*
G01*
X4440000Y2230000D03*
D45*
G01*
X2110469Y2121579D03*
G01*
X2110469Y2220000D03*
G01*
X2110469Y2318420D03*
D46*
G01*
X1834880Y2046770D03*
G01*
X1834880Y2393229D03*
D47*
G01*
X3350000Y1950000D03*
G01*
X3350000Y1855000D03*
G01*
X3350000Y1780000D03*
G01*
X2815000Y1885000D03*
G01*
X2815000Y1835000D03*
G01*
X2925000Y2025000D03*
G01*
X2985000Y2025000D03*
G01*
X3115000Y2025000D03*
G01*
X3185000Y2025000D03*
G01*
X3220000Y2855000D03*
G01*
X3280000Y2395000D03*
G01*
X2700000Y2575000D03*
G01*
X2740000Y2760000D03*
G01*
X3020000Y2955000D03*
G01*
X3545000Y3185000D03*
G01*
X3795000Y2625000D03*
G01*
X3460000Y2360000D03*
G01*
X2960000Y2360000D03*
G01*
X2425000Y2310000D03*
G01*
X2210000Y2120000D03*
G01*
X2210000Y2080000D03*
G01*
X3470000Y2475000D03*
G01*
X3070000Y2490000D03*
G01*
X3360000Y2315000D03*
G01*
X3330000Y2315000D03*
G01*
X3305000Y2335000D03*
G01*
X3100000Y2320000D03*
G01*
X3115000Y2345000D03*
G01*
X3115000Y2375000D03*
G01*
X2325000Y2380000D03*
G01*
X2325000Y2350000D03*
G01*
X2335000Y2320000D03*
G01*
X4870000Y1545000D03*
G01*
X4870000Y1415000D03*
G01*
X4805000Y1480000D03*
G01*
X4935000Y1480000D03*
G01*
X4475000Y1460000D03*
G01*
X4475000Y1400000D03*
G01*
X4475000Y1345000D03*
G01*
X4355000Y1345000D03*
G01*
X4355000Y1400000D03*
G01*
X4355000Y1460000D03*
G01*
X4415000Y1525000D03*
G01*
X4415000Y1300000D03*
G01*
X3400000Y1455000D03*
G01*
X3390000Y1420000D03*
G01*
X3405000Y1390000D03*
G01*
X3405000Y1345000D03*
G01*
X3135000Y1380000D03*
G01*
X3170000Y1395000D03*
G01*
X3115000Y1270000D03*
G01*
X2960000Y1245000D03*
G01*
X3035000Y1245000D03*
G01*
X3115000Y1305000D03*
G01*
X4220000Y2150000D03*
G01*
X4220000Y2120000D03*
G01*
X4220000Y2090000D03*
G01*
X4220000Y2060000D03*
G01*
X4220000Y2030000D03*
G01*
X4220000Y2000000D03*
G01*
X4220000Y1970000D03*
G01*
X4765000Y2335000D03*
G01*
X4950000Y2335000D03*
G01*
X4875000Y3505000D03*
G01*
X4875000Y3465000D03*
G01*
X4875000Y3320000D03*
G01*
X4875000Y3285000D03*
G01*
X4630000Y3115000D03*
G01*
X4675000Y3115000D03*
G01*
X4080000Y3050000D03*
G01*
X4115000Y3050000D03*
G01*
X3450000Y3190000D03*
G01*
X3495000Y3185000D03*
G01*
X3835000Y2920000D03*
G01*
X3835000Y2885000D03*
G01*
X4250000Y3655000D03*
G01*
X4250000Y3620000D03*
G01*
X3780000Y3045000D03*
G01*
X3820000Y3045000D03*
G01*
X4370000Y2795000D03*
G01*
X4370000Y2765000D03*
G01*
X2130000Y2365000D03*
G01*
X2155000Y2345000D03*
G01*
X2160000Y2315000D03*
G01*
X3470000Y2445000D03*
G01*
X3070000Y2455000D03*
G01*
X3165000Y2425000D03*
G01*
X3165000Y2455000D03*
G01*
X4800000Y1700000D03*
G01*
X4800000Y1660000D03*
G01*
X4475000Y1765000D03*
G01*
X4475000Y1710000D03*
G01*
X4325000Y1930000D03*
G01*
X4370000Y1930000D03*
G01*
X4630000Y2110000D03*
G01*
X4680000Y2110000D03*
G01*
X4415000Y1875000D03*
G01*
X5040000Y2505000D03*
G01*
X5040000Y2455000D03*
G01*
X4355000Y3480000D03*
G01*
X4355000Y3445000D03*
G01*
X4355000Y3410000D03*
G01*
X4355000Y3375000D03*
G01*
X4820000Y3655000D03*
G01*
X4825000Y3615000D03*
G01*
X4785000Y3655000D03*
G01*
X4300000Y3545000D03*
G01*
X4300000Y3505000D03*
G01*
X2670000Y2365000D03*
G01*
X2670000Y2335000D03*
G01*
X3555000Y2440000D03*
G01*
X3555000Y2410000D03*
G01*
X3800000Y2445000D03*
G01*
X3800000Y2415000D03*
G01*
X3625000Y2670000D03*
G01*
X3490000Y2670000D03*
G01*
X3480000Y2640000D03*
G01*
X3125000Y2650000D03*
G01*
X3125000Y2620000D03*
G01*
X3655000Y2670000D03*
G01*
X3270000Y2660000D03*
G01*
X3270000Y2630000D03*
G01*
X4000000Y2675000D03*
G01*
X4000000Y2645000D03*
G01*
X3845000Y2665000D03*
G01*
X3845000Y2630000D03*
G01*
X4820000Y2335000D03*
G01*
X4885000Y2335000D03*
G01*
X4490000Y3605000D03*
G01*
X4490000Y3575000D03*
G01*
X2625000Y2675000D03*
G01*
X2655000Y2675000D03*
G01*
X2530000Y2660000D03*
G01*
X2530000Y2620000D03*
G01*
X3620000Y2855000D03*
G01*
X3650000Y2855000D03*
G01*
X3350000Y1890000D03*
G01*
X3350000Y1815000D03*
G01*
X3350000Y1985000D03*
G01*
X3805000Y2985000D03*
G01*
X3805000Y2950000D03*
G01*
X3380000Y2110000D03*
G01*
X2650000Y2060000D03*
G01*
X3755000Y2605000D03*
G01*
X3885000Y1910000D03*
G01*
X3775000Y1910000D03*
G01*
X3830000Y1855000D03*
G01*
X3830000Y1965000D03*
G01*
X3855000Y3675000D03*
G01*
X3740000Y3675000D03*
G01*
X3800000Y3620000D03*
G01*
X3800000Y3730000D03*
G01*
X2220000Y2850000D03*
G01*
X2330000Y2850000D03*
G01*
X2275000Y2795000D03*
G01*
X2275000Y2905000D03*
G01*
X3870000Y3605000D03*
G01*
X3925000Y3605000D03*
G01*
X3115000Y1695000D03*
G01*
X3150000Y1695000D03*
G01*
X3180000Y1695000D03*
G01*
X2725000Y1915000D03*
G01*
X2760000Y1915000D03*
M02*
