G04 Layer: TopPasteMaskLayer*
G04 EasyEDA v6.5.51, 2025-11-08 23:49:31*
G04 24b077a0fc1f4b80a491af6b48e99bdb,10*
G04 Gerber Generator version 0.2*
G04 Scale: 100 percent, Rotated: No, Reflected: No *
G04 Dimensions in inches *
G04 leading zeros omitted , absolute positions ,3 integer and 6 decimal *
%FSLAX36Y36*%
%MOIN*%

%ADD10C,0.0591*%
%ADD11O,0.07678X0.022378*%
%ADD12R,0.0354X0.0315*%
%ADD13R,0.0591X0.0535*%
%ADD14R,0.0315X0.0354*%
%ADD15R,0.0630X0.0512*%
%ADD16R,0.0630X0.0787*%
%ADD17R,0.0512X0.0630*%
%ADD18R,0.0787X0.0630*%
%ADD19R,0.0183X0.0630*%
%ADD20R,0.2362X0.0433*%
%ADD21R,0.0650X0.1772*%
%ADD22R,0.0787X0.0787*%
%ADD23O,0.080512X0.02315*%
%ADD24O,0.077461X0.023425*%
%ADD25O,0.080236X0.022598*%
%ADD26O,0.056693X0.070866*%

%LPD*%
G36*
X4320560Y2347720D02*
G01*
X4318580Y2345740D01*
X4318580Y2336780D01*
X4333140Y2336780D01*
X4333140Y2323780D01*
X4318580Y2323780D01*
X4318580Y2314260D01*
X4320560Y2312280D01*
X4352040Y2312280D01*
X4354020Y2314260D01*
X4354020Y2345740D01*
X4352040Y2347720D01*
G37*
G36*
X4257960Y2347720D02*
G01*
X4255980Y2345740D01*
X4255980Y2314260D01*
X4257960Y2312280D01*
X4289440Y2312280D01*
X4291420Y2314260D01*
X4291420Y2323220D01*
X4276860Y2323220D01*
X4276860Y2336220D01*
X4291420Y2336220D01*
X4291420Y2345740D01*
X4289440Y2347720D01*
G37*
G36*
X4014260Y2541420D02*
G01*
X4012280Y2539440D01*
X4012280Y2507960D01*
X4014260Y2505980D01*
X4045740Y2505980D01*
X4047720Y2507960D01*
X4047720Y2539440D01*
X4045740Y2541420D01*
X4036780Y2541420D01*
X4036780Y2526840D01*
X4023780Y2526840D01*
X4023780Y2541420D01*
G37*
G36*
X4014260Y2604020D02*
G01*
X4012280Y2602040D01*
X4012280Y2570560D01*
X4014260Y2568580D01*
X4023220Y2568580D01*
X4023220Y2583159D01*
X4036220Y2583159D01*
X4036220Y2568580D01*
X4045740Y2568580D01*
X4047720Y2570560D01*
X4047720Y2602040D01*
X4045740Y2604020D01*
G37*
G36*
X4145560Y3112720D02*
G01*
X4143580Y3110740D01*
X4143580Y3101780D01*
X4158140Y3101780D01*
X4158140Y3088780D01*
X4143580Y3088780D01*
X4143580Y3079260D01*
X4145560Y3077280D01*
X4177040Y3077280D01*
X4179020Y3079260D01*
X4179020Y3110740D01*
X4177040Y3112720D01*
G37*
G36*
X4082960Y3112720D02*
G01*
X4080980Y3110740D01*
X4080980Y3079260D01*
X4082960Y3077280D01*
X4114440Y3077280D01*
X4116420Y3079260D01*
X4116420Y3088220D01*
X4101860Y3088220D01*
X4101860Y3101220D01*
X4116420Y3101220D01*
X4116420Y3110740D01*
X4114440Y3112720D01*
G37*
G36*
X3589260Y2921420D02*
G01*
X3587280Y2919440D01*
X3587280Y2887960D01*
X3589260Y2885980D01*
X3620740Y2885980D01*
X3622720Y2887960D01*
X3622720Y2919440D01*
X3620740Y2921420D01*
X3611780Y2921420D01*
X3611780Y2906840D01*
X3598780Y2906840D01*
X3598780Y2921420D01*
G37*
G36*
X3589260Y2984020D02*
G01*
X3587280Y2982040D01*
X3587280Y2950560D01*
X3589260Y2948580D01*
X3598220Y2948580D01*
X3598220Y2963159D01*
X3611220Y2963159D01*
X3611220Y2948580D01*
X3620740Y2948580D01*
X3622720Y2950560D01*
X3622720Y2982040D01*
X3620740Y2984020D01*
G37*
G36*
X4082960Y3172720D02*
G01*
X4080980Y3170740D01*
X4080980Y3139260D01*
X4082960Y3137280D01*
X4114440Y3137280D01*
X4116420Y3139260D01*
X4116420Y3148220D01*
X4101860Y3148220D01*
X4101860Y3161220D01*
X4116420Y3161220D01*
X4116420Y3170740D01*
X4114440Y3172720D01*
G37*
G36*
X4145560Y3172720D02*
G01*
X4143580Y3170740D01*
X4143580Y3161780D01*
X4158140Y3161780D01*
X4158140Y3148780D01*
X4143580Y3148780D01*
X4143580Y3139260D01*
X4145560Y3137280D01*
X4177040Y3137280D01*
X4179020Y3139260D01*
X4179020Y3170740D01*
X4177040Y3172720D01*
G37*
G36*
X4247960Y2142720D02*
G01*
X4245980Y2140740D01*
X4245980Y2109260D01*
X4247960Y2107280D01*
X4279440Y2107280D01*
X4281420Y2109260D01*
X4281420Y2118220D01*
X4266860Y2118220D01*
X4266860Y2131220D01*
X4281420Y2131220D01*
X4281420Y2140740D01*
X4279440Y2142720D01*
G37*
G36*
X4310560Y2142720D02*
G01*
X4308580Y2140740D01*
X4308580Y2131780D01*
X4323140Y2131780D01*
X4323140Y2118780D01*
X4308580Y2118780D01*
X4308580Y2109260D01*
X4310560Y2107280D01*
X4342040Y2107280D01*
X4344020Y2109260D01*
X4344020Y2140740D01*
X4342040Y2142720D01*
G37*
G36*
X2709260Y2549020D02*
G01*
X2707280Y2547040D01*
X2707280Y2515560D01*
X2709260Y2513580D01*
X2718220Y2513580D01*
X2718220Y2528160D01*
X2731220Y2528160D01*
X2731220Y2513580D01*
X2740740Y2513580D01*
X2742720Y2515560D01*
X2742720Y2547040D01*
X2740740Y2549020D01*
G37*
G36*
X2709260Y2486420D02*
G01*
X2707280Y2484440D01*
X2707280Y2452960D01*
X2709260Y2450980D01*
X2740740Y2450980D01*
X2742720Y2452960D01*
X2742720Y2484440D01*
X2740740Y2486420D01*
X2731780Y2486420D01*
X2731780Y2471840D01*
X2718780Y2471840D01*
X2718780Y2486420D01*
G37*
G36*
X2914260Y2539020D02*
G01*
X2912280Y2537040D01*
X2912280Y2505560D01*
X2914260Y2503580D01*
X2923220Y2503580D01*
X2923220Y2518160D01*
X2936220Y2518160D01*
X2936220Y2503580D01*
X2945740Y2503580D01*
X2947720Y2505560D01*
X2947720Y2537040D01*
X2945740Y2539020D01*
G37*
G36*
X2914260Y2476420D02*
G01*
X2912280Y2474440D01*
X2912280Y2442960D01*
X2914260Y2440980D01*
X2945740Y2440980D01*
X2947720Y2442960D01*
X2947720Y2474440D01*
X2945740Y2476420D01*
X2936780Y2476420D01*
X2936780Y2461840D01*
X2923780Y2461840D01*
X2923780Y2476420D01*
G37*
G36*
X2560560Y2372720D02*
G01*
X2558580Y2370740D01*
X2558580Y2361780D01*
X2573140Y2361780D01*
X2573140Y2348780D01*
X2558580Y2348780D01*
X2558580Y2339260D01*
X2560560Y2337280D01*
X2592040Y2337280D01*
X2594020Y2339260D01*
X2594020Y2370740D01*
X2592040Y2372720D01*
G37*
G36*
X2497960Y2372720D02*
G01*
X2495980Y2370740D01*
X2495980Y2339260D01*
X2497960Y2337280D01*
X2529440Y2337280D01*
X2531420Y2339260D01*
X2531420Y2348220D01*
X2516860Y2348220D01*
X2516860Y2361220D01*
X2531420Y2361220D01*
X2531420Y2370740D01*
X2529440Y2372720D01*
G37*
G36*
X2792960Y2622720D02*
G01*
X2790980Y2620740D01*
X2790980Y2589260D01*
X2792960Y2587280D01*
X2824440Y2587280D01*
X2826420Y2589260D01*
X2826420Y2598220D01*
X2811860Y2598220D01*
X2811860Y2611220D01*
X2826420Y2611220D01*
X2826420Y2620740D01*
X2824440Y2622720D01*
G37*
G36*
X2855560Y2622720D02*
G01*
X2853580Y2620740D01*
X2853580Y2611780D01*
X2868140Y2611780D01*
X2868140Y2598780D01*
X2853580Y2598780D01*
X2853580Y2589260D01*
X2855560Y2587280D01*
X2887040Y2587280D01*
X2889020Y2589260D01*
X2889020Y2620740D01*
X2887040Y2622720D01*
G37*
G36*
X3314260Y2481420D02*
G01*
X3312280Y2479440D01*
X3312280Y2447960D01*
X3314260Y2445980D01*
X3345740Y2445980D01*
X3347720Y2447960D01*
X3347720Y2479440D01*
X3345740Y2481420D01*
X3336780Y2481420D01*
X3336780Y2466840D01*
X3323780Y2466840D01*
X3323780Y2481420D01*
G37*
G36*
X3314260Y2544020D02*
G01*
X3312280Y2542040D01*
X3312280Y2510560D01*
X3314260Y2508580D01*
X3323220Y2508580D01*
X3323220Y2523160D01*
X3336220Y2523160D01*
X3336220Y2508580D01*
X3345740Y2508580D01*
X3347720Y2510560D01*
X3347720Y2542040D01*
X3345740Y2544020D01*
G37*
G36*
X3632960Y2387720D02*
G01*
X3630980Y2385740D01*
X3630980Y2354260D01*
X3632960Y2352280D01*
X3664440Y2352280D01*
X3666420Y2354260D01*
X3666420Y2363220D01*
X3651860Y2363220D01*
X3651860Y2376220D01*
X3666420Y2376220D01*
X3666420Y2385740D01*
X3664440Y2387720D01*
G37*
G36*
X3695560Y2387720D02*
G01*
X3693580Y2385740D01*
X3693580Y2376780D01*
X3708140Y2376780D01*
X3708140Y2363780D01*
X3693580Y2363780D01*
X3693580Y2354260D01*
X3695560Y2352280D01*
X3727040Y2352280D01*
X3729020Y2354260D01*
X3729020Y2385740D01*
X3727040Y2387720D01*
G37*
G36*
X4707960Y3632720D02*
G01*
X4705980Y3630740D01*
X4705980Y3599260D01*
X4707960Y3597280D01*
X4739440Y3597280D01*
X4741420Y3599260D01*
X4741420Y3608220D01*
X4726860Y3608220D01*
X4726860Y3621220D01*
X4741420Y3621220D01*
X4741420Y3630740D01*
X4739440Y3632720D01*
G37*
G36*
X4770560Y3632720D02*
G01*
X4768580Y3630740D01*
X4768580Y3621780D01*
X4783140Y3621780D01*
X4783140Y3608780D01*
X4768580Y3608780D01*
X4768580Y3599260D01*
X4770560Y3597280D01*
X4802040Y3597280D01*
X4804020Y3599260D01*
X4804020Y3630740D01*
X4802040Y3632720D01*
G37*
G36*
X4727960Y3437720D02*
G01*
X4725980Y3435740D01*
X4725980Y3404260D01*
X4727960Y3402280D01*
X4759440Y3402280D01*
X4761420Y3404260D01*
X4761420Y3413220D01*
X4746860Y3413220D01*
X4746860Y3426220D01*
X4761420Y3426220D01*
X4761420Y3435740D01*
X4759440Y3437720D01*
G37*
G36*
X4790560Y3437720D02*
G01*
X4788580Y3435740D01*
X4788580Y3426780D01*
X4803140Y3426780D01*
X4803140Y3413780D01*
X4788580Y3413780D01*
X4788580Y3404260D01*
X4790560Y3402280D01*
X4822040Y3402280D01*
X4824020Y3404260D01*
X4824020Y3435740D01*
X4822040Y3437720D01*
G37*
G36*
X4727960Y3382720D02*
G01*
X4725980Y3380740D01*
X4725980Y3349260D01*
X4727960Y3347280D01*
X4759440Y3347280D01*
X4761420Y3349260D01*
X4761420Y3358220D01*
X4746860Y3358220D01*
X4746860Y3371220D01*
X4761420Y3371220D01*
X4761420Y3380740D01*
X4759440Y3382720D01*
G37*
G36*
X4790560Y3382720D02*
G01*
X4788580Y3380740D01*
X4788580Y3371780D01*
X4803140Y3371780D01*
X4803140Y3358780D01*
X4788580Y3358780D01*
X4788580Y3349260D01*
X4790560Y3347280D01*
X4822040Y3347280D01*
X4824020Y3349260D01*
X4824020Y3380740D01*
X4822040Y3382720D01*
G37*
G36*
X2709260Y2434020D02*
G01*
X2707280Y2432040D01*
X2707280Y2400560D01*
X2709260Y2398580D01*
X2718220Y2398580D01*
X2718220Y2413160D01*
X2731220Y2413160D01*
X2731220Y2398580D01*
X2740740Y2398580D01*
X2742720Y2400560D01*
X2742720Y2432040D01*
X2740740Y2434020D01*
G37*
G36*
X2709260Y2371420D02*
G01*
X2707280Y2369440D01*
X2707280Y2337960D01*
X2709260Y2335980D01*
X2740740Y2335980D01*
X2742720Y2337960D01*
X2742720Y2369440D01*
X2740740Y2371420D01*
X2731780Y2371420D01*
X2731780Y2356840D01*
X2718780Y2356840D01*
X2718780Y2371420D01*
G37*
G36*
X3682960Y2982720D02*
G01*
X3680980Y2980740D01*
X3680980Y2949260D01*
X3682960Y2947280D01*
X3714440Y2947280D01*
X3716420Y2949260D01*
X3716420Y2958220D01*
X3701860Y2958220D01*
X3701860Y2971220D01*
X3716420Y2971220D01*
X3716420Y2980740D01*
X3714440Y2982720D01*
G37*
G36*
X3745560Y2982720D02*
G01*
X3743580Y2980740D01*
X3743580Y2971780D01*
X3758140Y2971780D01*
X3758140Y2958780D01*
X3743580Y2958780D01*
X3743580Y2949260D01*
X3745560Y2947280D01*
X3777040Y2947280D01*
X3779020Y2949260D01*
X3779020Y2980740D01*
X3777040Y2982720D01*
G37*
G36*
X3150560Y2807720D02*
G01*
X3148580Y2805740D01*
X3148580Y2796780D01*
X3163140Y2796780D01*
X3163140Y2783780D01*
X3148580Y2783780D01*
X3148580Y2774260D01*
X3150560Y2772280D01*
X3182040Y2772280D01*
X3184020Y2774260D01*
X3184020Y2805740D01*
X3182040Y2807720D01*
G37*
G36*
X3087960Y2807720D02*
G01*
X3085980Y2805740D01*
X3085980Y2774260D01*
X3087960Y2772280D01*
X3119440Y2772280D01*
X3121420Y2774260D01*
X3121420Y2783220D01*
X3106860Y2783220D01*
X3106860Y2796220D01*
X3121420Y2796220D01*
X3121420Y2805740D01*
X3119440Y2807720D01*
G37*
D10*
G01*
X4810000Y2945000D03*
G01*
X2655000Y2230000D03*
G01*
X4320000Y3630000D03*
G01*
X4585000Y2670000D03*
G01*
X4970000Y2880000D03*
G01*
X3830000Y1910000D03*
G01*
X2275000Y2850000D03*
G01*
X3800000Y3675000D03*
G01*
X3700000Y2635000D03*
G01*
X4030000Y2365000D03*
G01*
X2650000Y2130000D03*
G01*
X3455000Y2070000D03*
G01*
X4875000Y1835000D03*
G01*
X3160000Y2170000D03*
G01*
X2645000Y2820000D03*
D11*
G01*
X3733500Y2575000D03*
G01*
X3733500Y2525000D03*
G01*
X3733500Y2475000D03*
G01*
X3733500Y2425000D03*
G01*
X3946499Y2575000D03*
G01*
X3946499Y2525000D03*
G01*
X3946499Y2475000D03*
G01*
X3946499Y2425000D03*
D12*
G01*
X3800000Y3147559D03*
G01*
X3800000Y3092440D03*
D13*
G01*
X4102759Y3640000D03*
G01*
X4197240Y3640000D03*
G01*
X3692759Y2900000D03*
G01*
X3787240Y2900000D03*
D14*
G01*
X2427560Y2365000D03*
G01*
X2372439Y2365000D03*
G01*
X3007439Y2365000D03*
G01*
X3062560Y2365000D03*
G01*
X3407560Y2365000D03*
G01*
X3352439Y2365000D03*
D15*
G01*
X2797910Y2680790D03*
D16*
G01*
X2912089Y2730000D03*
D15*
G01*
X2797910Y2779209D03*
G01*
X3072910Y2880790D03*
D16*
G01*
X3187089Y2930000D03*
D15*
G01*
X3072910Y2979209D03*
D17*
G01*
X3605789Y3142089D03*
D18*
G01*
X3655000Y3027910D03*
D17*
G01*
X3704210Y3142089D03*
D14*
G01*
X2802560Y1965000D03*
G01*
X2747439Y1965000D03*
G01*
X3247439Y1965000D03*
G01*
X3302560Y1965000D03*
D12*
G01*
X3000000Y1341559D03*
G01*
X3000000Y1286439D03*
G01*
X3066000Y1341559D03*
G01*
X3066000Y1286439D03*
D14*
G01*
X3246099Y1870349D03*
G01*
X3301210Y1870349D03*
G01*
X3247439Y1805000D03*
G01*
X3302560Y1805000D03*
G01*
X3507560Y1345000D03*
G01*
X3452439Y1345000D03*
D20*
G01*
X4860000Y2175000D03*
G01*
X4860000Y2275000D03*
G01*
X4860000Y2375000D03*
G01*
X4860000Y2475000D03*
G01*
X4860000Y2575000D03*
G01*
X4860000Y2675000D03*
G01*
X4860000Y2775000D03*
G01*
X4860000Y2075000D03*
D14*
G01*
X2582439Y2630000D03*
G01*
X2637560Y2630000D03*
G01*
X3172439Y2635000D03*
G01*
X3227560Y2635000D03*
G01*
X3527439Y2635000D03*
G01*
X3582560Y2635000D03*
G01*
X3107439Y2725000D03*
G01*
X3162560Y2725000D03*
G01*
X3892439Y2640000D03*
G01*
X3947560Y2640000D03*
G01*
X3927439Y3145000D03*
G01*
X3982560Y3145000D03*
G01*
X4322560Y2055000D03*
G01*
X4267439Y2055000D03*
G01*
X4322560Y1985000D03*
G01*
X4267439Y1985000D03*
D13*
G01*
X4727759Y3300000D03*
G01*
X4822240Y3300000D03*
G01*
X4727759Y3485000D03*
G01*
X4822240Y3485000D03*
G01*
X4727759Y3555000D03*
G01*
X4822240Y3555000D03*
D21*
G01*
X4415000Y1767159D03*
G01*
X4415000Y1412840D03*
D22*
G01*
X4660000Y2346619D03*
G01*
X4660000Y2173380D03*
D23*
G01*
X2420850Y2570000D03*
G01*
X2420850Y2520000D03*
G01*
X2420850Y2470000D03*
G01*
X2420850Y2420000D03*
G01*
X2639149Y2570000D03*
G01*
X2639149Y2520000D03*
G01*
X2639149Y2470000D03*
G01*
X2639149Y2420000D03*
G01*
X3005850Y2575000D03*
G01*
X3005850Y2525000D03*
G01*
X3005850Y2475000D03*
G01*
X3005850Y2425000D03*
G01*
X3224149Y2575000D03*
G01*
X3224149Y2525000D03*
G01*
X3224149Y2475000D03*
G01*
X3224149Y2425000D03*
G01*
X3400850Y2575000D03*
G01*
X3400850Y2525000D03*
G01*
X3400850Y2475000D03*
G01*
X3400850Y2425000D03*
G01*
X3619149Y2575000D03*
G01*
X3619149Y2525000D03*
G01*
X3619149Y2475000D03*
G01*
X3619149Y2425000D03*
D24*
G01*
X4647629Y2785000D03*
G01*
X4647629Y2835000D03*
G01*
X4647629Y2885000D03*
G01*
X4647629Y2935000D03*
G01*
X4647629Y2985000D03*
G01*
X4647629Y3035000D03*
G01*
X4647629Y3085000D03*
G01*
X4432370Y2785000D03*
G01*
X4432370Y2835000D03*
G01*
X4432370Y2885000D03*
G01*
X4432370Y2935000D03*
G01*
X4432370Y2985000D03*
G01*
X4432370Y3035000D03*
G01*
X4432370Y3085000D03*
D25*
G01*
X4629020Y3305000D03*
G01*
X4629020Y3355000D03*
G01*
X4629020Y3405000D03*
G01*
X4629020Y3455000D03*
G01*
X4629020Y3505000D03*
G01*
X4629020Y3555000D03*
G01*
X4629020Y3605000D03*
G01*
X4410980Y3305000D03*
G01*
X4410980Y3355000D03*
G01*
X4410980Y3405000D03*
G01*
X4410980Y3455000D03*
G01*
X4410980Y3505000D03*
G01*
X4410980Y3555000D03*
G01*
X4410980Y3605000D03*
D26*
G01*
X3600000Y3238699D03*
G01*
X3500000Y3551300D03*
G01*
X3700000Y3238699D03*
G01*
X3600000Y3551300D03*
G01*
X3800000Y3238699D03*
G01*
X3700000Y3551300D03*
G01*
X3900000Y3238699D03*
G01*
X3800000Y3551300D03*
G01*
X4000000Y3238699D03*
G01*
X3900000Y3551300D03*
G01*
X4100000Y3238699D03*
G01*
X4000000Y3551300D03*
G01*
X4200000Y3238699D03*
G01*
X4200000Y3551300D03*
G01*
X3500000Y3238699D03*
G01*
X4100000Y3551300D03*
M02*
